<svg width="366" height="390" viewBox="0 0 366 390" fill="none" xmlns="http://www.w3.org/2000/svg">
<g clip-path="url(#clip0_400_2711)">
<path d="M343.628 109.958L240.718 109.958C238.762 109.958 236.886 109.23 235.503 107.935C234.12 106.64 233.343 104.883 233.343 103.051V32.8907C233.343 31.0597 234.119 29.3037 235.502 28.009C236.884 26.7143 238.759 25.9869 240.715 25.9869L343.631 25.9869C345.586 25.9869 347.461 26.7143 348.844 28.009C350.226 29.3037 351.003 31.0597 351.003 32.8907V103.051C351.003 104.883 350.226 106.64 348.843 107.935C347.46 109.23 345.584 109.958 343.628 109.958Z" fill="white"/>
<path d="M233.035 103.051V32.8906C233.035 30.983 233.844 29.1536 235.284 27.8048C236.724 26.456 238.678 25.6982 240.715 25.6982H343.631C345.668 25.6982 347.621 26.456 349.062 27.8048C350.502 29.1536 351.311 30.983 351.311 32.8906V103.051C351.311 103.996 351.112 104.932 350.726 105.805C350.34 106.678 349.774 107.471 349.061 108.139C348.347 108.807 347.5 109.337 346.568 109.699C345.636 110.06 344.637 110.246 343.628 110.246H240.718C239.709 110.246 238.71 110.06 237.778 109.699C236.846 109.337 235.999 108.807 235.285 108.139C234.572 107.471 234.006 106.678 233.62 105.805C233.233 104.932 233.035 103.996 233.035 103.051ZM240.715 26.2754C238.842 26.2759 237.045 26.9731 235.721 28.2136C234.397 29.4541 233.653 31.1364 233.653 32.8906V103.051C233.653 104.806 234.397 106.49 235.723 107.731C237.048 108.972 238.846 109.669 240.72 109.669H343.628C345.502 109.669 347.3 108.972 348.625 107.731C349.95 106.49 350.695 104.806 350.695 103.051V32.8906C350.695 31.1361 349.951 29.4535 348.626 28.2129C347.301 26.9724 345.505 26.2754 343.631 26.2754H240.715Z" fill="#292A2E"/>
<path d="M233.343 32.8901V38.736H351.002V32.8901C351.002 31.0591 350.225 29.3031 348.843 28.0084C347.46 26.7137 345.585 25.9863 343.63 25.9863H240.715C239.746 25.9863 238.788 26.1649 237.894 26.5119C236.999 26.8588 236.187 27.3673 235.502 28.0084C234.818 28.6495 234.275 29.4106 233.904 30.2482C233.534 31.0858 233.343 31.9835 233.343 32.8901Z" fill="#292A2E"/>
<path d="M273.526 48.1854H267.974C267.908 48.1854 267.845 48.161 267.799 48.1177C267.753 48.0744 267.727 48.0157 267.727 47.9545C267.727 47.8933 267.753 47.8345 267.799 47.7913C267.845 47.748 267.908 47.7236 267.974 47.7236H273.526C273.591 47.7236 273.654 47.748 273.7 47.7913C273.746 47.8345 273.772 47.8933 273.772 47.9545C273.772 48.0157 273.746 48.0744 273.7 48.1177C273.654 48.161 273.591 48.1854 273.526 48.1854Z" fill="#292A2E"/>
<path d="M263.97 48.1854H261.869C261.803 48.1854 261.741 48.161 261.695 48.1177C261.648 48.0744 261.622 48.0157 261.622 47.9545C261.622 47.8933 261.648 47.8345 261.695 47.7913C261.741 47.748 261.803 47.7236 261.869 47.7236H263.97C264.035 47.7236 264.098 47.748 264.144 47.7913C264.19 47.8345 264.216 47.8933 264.216 47.9545C264.216 48.0157 264.19 48.0744 264.144 48.1177C264.098 48.161 264.035 48.1854 263.97 48.1854Z" fill="#367CFF"/>
<path d="M263.97 52.3504H261.869C261.803 52.3504 261.741 52.3261 261.695 52.2828C261.648 52.2395 261.622 52.1808 261.622 52.1195C261.622 52.0583 261.648 51.9996 261.695 51.9563C261.741 51.913 261.803 51.8887 261.869 51.8887H263.97C264.035 51.8887 264.098 51.913 264.144 51.9563C264.19 51.9996 264.216 52.0583 264.216 52.1195C264.216 52.1808 264.19 52.2395 264.144 52.2828C264.098 52.3261 264.035 52.3504 263.97 52.3504Z" fill="#367CFF"/>
<path d="M263.97 56.5145H261.869C261.803 56.5145 261.741 56.4901 261.695 56.4468C261.648 56.4035 261.622 56.3448 261.622 56.2836C261.622 56.2224 261.648 56.1636 261.695 56.1204C261.741 56.0771 261.803 56.0527 261.869 56.0527H263.97C264.035 56.0527 264.098 56.0771 264.144 56.1204C264.19 56.1636 264.216 56.2224 264.216 56.2836C264.216 56.3448 264.19 56.4035 264.144 56.4468C264.098 56.4901 264.035 56.5145 263.97 56.5145Z" fill="#367CFF"/>
<path d="M263.97 60.6795H261.869C261.803 60.6795 261.741 60.6552 261.695 60.6119C261.648 60.5686 261.622 60.5099 261.622 60.4486C261.622 60.3874 261.648 60.3287 261.695 60.2854C261.741 60.2421 261.803 60.2178 261.869 60.2178H263.97C264.035 60.2178 264.098 60.2421 264.144 60.2854C264.19 60.3287 264.216 60.3874 264.216 60.4486C264.216 60.5099 264.19 60.5686 264.144 60.6119C264.098 60.6552 264.035 60.6795 263.97 60.6795Z" fill="#367CFF"/>
<path d="M263.97 64.8445H261.869C261.803 64.8445 261.741 64.8202 261.695 64.7769C261.648 64.7336 261.622 64.6749 261.622 64.6137C261.622 64.5524 261.648 64.4937 261.695 64.4504C261.741 64.4071 261.803 64.3828 261.869 64.3828H263.97C264.035 64.3828 264.098 64.4071 264.144 64.4504C264.19 64.4937 264.216 64.5524 264.216 64.6137C264.216 64.6749 264.19 64.7336 264.144 64.7769C264.098 64.8202 264.035 64.8445 263.97 64.8445Z" fill="#367CFF"/>
<path d="M263.97 69.0096H261.869C261.803 69.0096 261.741 68.9853 261.695 68.942C261.648 68.8987 261.622 68.8399 261.622 68.7787C261.622 68.7175 261.648 68.6588 261.695 68.6155C261.741 68.5722 261.803 68.5479 261.869 68.5479H263.97C264.035 68.5479 264.098 68.5722 264.144 68.6155C264.19 68.6588 264.216 68.7175 264.216 68.7787C264.216 68.8399 264.19 68.8987 264.144 68.942C264.098 68.9853 264.035 69.0096 263.97 69.0096Z" fill="#367CFF"/>
<path d="M263.97 73.1736H261.869C261.803 73.1736 261.741 73.1493 261.695 73.106C261.648 73.0627 261.622 73.004 261.622 72.9428C261.622 72.8815 261.648 72.8228 261.695 72.7795C261.741 72.7362 261.803 72.7119 261.869 72.7119H263.97C264.035 72.7119 264.098 72.7362 264.144 72.7795C264.19 72.8228 264.216 72.8815 264.216 72.9428C264.216 73.004 264.19 73.0627 264.144 73.106C264.098 73.1493 264.035 73.1736 263.97 73.1736Z" fill="#367CFF"/>
<path d="M263.97 77.3387H261.869C261.803 77.3387 261.741 77.3144 261.695 77.2711C261.648 77.2278 261.622 77.169 261.622 77.1078C261.622 77.0466 261.648 76.9879 261.695 76.9446C261.741 76.9013 261.803 76.877 261.869 76.877H263.97C264.035 76.877 264.098 76.9013 264.144 76.9446C264.19 76.9879 264.216 77.0466 264.216 77.1078C264.216 77.169 264.19 77.2278 264.144 77.2711C264.098 77.3144 264.035 77.3387 263.97 77.3387Z" fill="#367CFF"/>
<path d="M263.97 81.5037H261.869C261.803 81.5037 261.741 81.4794 261.695 81.4361C261.648 81.3928 261.622 81.3341 261.622 81.2729C261.622 81.2116 261.648 81.1529 261.695 81.1096C261.741 81.0663 261.803 81.042 261.869 81.042H263.97C264.035 81.042 264.098 81.0663 264.144 81.1096C264.19 81.1529 264.216 81.2116 264.216 81.2729C264.216 81.3341 264.19 81.3928 264.144 81.4361C264.098 81.4794 264.035 81.5037 263.97 81.5037Z" fill="#367CFF"/>
<path d="M263.97 85.6688H261.869C261.803 85.6688 261.741 85.6444 261.695 85.6011C261.648 85.5578 261.622 85.4991 261.622 85.4379C261.622 85.3767 261.648 85.3179 261.695 85.2747C261.741 85.2314 261.803 85.207 261.869 85.207H263.97C264.035 85.207 264.098 85.2314 264.144 85.2747C264.19 85.3179 264.216 85.3767 264.216 85.4379C264.216 85.4991 264.19 85.5578 264.144 85.6011C264.098 85.6444 264.035 85.6688 263.97 85.6688Z" fill="#367CFF"/>
<path d="M263.97 89.8328H261.869C261.803 89.8328 261.741 89.8085 261.695 89.7652C261.648 89.7219 261.622 89.6632 261.622 89.602C261.622 89.5407 261.648 89.482 261.695 89.4387C261.741 89.3954 261.803 89.3711 261.869 89.3711H263.97C264.035 89.3711 264.098 89.3954 264.144 89.4387C264.19 89.482 264.216 89.5407 264.216 89.602C264.216 89.6632 264.19 89.7219 264.144 89.7652C264.098 89.8085 264.035 89.8328 263.97 89.8328Z" fill="#367CFF"/>
<path d="M263.97 93.9979H261.869C261.803 93.9979 261.741 93.9735 261.695 93.9302C261.648 93.8869 261.622 93.8282 261.622 93.767C261.622 93.7058 261.648 93.647 261.695 93.6037C261.741 93.5605 261.803 93.5361 261.869 93.5361H263.97C264.035 93.5361 264.098 93.5605 264.144 93.6037C264.19 93.647 264.216 93.7058 264.216 93.767C264.216 93.8282 264.19 93.8869 264.144 93.9302C264.098 93.9735 264.035 93.9979 263.97 93.9979Z" fill="#367CFF"/>
<path d="M263.97 98.1629H261.869C261.803 98.1629 261.741 98.1386 261.695 98.0953C261.648 98.052 261.622 97.9933 261.622 97.932C261.622 97.8708 261.648 97.8121 261.695 97.7688C261.741 97.7255 261.803 97.7012 261.869 97.7012H263.97C264.035 97.7012 264.098 97.7255 264.144 97.7688C264.19 97.8121 264.216 97.8708 264.216 97.932C264.216 97.9933 264.19 98.052 264.144 98.0953C264.098 98.1386 264.035 98.1629 263.97 98.1629Z" fill="#367CFF"/>
<path d="M263.97 102.328H261.869C261.803 102.328 261.741 102.304 261.695 102.26C261.648 102.217 261.622 102.158 261.622 102.097C261.622 102.036 261.648 101.977 261.695 101.934C261.741 101.891 261.803 101.866 261.869 101.866H263.97C264.035 101.866 264.098 101.891 264.144 101.934C264.19 101.977 264.216 102.036 264.216 102.097C264.216 102.158 264.19 102.217 264.144 102.26C264.098 102.304 264.035 102.328 263.97 102.328Z" fill="#367CFF"/>
<path d="M277.963 52.3504H272.904C272.839 52.3504 272.776 52.3261 272.73 52.2828C272.683 52.2395 272.657 52.1808 272.657 52.1195C272.657 52.0583 272.683 51.9996 272.73 51.9563C272.776 51.913 272.839 51.8887 272.904 51.8887H277.963C278.028 51.8887 278.091 51.913 278.137 51.9563C278.183 51.9996 278.209 52.0583 278.209 52.1195C278.209 52.1808 278.183 52.2395 278.137 52.2828C278.091 52.3261 278.028 52.3504 277.963 52.3504Z" fill="#292A2E"/>
<path d="M273.526 77.3387H267.974C267.908 77.3387 267.845 77.3144 267.799 77.2711C267.753 77.2278 267.727 77.169 267.727 77.1078C267.727 77.0466 267.753 76.9879 267.799 76.9446C267.845 76.9013 267.908 76.877 267.974 76.877H273.526C273.591 76.877 273.654 76.9013 273.7 76.9446C273.746 76.9879 273.772 77.0466 273.772 77.1078C273.772 77.169 273.746 77.2278 273.7 77.2711C273.654 77.3144 273.591 77.3387 273.526 77.3387Z" fill="#292A2E"/>
<path d="M277.963 81.5037H272.904C272.839 81.5037 272.776 81.4794 272.73 81.4361C272.683 81.3928 272.657 81.3341 272.657 81.2729C272.657 81.2116 272.683 81.1529 272.73 81.1096C272.776 81.0663 272.839 81.042 272.904 81.042H277.963C278.028 81.042 278.091 81.0663 278.137 81.1096C278.183 81.1529 278.209 81.2116 278.209 81.2729C278.209 81.3341 278.183 81.3928 278.137 81.4361C278.091 81.4794 278.028 81.5037 277.963 81.5037Z" fill="#292A2E"/>
<path d="M306.559 56.5145H276.355C276.29 56.5145 276.227 56.4901 276.181 56.4468C276.135 56.4035 276.109 56.3448 276.109 56.2836C276.109 56.2224 276.135 56.1636 276.181 56.1204C276.227 56.0771 276.29 56.0527 276.355 56.0527H306.559C306.624 56.0527 306.687 56.0771 306.733 56.1204C306.779 56.1636 306.805 56.2224 306.805 56.2836C306.805 56.3448 306.779 56.4035 306.733 56.4468C306.687 56.4901 306.624 56.5145 306.559 56.5145Z" fill="#292A2E"/>
<path d="M333.225 56.5145H311.896C311.831 56.5145 311.768 56.4901 311.722 56.4468C311.676 56.4035 311.65 56.3448 311.65 56.2836C311.65 56.2224 311.676 56.1636 311.722 56.1204C311.768 56.0771 311.831 56.0527 311.896 56.0527H333.225C333.29 56.0527 333.353 56.0771 333.399 56.1204C333.445 56.1636 333.471 56.2224 333.471 56.2836C333.471 56.3448 333.445 56.4035 333.399 56.4468C333.353 56.4901 333.29 56.5145 333.225 56.5145Z" fill="#0CBC8B"/>
<path d="M344.671 56.5145H338.133C338.068 56.5145 338.005 56.4901 337.959 56.4468C337.913 56.4035 337.887 56.3448 337.887 56.2836C337.887 56.2224 337.913 56.1636 337.959 56.1204C338.005 56.0771 338.068 56.0527 338.133 56.0527H344.671C344.736 56.0527 344.799 56.0771 344.845 56.1204C344.892 56.1636 344.918 56.2224 344.918 56.2836C344.918 56.3448 344.892 56.4035 344.845 56.4468C344.799 56.4901 344.736 56.5145 344.671 56.5145Z" fill="#292A2E"/>
<path d="M321.349 64.8445H276.355C276.29 64.8445 276.227 64.8202 276.181 64.7769C276.135 64.7336 276.109 64.6749 276.109 64.6137C276.109 64.5524 276.135 64.4937 276.181 64.4504C276.227 64.4071 276.29 64.3828 276.355 64.3828H321.349C321.415 64.3828 321.477 64.4071 321.524 64.4504C321.57 64.4937 321.596 64.5524 321.596 64.6137C321.596 64.6749 321.57 64.7336 321.524 64.7769C321.477 64.8202 321.415 64.8445 321.349 64.8445Z" fill="#292A2E"/>
<path d="M333.225 64.8445H326.687C326.622 64.8445 326.559 64.8202 326.513 64.7769C326.467 64.7336 326.441 64.6749 326.441 64.6137C326.441 64.5524 326.467 64.4937 326.513 64.4504C326.559 64.4071 326.622 64.3828 326.687 64.3828H333.225C333.29 64.3828 333.353 64.4071 333.399 64.4504C333.446 64.4937 333.472 64.5524 333.472 64.6137C333.472 64.6749 333.446 64.7336 333.399 64.7769C333.353 64.8202 333.29 64.8445 333.225 64.8445Z" fill="#367CFF"/>
<path d="M281.907 60.6795H276.355C276.29 60.6795 276.227 60.6552 276.181 60.6119C276.135 60.5686 276.109 60.5099 276.109 60.4486C276.109 60.3874 276.135 60.3287 276.181 60.2854C276.227 60.2421 276.29 60.2178 276.355 60.2178H281.907C281.973 60.2178 282.035 60.2421 282.081 60.2854C282.128 60.3287 282.154 60.3874 282.154 60.4486C282.154 60.5099 282.128 60.5686 282.081 60.6119C282.035 60.6552 281.973 60.6795 281.907 60.6795Z" fill="#0CBC8B"/>
<path d="M318.434 60.6795H287.245C287.18 60.6795 287.117 60.6552 287.071 60.6119C287.025 60.5686 286.999 60.5099 286.999 60.4486C286.999 60.3874 287.025 60.3287 287.071 60.2854C287.117 60.2421 287.18 60.2178 287.245 60.2178H318.434C318.499 60.2178 318.562 60.2421 318.608 60.2854C318.655 60.3287 318.681 60.3874 318.681 60.4486C318.681 60.5099 318.655 60.5686 318.608 60.6119C318.562 60.6552 318.499 60.6795 318.434 60.6795Z" fill="#367CFF"/>
<path d="M344.714 60.6795H324.37C324.305 60.6795 324.242 60.6552 324.196 60.6119C324.149 60.5686 324.124 60.5099 324.124 60.4486C324.124 60.3874 324.149 60.3287 324.196 60.2854C324.242 60.2421 324.305 60.2178 324.37 60.2178H344.713C344.778 60.2178 344.841 60.2421 344.887 60.2854C344.933 60.3287 344.959 60.3874 344.959 60.4486C344.959 60.5099 344.933 60.5686 344.887 60.6119C344.841 60.6552 344.778 60.6795 344.713 60.6795H344.714Z" fill="#292A2E"/>
<path d="M306.559 69.0096H276.355C276.29 69.0096 276.227 68.9853 276.181 68.942C276.135 68.8987 276.109 68.8399 276.109 68.7787C276.109 68.7175 276.135 68.6588 276.181 68.6155C276.227 68.5722 276.29 68.5479 276.355 68.5479H306.559C306.624 68.5479 306.687 68.5722 306.733 68.6155C306.779 68.6588 306.805 68.7175 306.805 68.7787C306.805 68.8399 306.779 68.8987 306.733 68.942C306.687 68.9853 306.624 69.0096 306.559 69.0096Z" fill="#292A2E"/>
<path d="M323.364 69.0096H311.896C311.831 69.0096 311.768 68.9853 311.722 68.942C311.676 68.8987 311.65 68.8399 311.65 68.7787C311.65 68.7175 311.676 68.6588 311.722 68.6155C311.768 68.5722 311.831 68.5479 311.896 68.5479H323.364C323.43 68.5479 323.492 68.5722 323.539 68.6155C323.585 68.6588 323.611 68.7175 323.611 68.7787C323.611 68.8399 323.585 68.8987 323.539 68.942C323.492 68.9853 323.43 69.0096 323.364 69.0096Z" fill="#0CBC8B"/>
<path d="M344.671 69.0096H328.273C328.208 69.0096 328.145 68.9853 328.099 68.942C328.052 68.8987 328.026 68.8399 328.026 68.7787C328.026 68.7175 328.052 68.6588 328.099 68.6155C328.145 68.5722 328.208 68.5479 328.273 68.5479H344.671C344.736 68.5479 344.799 68.5722 344.845 68.6155C344.892 68.6588 344.918 68.7175 344.918 68.7787C344.918 68.8399 344.892 68.8987 344.845 68.942C344.799 68.9853 344.736 69.0096 344.671 69.0096Z" fill="#292A2E"/>
<path d="M281.907 73.1736H276.355C276.29 73.1736 276.227 73.1493 276.181 73.106C276.135 73.0627 276.109 73.004 276.109 72.9428C276.109 72.8815 276.135 72.8228 276.181 72.7795C276.227 72.7362 276.29 72.7119 276.355 72.7119H281.907C281.973 72.7119 282.035 72.7362 282.081 72.7795C282.128 72.8228 282.154 72.8815 282.154 72.9428C282.154 73.004 282.128 73.0627 282.081 73.106C282.035 73.1493 281.973 73.1736 281.907 73.1736Z" fill="#367CFF"/>
<path d="M318.434 73.1736H287.245C287.18 73.1736 287.117 73.1493 287.071 73.106C287.025 73.0627 286.999 73.004 286.999 72.9428C286.999 72.8815 287.025 72.8228 287.071 72.7795C287.117 72.7362 287.18 72.7119 287.245 72.7119H318.434C318.499 72.7119 318.562 72.7362 318.608 72.7795C318.655 72.8228 318.681 72.8815 318.681 72.9428C318.681 73.004 318.655 73.0627 318.608 73.106C318.562 73.1493 318.499 73.1736 318.434 73.1736Z" fill="#0CBC8B"/>
<path d="M305.572 89.8328H275.369C275.304 89.8328 275.241 89.8085 275.195 89.7652C275.149 89.7219 275.123 89.6632 275.123 89.602C275.123 89.5407 275.149 89.482 275.195 89.4387C275.241 89.3954 275.304 89.3711 275.369 89.3711H305.572C305.638 89.3711 305.701 89.3954 305.747 89.4387C305.793 89.482 305.819 89.5407 305.819 89.602C305.819 89.6632 305.793 89.7219 305.747 89.7652C305.701 89.8085 305.638 89.8328 305.572 89.8328Z" fill="#292A2E"/>
<path d="M332.239 89.8328H310.911C310.845 89.8328 310.783 89.8085 310.736 89.7652C310.69 89.7219 310.664 89.6632 310.664 89.602C310.664 89.5407 310.69 89.482 310.736 89.4387C310.783 89.3954 310.845 89.3711 310.911 89.3711H332.239C332.304 89.3711 332.367 89.3954 332.413 89.4387C332.46 89.482 332.485 89.5407 332.485 89.602C332.485 89.6632 332.46 89.7219 332.413 89.7652C332.367 89.8085 332.304 89.8328 332.239 89.8328Z" fill="#367CFF"/>
<path d="M290.782 85.6688H275.369C275.304 85.6688 275.241 85.6444 275.195 85.6011C275.149 85.5578 275.123 85.4991 275.123 85.4379C275.123 85.3767 275.149 85.3179 275.195 85.2747C275.241 85.2314 275.304 85.207 275.369 85.207H290.782C290.847 85.207 290.91 85.2314 290.956 85.2747C291.002 85.3179 291.028 85.3767 291.028 85.4379C291.028 85.4991 291.002 85.5578 290.956 85.6011C290.91 85.6444 290.847 85.6688 290.782 85.6688Z" fill="#0CBC8B"/>
<path d="M317.448 85.6688H296.12C296.054 85.6688 295.991 85.6444 295.945 85.6011C295.899 85.5578 295.873 85.4991 295.873 85.4379C295.873 85.3767 295.899 85.3179 295.945 85.2747C295.991 85.2314 296.054 85.207 296.12 85.207H317.448C317.513 85.207 317.576 85.2314 317.622 85.2747C317.669 85.3179 317.694 85.3767 317.694 85.4379C317.694 85.4991 317.669 85.5578 317.622 85.6011C317.576 85.6444 317.513 85.6688 317.448 85.6688Z" fill="#367CFF"/>
<path d="M343.728 85.6688H323.384C323.319 85.6688 323.256 85.6444 323.21 85.6011C323.164 85.5578 323.138 85.4991 323.138 85.4379C323.138 85.3767 323.164 85.3179 323.21 85.2747C323.256 85.2314 323.319 85.207 323.384 85.207H343.727C343.792 85.207 343.855 85.2314 343.901 85.2747C343.948 85.3179 343.974 85.3767 343.974 85.4379C343.974 85.4991 343.948 85.5578 343.901 85.6011C343.855 85.6444 343.792 85.6688 343.727 85.6688H343.728Z" fill="#292A2E"/>
<path d="M320.363 98.1629H275.369C275.304 98.1629 275.241 98.1386 275.195 98.0953C275.149 98.052 275.123 97.9933 275.123 97.932C275.123 97.8708 275.149 97.8121 275.195 97.7688C275.241 97.7255 275.304 97.7012 275.369 97.7012H320.363C320.429 97.7012 320.491 97.7255 320.538 97.7688C320.584 97.8121 320.61 97.8708 320.61 97.932C320.61 97.9933 320.584 98.052 320.538 98.0953C320.491 98.1386 320.429 98.1629 320.363 98.1629Z" fill="#367CFF"/>
<path d="M332.239 98.1629H325.701C325.636 98.1629 325.573 98.1386 325.527 98.0953C325.481 98.052 325.455 97.9933 325.455 97.932C325.455 97.8708 325.481 97.8121 325.527 97.7688C325.573 97.7255 325.636 97.7012 325.701 97.7012H332.239C332.304 97.7012 332.367 97.7255 332.413 97.7688C332.459 97.8121 332.485 97.8708 332.485 97.932C332.485 97.9933 332.459 98.052 332.413 98.0953C332.367 98.1386 332.304 98.1629 332.239 98.1629Z" fill="#292A2E"/>
<path d="M280.921 93.9979H275.369C275.304 93.9979 275.241 93.9735 275.195 93.9302C275.149 93.8869 275.123 93.8282 275.123 93.767C275.123 93.7058 275.149 93.647 275.195 93.6038C275.241 93.5605 275.304 93.5361 275.369 93.5361H280.921C280.986 93.5361 281.049 93.5605 281.095 93.6038C281.142 93.647 281.168 93.7058 281.168 93.767C281.168 93.8282 281.142 93.8869 281.095 93.9302C281.049 93.9735 280.986 93.9979 280.921 93.9979Z" fill="#367CFF"/>
<path d="M317.448 93.9979H286.259C286.194 93.9979 286.131 93.9735 286.085 93.9302C286.038 93.8869 286.012 93.8282 286.012 93.767C286.012 93.7058 286.038 93.647 286.085 93.6038C286.131 93.5605 286.194 93.5361 286.259 93.5361H317.448C317.513 93.5361 317.576 93.5605 317.622 93.6038C317.668 93.647 317.694 93.7058 317.694 93.767C317.694 93.8282 317.668 93.8869 317.622 93.9302C317.576 93.9735 317.513 93.9979 317.448 93.9979Z" fill="#292A2E"/>
<path d="M343.728 93.9979H323.384C323.319 93.9979 323.256 93.9735 323.21 93.9302C323.164 93.8869 323.138 93.8282 323.138 93.767C323.138 93.7058 323.164 93.647 323.21 93.6038C323.256 93.5605 323.319 93.5361 323.384 93.5361H343.727C343.792 93.5361 343.855 93.5605 343.901 93.6038C343.948 93.647 343.974 93.7058 343.974 93.767C343.974 93.8282 343.948 93.8869 343.901 93.9302C343.855 93.9735 343.792 93.9979 343.727 93.9979H343.728Z" fill="#0CBC8B"/>
<path d="M305.572 102.328H275.369C275.304 102.328 275.241 102.304 275.195 102.26C275.149 102.217 275.123 102.158 275.123 102.097C275.123 102.036 275.149 101.977 275.195 101.934C275.241 101.891 275.304 101.866 275.369 101.866H305.572C305.638 101.866 305.701 101.891 305.747 101.934C305.793 101.977 305.819 102.036 305.819 102.097C305.819 102.158 305.793 102.217 305.747 102.26C305.701 102.304 305.638 102.328 305.572 102.328Z" fill="#0CBC8B"/>
<path d="M322.378 102.328H310.911C310.845 102.328 310.783 102.304 310.736 102.26C310.69 102.217 310.664 102.158 310.664 102.097C310.664 102.036 310.69 101.977 310.736 101.934C310.783 101.891 310.845 101.866 310.911 101.866H322.378C322.444 101.866 322.507 101.891 322.553 101.934C322.599 101.977 322.625 102.036 322.625 102.097C322.625 102.158 322.599 102.217 322.553 102.26C322.507 102.304 322.444 102.328 322.378 102.328Z" fill="#292A2E"/>
<path d="M343.685 102.328H327.287C327.221 102.328 327.159 102.304 327.113 102.26C327.066 102.217 327.04 102.158 327.04 102.097C327.04 102.036 327.066 101.977 327.113 101.934C327.159 101.891 327.221 101.866 327.287 101.866H343.685C343.75 101.866 343.813 101.891 343.859 101.934C343.905 101.977 343.931 102.036 343.931 102.097C343.931 102.158 343.905 102.217 343.859 102.26C343.813 102.304 343.75 102.328 343.685 102.328Z" fill="#367CFF"/>
<path d="M259.528 106.784C259.462 106.784 259.399 106.76 259.353 106.716C259.307 106.673 259.281 106.614 259.281 106.553V40.9145C259.281 40.8532 259.307 40.7945 259.353 40.7512C259.399 40.7079 259.462 40.6836 259.528 40.6836C259.593 40.6836 259.656 40.7079 259.702 40.7512C259.748 40.7945 259.774 40.8532 259.774 40.9145V106.553C259.774 106.614 259.748 106.673 259.702 106.716C259.656 106.76 259.593 106.784 259.528 106.784Z" fill="#292A2E"/>
<path d="M342.089 36.5271C344.273 36.5271 346.044 34.8688 346.044 32.8231C346.044 30.7775 344.273 29.1191 342.089 29.1191C339.904 29.1191 338.134 30.7775 338.134 32.8231C338.134 34.8688 339.904 36.5271 342.089 36.5271Z" fill="white"/>
<path d="M248.252 43.7986H237.577C237.512 43.7986 237.449 43.7743 237.403 43.731C237.357 43.6877 237.331 43.629 237.331 43.5678C237.331 43.5065 237.357 43.4478 237.403 43.4045C237.449 43.3612 237.512 43.3369 237.577 43.3369H248.252C248.318 43.3369 248.38 43.3612 248.427 43.4045C248.473 43.4478 248.499 43.5065 248.499 43.5678C248.499 43.629 248.473 43.6877 248.427 43.731C248.38 43.7743 248.318 43.7986 248.252 43.7986Z" fill="#292A2E"/>
<path d="M245.036 48.3524H237.577C237.512 48.3524 237.449 48.328 237.403 48.2847C237.357 48.2414 237.331 48.1827 237.331 48.1215C237.331 48.0603 237.357 48.0015 237.403 47.9582C237.449 47.9149 237.512 47.8906 237.577 47.8906H245.036C245.102 47.8906 245.164 47.9149 245.211 47.9582C245.257 48.0015 245.283 48.0603 245.283 48.1215C245.283 48.1827 245.257 48.2414 245.211 48.2847C245.164 48.328 245.102 48.3524 245.036 48.3524Z" fill="#292A2E"/>
<path d="M251.596 52.9061H237.577C237.512 52.9061 237.449 52.8817 237.403 52.8384C237.357 52.7951 237.331 52.7364 237.331 52.6752C237.331 52.614 237.357 52.5552 237.403 52.512C237.449 52.4687 237.512 52.4443 237.577 52.4443H251.596C251.661 52.4443 251.724 52.4687 251.77 52.512C251.817 52.5552 251.843 52.614 251.843 52.6752C251.843 52.7364 251.817 52.7951 251.77 52.8384C251.724 52.8817 251.661 52.9061 251.596 52.9061Z" fill="#292A2E"/>
<path d="M254.212 57.4598H242.508C242.442 57.4598 242.379 57.4355 242.333 57.3922C242.287 57.3489 242.261 57.2901 242.261 57.2289C242.261 57.1677 242.287 57.109 242.333 57.0657C242.379 57.0224 242.442 56.998 242.508 56.998H254.212C254.277 56.998 254.34 57.0224 254.386 57.0657C254.433 57.109 254.458 57.1677 254.458 57.2289C254.458 57.2901 254.433 57.3489 254.386 57.3922C254.34 57.4355 254.277 57.4598 254.212 57.4598Z" fill="#292A2E"/>
<path d="M248.552 62.0135H242.508C242.442 62.0135 242.379 61.9892 242.333 61.9459C242.287 61.9026 242.261 61.8439 242.261 61.7826C242.261 61.7214 242.287 61.6627 242.333 61.6194C242.379 61.5761 242.442 61.5518 242.508 61.5518H248.552C248.617 61.5518 248.68 61.5761 248.726 61.6194C248.773 61.6627 248.799 61.7214 248.799 61.7826C248.799 61.8439 248.773 61.9026 248.726 61.9459C248.68 61.9892 248.617 62.0135 248.552 62.0135Z" fill="#292A2E"/>
<path d="M253.183 66.5672H242.508C242.442 66.5672 242.379 66.5429 242.333 66.4996C242.287 66.4563 242.261 66.3976 242.261 66.3363C242.261 66.2751 242.287 66.2164 242.333 66.1731C242.379 66.1298 242.442 66.1055 242.508 66.1055H253.183C253.248 66.1055 253.311 66.1298 253.357 66.1731C253.403 66.2164 253.429 66.2751 253.429 66.3363C253.429 66.3976 253.403 66.4563 253.357 66.4996C253.311 66.5429 253.248 66.5672 253.183 66.5672Z" fill="#292A2E"/>
<path d="M245.808 71.1209H237.577C237.512 71.1209 237.449 71.0966 237.403 71.0533C237.357 71.01 237.331 70.9513 237.331 70.89C237.331 70.8288 237.357 70.7701 237.403 70.7268C237.449 70.6835 237.512 70.6592 237.577 70.6592H245.808C245.874 70.6592 245.937 70.6835 245.983 70.7268C246.029 70.7701 246.055 70.8288 246.055 70.89C246.055 70.9513 246.029 71.01 245.983 71.0533C245.937 71.0966 245.874 71.1209 245.808 71.1209Z" fill="#292A2E"/>
<path d="M242.979 75.6736H237.577C237.512 75.6736 237.449 75.6493 237.403 75.606C237.357 75.5627 237.331 75.504 237.331 75.4428C237.331 75.3815 237.357 75.3228 237.403 75.2795C237.449 75.2362 237.512 75.2119 237.577 75.2119H242.979C243.044 75.2119 243.107 75.2362 243.153 75.2795C243.199 75.3228 243.225 75.3815 243.225 75.4428C243.225 75.504 243.199 75.5627 243.153 75.606C243.107 75.6493 243.044 75.6736 242.979 75.6736Z" fill="#292A2E"/>
<path d="M204.565 0.320312H30.9077V162.952H204.565V0.320312Z" fill="#F4F4F4"/>
<path d="M30.9076 0.320312H28.9172V162.952H30.9076V0.320312Z" fill="#F4F4F4"/>
<path opacity="0.05" d="M30.9076 0.320312H28.9172V162.952H30.9076V0.320312Z" fill="#292A2E"/>
<path opacity="0.05" d="M72.9767 112.388V69.8379H110.194V94.5588H167.844V138.329H192.346V162.953H167.844H163.124H39.2615V112.388H72.9767Z" fill="#292A2E"/>
<path opacity="0.34" d="M105.417 74.457H78.3147V79.0771H105.417V74.457Z" fill="#FFFFFA"/>
<path opacity="0.34" d="M105.417 84.0303H78.3147V88.6503H105.417V84.0303Z" fill="#FFFFFA"/>
<path opacity="0.34" d="M105.417 93.6035H78.3147V98.2236H105.417V93.6035Z" fill="#FFFFFA"/>
<path opacity="0.34" d="M49.0625 116.872H44.0671V121.492H49.0625V116.872Z" fill="#FFFFFA"/>
<path opacity="0.34" d="M49.0625 126.445H44.0671V131.065H49.0625V126.445Z" fill="#FFFFFA"/>
<path opacity="0.34" d="M49.0625 136.02H44.0671V140.64H49.0625V136.02Z" fill="#FFFFFA"/>
<path opacity="0.34" d="M58.3037 116.872H53.3083V121.492H58.3037V116.872Z" fill="#FFFFFA"/>
<path opacity="0.34" d="M58.3037 126.445H53.3083V131.065H58.3037V126.445Z" fill="#FFFFFA"/>
<path opacity="0.34" d="M58.3037 136.02H53.3083V140.64H58.3037V136.02Z" fill="#FFFFFA"/>
<path opacity="0.34" d="M67.2957 116.872H62.3003V121.492H67.2957V116.872Z" fill="#FFFFFA"/>
<path opacity="0.34" d="M67.2957 126.445H62.3003V131.065H67.2957V126.445Z" fill="#FFFFFA"/>
<path opacity="0.34" d="M67.2957 136.02H62.3003V140.64H67.2957V136.02Z" fill="#FFFFFA"/>
<path d="M30.9077 80.7241H65.8506V0.320312H68.7402V80.7241H163.124V0.320312H166.014V80.7241H204.565V83.4303H166.014V162.952H163.124V83.4303H68.7402V162.952H65.8506V83.4303H30.9077V80.7241Z" fill="white"/>
<path d="M211.483 162.756H23.99V168.165H211.483V162.756Z" fill="#F4F4F4"/>
<path opacity="0.1" d="M211.483 162.756H23.99V168.165H211.483V162.756Z" fill="#292A2E"/>
<path opacity="0.1" d="M23.9899 162.756H21.2827V168.165H23.9899V162.756Z" fill="#292A2E"/>
<path opacity="0.1" d="M23.9899 162.756H21.2827V168.165H23.9899V162.756Z" fill="#292A2E"/>
<path d="M28.9173 7.24512L204.564 7.24512V3.22394L28.9173 3.22394V7.24512Z" fill="white"/>
<path d="M28.9173 14.7568L204.564 14.7568V10.7357L28.9173 10.7357V14.7568Z" fill="white"/>
<path d="M28.9173 22.2676L204.564 22.2676V18.2464L28.9173 18.2464V22.2676Z" fill="white"/>
<path d="M28.9173 29.7783L204.564 29.7783V25.7571L28.9173 25.7571V29.7783Z" fill="white"/>
<path d="M28.9173 37.2891L204.564 37.2891V33.2679L28.9173 33.2679V37.2891Z" fill="white"/>
<path d="M47.573 41.8242H50.2053L50.2053 0.320953H47.573L47.573 41.8242Z" fill="white"/>
<path d="M48.6659 47.7843C50.6632 47.7843 52.2823 46.268 52.2823 44.3975C52.2823 42.527 50.6632 41.0107 48.6659 41.0107C46.6687 41.0107 45.0496 42.527 45.0496 44.3975C45.0496 46.268 46.6687 47.7843 48.6659 47.7843Z" fill="white"/>
<path d="M30.4505 389.01L29.4822 388.835L44.6162 247.994L45.5845 248.169L30.4505 389.01Z" fill="#494949"/>
<path d="M86.8025 389.01L85.8342 388.835L100.968 247.994L101.936 248.169L86.8025 389.01Z" fill="#494949"/>
<path d="M211.365 389.01L212.333 388.835L197.2 247.994L196.231 248.169L211.365 389.01Z" fill="#494949"/>
<path d="M155.013 389.01L155.981 388.835L140.848 247.994L139.88 248.169L155.013 389.01Z" fill="#494949"/>
<path d="M134.943 186.01L133.966 186.132L142.807 248.144L143.784 248.022L134.943 186.01Z" fill="#494949"/>
<path d="M33.4662 186.009L32.4888 186.131L41.3297 248.143L42.3071 248.021L33.4662 186.009Z" fill="#494949"/>
<path d="M143.699 243.54H44.4424C41.7644 243.54 39.5935 245.573 39.5935 248.081V248.082C39.5935 250.59 41.7644 252.623 44.4424 252.623H143.699C146.377 252.623 148.548 250.59 148.548 248.082V248.081C148.548 245.573 146.377 243.54 143.699 243.54Z" fill="#292A2E"/>
<path opacity="0.8" d="M143.699 243.54H44.4424C41.7644 243.54 39.5935 245.573 39.5935 248.081V248.082C39.5935 250.59 41.7644 252.623 44.4424 252.623H143.699C146.377 252.623 148.548 250.59 148.548 248.082V248.081C148.548 245.573 146.377 243.54 143.699 243.54Z" fill="white"/>
<path d="M143.699 253.084H44.443C43.7415 253.084 43.0469 252.954 42.3988 252.703C41.7506 252.452 41.1617 252.083 40.6657 251.618C40.1697 251.154 39.7762 250.602 39.5077 249.995C39.2392 249.388 39.1011 248.738 39.1011 248.081C39.1011 247.424 39.2392 246.773 39.5077 246.166C39.7762 245.559 40.1697 245.008 40.6657 244.543C41.1617 244.079 41.7506 243.71 42.3988 243.459C43.0469 243.208 43.7415 243.078 44.443 243.078H143.699C144.4 243.078 145.095 243.208 145.743 243.459C146.391 243.71 146.98 244.079 147.476 244.543C147.972 245.008 148.366 245.559 148.634 246.166C148.903 246.773 149.041 247.424 149.041 248.081C149.041 248.738 148.903 249.388 148.634 249.995C148.366 250.602 147.972 251.154 147.476 251.618C146.98 252.083 146.391 252.452 145.743 252.703C145.095 252.954 144.4 253.084 143.699 253.084ZM44.443 244.002C43.871 244.002 43.3046 244.107 42.7761 244.312C42.2476 244.517 41.7674 244.818 41.3629 245.196C40.9585 245.575 40.6376 246.025 40.4187 246.52C40.1998 247.015 40.0871 247.545 40.0871 248.081C40.0871 248.617 40.1998 249.147 40.4187 249.642C40.6376 250.137 40.9585 250.587 41.3629 250.965C41.7674 251.344 42.2476 251.645 42.7761 251.85C43.3046 252.055 43.871 252.16 44.443 252.16H143.699C144.271 252.16 144.837 252.055 145.366 251.85C145.894 251.645 146.375 251.344 146.779 250.965C147.184 250.587 147.504 250.137 147.723 249.642C147.942 249.147 148.055 248.617 148.055 248.081C148.055 247.545 147.942 247.015 147.723 246.52C147.504 246.025 147.184 245.575 146.779 245.196C146.375 244.818 145.894 244.517 145.366 244.312C144.837 244.107 144.271 244.002 143.699 244.002H44.443Z" fill="#292A2E"/>
<path d="M198.177 243.54H98.9202C96.2422 243.54 94.0713 245.573 94.0713 248.081V248.082C94.0713 250.59 96.2422 252.623 98.9202 252.623H198.177C200.855 252.623 203.026 250.59 203.026 248.082V248.081C203.026 245.573 200.855 243.54 198.177 243.54Z" fill="white"/>
<path d="M198.177 253.084H98.9203C98.2188 253.084 97.5242 252.954 96.8761 252.703C96.2279 252.452 95.639 252.083 95.143 251.618C94.6469 251.154 94.2535 250.602 93.985 249.995C93.7165 249.388 93.5784 248.738 93.5784 248.081C93.5784 247.424 93.7165 246.773 93.985 246.166C94.2535 245.559 94.6469 245.008 95.143 244.543C95.639 244.079 96.2279 243.71 96.8761 243.459C97.5242 243.208 98.2188 243.078 98.9203 243.078H198.177C198.878 243.078 199.573 243.208 200.221 243.459C200.869 243.71 201.458 244.079 201.954 244.543C202.45 245.008 202.844 245.559 203.112 246.166C203.381 246.773 203.519 247.424 203.519 248.081C203.519 248.738 203.381 249.388 203.112 249.995C202.844 250.602 202.45 251.154 201.954 251.618C201.458 252.083 200.869 252.452 200.221 252.703C199.573 252.954 198.878 253.084 198.177 253.084ZM98.9203 244.002C98.3483 244.002 97.7819 244.107 97.2534 244.312C96.7249 244.517 96.2447 244.818 95.8402 245.196C95.4358 245.575 95.1149 246.025 94.896 246.52C94.6771 247.015 94.5644 247.545 94.5644 248.081C94.5644 248.617 94.6771 249.147 94.896 249.642C95.1149 250.137 95.4358 250.587 95.8402 250.965C96.2447 251.344 96.7249 251.645 97.2534 251.85C97.7819 252.055 98.3483 252.16 98.9203 252.16H198.177C198.749 252.16 199.315 252.055 199.844 251.85C200.372 251.645 200.852 251.344 201.257 250.965C201.661 250.587 201.982 250.137 202.201 249.642C202.42 249.147 202.533 248.617 202.533 248.081C202.533 247.545 202.42 247.015 202.201 246.52C201.982 246.025 201.661 245.575 201.257 245.196C200.852 244.818 200.372 244.517 199.844 244.312C199.315 244.107 198.749 244.002 198.177 244.002H98.9203Z" fill="#292A2E"/>
<path d="M129.506 186.069H33.2436C31.6697 186.069 30.1496 185.533 28.9671 184.56C27.7845 183.587 27.0202 182.245 26.817 180.783L20.4495 134.99C20.3305 134.134 20.4079 133.264 20.6764 132.438C20.945 131.612 21.3986 130.849 22.007 130.201C22.6153 129.552 23.3644 129.032 24.2042 128.677C25.0441 128.321 25.9553 128.137 26.8771 128.137H123.138C124.712 128.137 126.232 128.673 127.415 129.646C128.597 130.618 129.362 131.961 129.565 133.422L135.932 179.216C136.051 180.072 135.974 180.942 135.705 181.768C135.437 182.594 134.983 183.356 134.375 184.005C133.767 184.653 133.018 185.173 132.178 185.529C131.339 185.885 130.428 186.069 129.506 186.069Z" fill="#292A2E"/>
<path opacity="0.8" d="M129.506 186.069H33.2436C31.6697 186.069 30.1496 185.533 28.9671 184.56C27.7845 183.587 27.0202 182.245 26.817 180.783L20.4495 134.99C20.3305 134.134 20.4079 133.264 20.6764 132.438C20.945 131.612 21.3986 130.849 22.007 130.201C22.6153 129.552 23.3644 129.032 24.2042 128.677C25.0441 128.321 25.9553 128.137 26.8771 128.137H123.138C124.712 128.137 126.232 128.673 127.415 129.646C128.597 130.618 129.362 131.961 129.565 133.422L135.932 179.216C136.051 180.072 135.974 180.942 135.705 181.768C135.437 182.594 134.983 183.356 134.375 184.005C133.767 184.653 133.018 185.173 132.178 185.529C131.339 185.885 130.428 186.069 129.506 186.069Z" fill="white"/>
<path d="M129.506 186.531H33.2435C31.5509 186.528 29.9171 185.949 28.6454 184.903C27.3736 183.857 26.5501 182.415 26.3278 180.843L19.9608 135.05C19.8326 134.128 19.9158 133.192 20.2047 132.303C20.4936 131.415 20.9817 130.594 21.6363 129.896C22.2909 129.198 23.097 128.639 24.0007 128.256C24.9045 127.873 25.8851 127.675 26.877 127.675H123.138C124.831 127.678 126.465 128.257 127.736 129.303C129.008 130.349 129.831 131.791 130.053 133.363L136.421 179.157C136.549 180.078 136.466 181.014 136.177 181.903C135.888 182.791 135.4 183.612 134.746 184.31C134.091 185.008 133.285 185.567 132.382 185.95C131.478 186.333 130.498 186.531 129.506 186.531ZM26.877 128.598C26.0254 128.598 25.1836 128.768 24.4078 129.097C23.632 129.426 22.94 129.906 22.3781 130.506C21.8161 131.105 21.3971 131.809 21.1491 132.572C20.901 133.335 20.8295 134.139 20.9395 134.93L27.3069 180.724C27.4977 182.073 28.2046 183.312 29.2965 184.21C30.3885 185.108 31.7912 185.605 33.2445 185.608H129.506C130.357 185.607 131.199 185.437 131.974 185.108C132.75 184.779 133.442 184.299 134.004 183.7C134.565 183.101 134.984 182.396 135.232 181.633C135.48 180.87 135.552 180.067 135.442 179.276L129.076 133.482C128.885 132.133 128.178 130.895 127.086 129.997C125.994 129.098 124.592 128.602 123.138 128.599L26.877 128.598Z" fill="#292A2E"/>
<path d="M134.949 186.069H38.6865C37.1126 186.069 35.5926 185.533 34.4101 184.56C33.2277 183.587 32.4635 182.245 32.2603 180.783L25.8909 134.99C25.7719 134.134 25.8493 133.264 26.1178 132.438C26.3863 131.612 26.8398 130.85 27.448 130.201C28.0563 129.552 28.8052 129.033 29.645 128.677C30.4847 128.321 31.3958 128.137 32.3175 128.137H128.582C130.156 128.137 131.676 128.673 132.858 129.646C134.041 130.618 134.805 131.961 135.008 133.422L141.375 179.216C141.494 180.072 141.417 180.942 141.148 181.768C140.88 182.594 140.426 183.356 139.818 184.005C139.21 184.653 138.461 185.173 137.621 185.529C136.782 185.885 135.87 186.069 134.949 186.069Z" fill="white"/>
<path d="M134.949 186.531H38.6865C36.9939 186.528 35.3602 185.949 34.0885 184.903C32.8169 183.857 31.9935 182.415 31.7713 180.843L25.4038 135.05C25.2758 134.128 25.359 133.192 25.648 132.304C25.9369 131.415 26.4249 130.594 27.0795 129.896C27.734 129.198 28.5399 128.639 29.4436 128.256C30.3472 127.873 31.3276 127.675 32.3195 127.675H128.581C130.274 127.678 131.908 128.257 133.179 129.303C134.451 130.349 135.275 131.791 135.497 133.363L141.864 179.157C141.992 180.078 141.909 181.014 141.62 181.903C141.331 182.791 140.843 183.612 140.189 184.31C139.534 185.008 138.728 185.567 137.825 185.95C136.921 186.333 135.941 186.531 134.949 186.531ZM32.3195 128.598C31.4681 128.599 30.6265 128.769 29.8509 129.098C29.0753 129.427 28.3836 129.907 27.8219 130.507C27.2602 131.106 26.8413 131.81 26.5934 132.573C26.3454 133.336 26.274 134.14 26.3839 134.93L32.7489 180.724C32.9399 182.073 33.6469 183.312 34.7387 184.21C35.8306 185.108 37.2333 185.605 38.6865 185.608H134.949C135.8 185.608 136.642 185.438 137.418 185.109C138.194 184.78 138.886 184.3 139.448 183.7C140.01 183.101 140.429 182.397 140.677 181.634C140.925 180.871 140.996 180.067 140.886 179.276L134.519 133.482C134.328 132.133 133.621 130.895 132.529 129.996C131.437 129.098 130.035 128.602 128.581 128.599L32.3195 128.598Z" fill="#292A2E"/>
<path d="M209.776 196.525L208.795 196.618L229.58 389.32L230.561 389.227L209.776 196.525Z" fill="#494949"/>
<path d="M124.575 57.8351C124.575 57.8351 130.971 53.3134 132.557 42.9051C133.784 34.8466 125.846 40.0674 125.846 40.0674C125.846 40.0674 126.669 34.2565 122.148 34.8332C117.627 35.4099 115.098 41.5139 115.098 41.5139" fill="#0C0C0C"/>
<path d="M98.784 35.5127C98.784 35.5127 76.3537 37.7664 84.4626 66.2291L86.4475 66.3538L90.4765 66.6068" fill="#0C0C0C"/>
<path d="M120.818 95.9566C120.719 95.9446 119.625 112.948 98.5301 111.467C83.9266 110.443 78.7198 95.9326 78.385 95.9326C79.9597 95.6196 81.9052 95.1435 82.6788 94.9805C84.3641 94.6141 85.8903 93.7759 87.0544 92.5773C88.2185 91.3787 88.9654 89.8766 89.1956 88.2707C89.6231 85.8605 88.8998 73.5287 89.1212 71.0898L111.538 75.7754C111.225 80.9265 109.032 92.8672 116.714 94.9805C117.995 95.33 119.372 95.6514 120.818 95.9566Z" fill="#E98862"/>
<path opacity="0.52" d="M111.853 90.1005C111.502 89.0407 111.276 87.9481 111.178 86.8421C110.932 84.3185 110.982 81.7773 111.326 79.2638C106.77 78.688 102.478 76.9269 98.937 74.1807C98.5209 75.6203 96.2317 81.9109 96.8663 83.279C98.0619 85.8656 103.691 90.1005 111.853 90.1005Z" fill="#0C0C0C"/>
<path d="M107.226 86.7344C98.3821 85.9915 87.7973 80.7587 87.6449 69.5161L87.5069 59.372C87.3546 48.1298 93.5356 38.941 104.839 38.8062C116.141 38.6718 124.714 47.6847 124.866 58.9273L124.927 63.4181C124.919 64.9604 124.799 66.5005 124.568 68.0275C123.988 72.0676 123.089 78.21 120.162 82.365C117.397 86.2879 112.876 87.2086 107.226 86.7344Z" fill="#E98862"/>
<path d="M111.329 76.4599C113.154 76.5374 114.973 76.212 116.639 75.5101C116.674 75.4963 116.705 75.4764 116.731 75.4513C116.757 75.4262 116.778 75.3966 116.792 75.364C116.806 75.3315 116.813 75.2967 116.812 75.2616C116.812 75.2266 116.804 75.1919 116.789 75.1597C116.775 75.1274 116.753 75.0982 116.727 75.0736C116.7 75.0491 116.668 75.0297 116.634 75.0167C116.599 75.0036 116.562 74.997 116.524 74.9974C116.487 74.9978 116.45 75.0051 116.415 75.0188C112.826 76.4525 109.567 76.2424 106.99 74.4117C106.938 74.373 106.884 74.3371 106.828 74.3041C106.763 74.276 106.689 74.2716 106.621 74.2918C106.553 74.3121 106.496 74.3554 106.46 74.4134C106.425 74.4713 106.414 74.5396 106.429 74.6049C106.445 74.6701 106.486 74.7275 106.544 74.7658C106.565 74.7778 106.598 74.8023 106.643 74.836C107.998 75.802 109.629 76.3674 111.329 76.4599Z" fill="#0C0C0C"/>
<path d="M111.244 78.991C111.574 79.01 111.905 79.0026 112.233 78.9688C112.308 78.9614 112.377 78.9262 112.425 78.8711C112.472 78.8161 112.494 78.7456 112.486 78.6752C112.478 78.6048 112.441 78.5402 112.382 78.4957C112.323 78.4512 112.248 78.4304 112.173 78.4378C110.197 78.6345 109.255 77.7868 109.215 77.7503C109.161 77.7002 109.089 77.672 109.013 77.6719C108.937 77.6718 108.865 77.6998 108.811 77.7499C108.758 77.7999 108.728 77.8678 108.728 77.9386C108.727 78.0094 108.757 78.0774 108.811 78.1276C109.491 78.67 110.351 78.9751 111.244 78.991Z" fill="#0C0C0C"/>
<path d="M121.134 65.5805C121.902 65.5805 122.526 64.9967 122.526 64.2766C122.526 63.5564 121.902 62.9727 121.134 62.9727C120.365 62.9727 119.741 63.5564 119.741 64.2766C119.741 64.9967 120.365 65.5805 121.134 65.5805Z" fill="#0C0C0C"/>
<path d="M107.532 64.7807C108.301 64.7807 108.924 64.1969 108.924 63.4768C108.924 62.7566 108.301 62.1729 107.532 62.1729C106.763 62.1729 106.14 62.7566 106.14 63.4768C106.14 64.1969 106.763 64.7807 107.532 64.7807Z" fill="#0C0C0C"/>
<path d="M88.3936 72.9331C84.9586 72.9742 82.1277 69.5657 82.0828 66.3489C82.0379 63.132 84.7994 61.3248 88.2343 61.2842L90.0334 63.4183L91.3458 72.898L88.3936 72.9331Z" fill="#E98862"/>
<path d="M91.8086 67.7642C91.8086 67.7642 92.9687 51.8563 98.1193 50.8737C101.55 50.2195 109.869 54.7767 117.574 53.4003C120.945 52.8001 124.145 53.5795 124.471 55.0708C124.599 55.6614 126.7 47.1753 121.421 40.737C117.218 35.6095 103.463 34.162 97.2058 35.8427C79.8793 40.4978 87.5252 61.9843 87.5252 61.9843L88.2977 67.4687L91.8086 67.7642Z" fill="#0C0C0C"/>
<path d="M113.403 72.7047H113.425C114.532 72.6941 116.388 72.5611 116.38 71.7854C116.373 71.1427 114.42 64.2246 114.197 63.4378C114.176 63.3725 114.128 63.3174 114.064 63.2842C114.001 63.2511 113.926 63.2423 113.855 63.2598C113.785 63.2773 113.724 63.3197 113.686 63.3781C113.648 63.4366 113.636 63.5064 113.652 63.5731C114.519 66.6371 115.811 71.3541 115.817 71.7918C115.71 71.9765 114.566 72.1668 113.42 72.1778C113.348 72.1793 113.279 72.2067 113.227 72.2544C113.176 72.302 113.146 72.3664 113.144 72.434C113.142 72.5017 113.168 72.5676 113.216 72.618C113.264 72.6685 113.331 72.6997 113.403 72.7051V72.7047Z" fill="#0C0C0C"/>
<path d="M117.182 57.2054C118.345 56.9055 119.573 56.9055 120.737 57.2054C121.308 57.3492 121.853 57.5727 122.354 57.8684C122.849 58.1579 123.302 58.5048 123.704 58.9008C123.781 58.9707 123.826 59.066 123.829 59.1664C123.832 59.2668 123.792 59.3643 123.72 59.4379C123.647 59.5116 123.546 59.5555 123.439 59.5605C123.332 59.5654 123.227 59.5308 123.147 59.4641L123.121 59.4438C122.749 59.1212 122.335 58.8437 121.889 58.6178C121.451 58.3932 120.979 58.232 120.49 58.1394C119.527 57.9503 118.527 58.0027 117.593 58.2914L117.553 58.3043C117.399 58.3553 117.229 58.3469 117.082 58.2809C116.934 58.2149 116.821 58.0967 116.766 57.9522C116.711 57.8078 116.72 57.649 116.791 57.5107C116.861 57.3725 116.988 57.2661 117.142 57.2151L117.182 57.2054Z" fill="#0C0C0C"/>
<path d="M108.944 57.8602C108.059 57.4574 107.076 57.2807 106.095 57.3482C105.596 57.3785 105.106 57.4794 104.64 57.6474C104.166 57.8158 103.717 58.0392 103.303 58.3123L103.276 58.3289C103.187 58.3823 103.08 58.4015 102.976 58.3826C102.873 58.3637 102.781 58.3081 102.72 58.2274C102.659 58.1467 102.633 58.047 102.648 57.9492C102.664 57.8513 102.719 57.7627 102.802 57.7019C103.257 57.3594 103.756 57.0721 104.288 56.8467C104.826 56.6165 105.398 56.4631 105.985 56.3915C107.18 56.2388 108.398 56.3916 109.508 56.8338C109.659 56.895 109.777 57.0097 109.837 57.1526C109.897 57.2955 109.894 57.4548 109.829 57.5957C109.763 57.7365 109.641 57.8472 109.488 57.9035C109.336 57.9598 109.166 57.957 109.015 57.8958L108.981 57.8805L108.944 57.8602Z" fill="#0C0C0C"/>
<path d="M115.526 46.2553C118.069 45.7579 119.496 42.5135 118.714 39.009C117.932 35.5044 115.237 33.0666 112.695 33.5641C110.152 34.0616 108.725 37.3059 109.507 40.8105C110.289 44.3151 112.984 46.7528 115.526 46.2553Z" fill="#0C0C0C"/>
<path d="M257.329 364.965C257.329 364.965 259.972 377.798 272.802 378.513C285.631 379.228 282.85 388.8 282.85 388.8H233.821V365.86L257.329 364.965Z" fill="#367CFF"/>
<path d="M164.054 356.862C164.054 356.862 160.377 369.47 171.553 375.415C182.728 381.36 175.72 388.8 175.72 388.8L131.726 368.53L142.538 347.945L164.054 356.862Z" fill="#367CFF"/>
<path d="M136.806 353.301L173.905 243.692H106.656C93.1475 243.692 87.5161 232.964 87.5161 220.313C87.5161 207.663 100.796 196.573 114.304 196.573H205.066C213.305 196.573 222.543 201.292 227.065 207.742C231.587 214.193 230.365 224.188 227.088 231.268L167.679 366.4" fill="#262626"/>
<path opacity="0.8" d="M136.806 353.301L173.905 243.692H106.656C93.1475 243.692 87.5161 232.964 87.5161 220.313C87.5161 207.663 100.796 196.573 114.304 196.573H205.066C213.305 196.573 222.543 201.292 227.065 207.742C231.587 214.193 230.365 224.188 227.088 231.268L167.679 366.4" fill="#0A0A0A"/>
<path d="M231.002 376.882L168.968 243.692L87.5151 243.687C68.4295 242.285 59.6886 232.49 59.9666 219.842C60.2408 207.355 66.9923 195.021 80.2661 195.021H190.05C199.871 195.209 207.597 205.374 211.241 213.917L262.812 368.728" fill="#262626"/>
<path d="M54.4112 195.173C54.4112 195.173 50.7938 217.265 56.5277 229.548C63.686 244.881 90.5205 243.687 90.5205 243.687L89.0084 195.021L54.4112 195.173Z" fill="#262626"/>
<path d="M213.575 194.739L156.038 183.574C153.641 183.108 151.407 182.084 149.545 180.596C147.682 179.108 146.25 177.204 145.381 175.06L122.751 119.213C122.062 117.537 121.733 115.75 121.784 113.954C121.834 112.159 122.263 110.391 123.046 108.751C123.828 107.111 124.949 105.633 126.343 104.4C127.738 103.167 129.379 102.204 131.172 101.567C132.965 100.93 134.875 100.63 136.792 100.686C138.708 100.742 140.594 101.152 142.342 101.893C144.089 102.634 145.662 103.691 146.972 105.002C148.282 106.314 149.302 107.856 149.974 109.538L169.77 158.389L219.484 168.036C219.484 168.036 214.573 194.933 213.575 194.739Z" fill="#367CFF"/>
<path d="M147.028 133.395C146.364 140.705 141.654 186.313 141.013 195.318H54.449C53.9515 187.197 52.3369 152.716 50.4505 136.835C48.6505 121.68 47.9972 113.032 50.0709 108.323C53.7282 100.017 62.8803 97.0278 70.7638 96.0281C75.5772 95.4182 82.8173 94.9805 82.8173 94.9805C82.8173 94.9805 83.4307 106.594 98.048 107.241C117.946 108.118 116.617 94.9805 116.716 94.9805C119.939 94.9805 137.486 97.176 141.874 99.854C148.071 103.637 149.902 108.792 149.975 113.528C150.058 118.981 147.781 125.104 147.028 133.395Z" fill="#367CFF"/>
<path d="M143.626 170.661H143.605C143.573 170.659 143.542 170.65 143.513 170.636C143.484 170.622 143.458 170.603 143.438 170.58C143.417 170.557 143.401 170.53 143.391 170.501C143.381 170.472 143.377 170.442 143.38 170.412L145.627 145.13C145.629 145.1 145.637 145.07 145.652 145.043C145.667 145.015 145.687 144.991 145.712 144.971C145.737 144.952 145.765 144.937 145.797 144.928C145.828 144.919 145.861 144.916 145.893 144.919C145.925 144.922 145.957 144.93 145.985 144.944C146.014 144.958 146.04 144.977 146.061 145C146.082 145.023 146.098 145.05 146.107 145.079C146.117 145.108 146.121 145.138 146.118 145.169L143.871 170.45C143.866 170.508 143.838 170.561 143.792 170.6C143.747 170.639 143.688 170.661 143.626 170.661Z" fill="#0C0C0C"/>
<path d="M184.852 185.835L203.846 131.155C204.18 130.194 204.83 129.357 205.703 128.763C206.575 128.169 207.627 127.85 208.706 127.85H291.018C291.824 127.85 292.62 128.028 293.338 128.371C294.057 128.714 294.679 129.212 295.153 129.823C295.627 130.434 295.94 131.142 296.066 131.888C296.192 132.634 296.127 133.398 295.877 134.116L271.954 188.798C271.62 189.758 270.97 190.596 270.097 191.189C269.224 191.783 268.173 192.103 267.094 192.103H189.712C188.905 192.103 188.11 191.924 187.391 191.581C186.672 191.238 186.05 190.741 185.576 190.129C185.102 189.518 184.789 188.81 184.664 188.063C184.538 187.317 184.603 186.553 184.852 185.835Z" fill="#292A2E"/>
<path d="M184.852 185.835L203.846 131.155C204.18 130.194 204.83 129.357 205.703 128.763C206.575 128.169 207.627 127.85 208.706 127.85H291.018C291.824 127.85 292.62 128.028 293.338 128.371C294.057 128.714 294.679 129.212 295.153 129.823C295.627 130.434 295.94 131.142 296.066 131.888C296.192 132.634 296.127 133.398 295.877 134.116L271.954 188.798C271.62 189.758 270.97 190.596 270.097 191.189C269.224 191.783 268.173 192.103 267.094 192.103H189.712C188.905 192.103 188.11 191.924 187.391 191.581C186.672 191.238 186.05 190.741 185.576 190.129C185.102 189.518 184.789 188.81 184.664 188.063C184.538 187.317 184.603 186.553 184.852 185.835Z" fill="#292A2E"/>
<path d="M200.346 187.667H148.547C147.256 187.667 146.21 188.647 146.21 189.856V189.912C146.21 191.121 147.256 192.1 148.547 192.1H200.346C201.637 192.1 202.683 191.121 202.683 189.912V189.856C202.683 188.647 201.637 187.667 200.346 187.667Z" fill="#292A2E"/>
<path d="M200.346 187.667H148.547C147.256 187.667 146.21 188.647 146.21 189.856V189.912C146.21 191.121 147.256 192.1 148.547 192.1H200.346C201.637 192.1 202.683 191.121 202.683 189.912V189.856C202.683 188.647 201.637 187.667 200.346 187.667Z" fill="#292A2E"/>
<path d="M237.9 170.244C242.382 170.244 246.016 166.841 246.016 162.643C246.016 158.446 242.382 155.043 237.9 155.043C233.418 155.043 229.784 158.446 229.784 162.643C229.784 166.841 233.418 170.244 237.9 170.244Z" fill="white"/>
<path d="M180.523 173.026L167.595 168.783L169.451 168.663C170.049 168.613 170.605 168.352 171.006 167.933C171.407 167.514 171.623 166.968 171.61 166.406C171.593 166.116 171.513 165.832 171.375 165.572C171.237 165.312 171.044 165.081 170.807 164.893C170.57 164.705 170.295 164.564 169.999 164.479C169.702 164.394 169.39 164.367 169.082 164.398L146.21 166.675L146.802 173.558C146.986 175.696 147.848 177.734 149.277 179.41C150.707 181.086 152.638 182.324 154.823 182.965L164.728 185.855C165.24 186.014 165.794 186.004 166.298 185.824C166.802 185.645 167.224 185.308 167.493 184.87C167.727 184.47 167.819 184.011 167.754 183.559C167.69 183.107 167.472 182.686 167.135 182.358C167.156 182.343 167.175 182.325 167.189 182.303C167.203 182.282 167.212 182.258 167.216 182.233C167.219 182.208 167.218 182.183 167.211 182.158C167.204 182.134 167.191 182.111 167.175 182.092L168.999 182.628C169.568 182.807 170.189 182.777 170.735 182.544C171.282 182.311 171.714 181.892 171.943 181.372C172.131 180.901 172.135 180.382 171.954 179.908C171.774 179.434 171.421 179.035 170.957 178.781C170.978 178.771 170.998 178.756 171.013 178.739L171.764 178.959C172.275 179.119 172.83 179.108 173.334 178.928C173.838 178.749 174.26 178.411 174.529 177.974C174.813 177.489 174.885 176.92 174.73 176.386C174.576 175.853 174.207 175.396 173.701 175.111C173.705 175.097 173.707 175.082 173.708 175.068L179.091 176.835C179.359 176.925 179.643 176.965 179.928 176.953C180.212 176.94 180.491 176.874 180.748 176.76C181.005 176.646 181.235 176.485 181.426 176.287C181.616 176.088 181.763 175.857 181.857 175.605C181.951 175.354 181.991 175.087 181.974 174.821C181.958 174.555 181.885 174.294 181.76 174.055C181.636 173.815 181.461 173.601 181.248 173.425C181.034 173.249 180.785 173.114 180.516 173.028L180.523 173.026Z" fill="#E98862"/>
<path opacity="0.2" d="M173.503 175.262C173.478 175.262 173.454 175.258 173.43 175.25L168.223 173.477C168.169 173.459 168.126 173.421 168.102 173.373C168.078 173.324 168.075 173.269 168.095 173.219C168.115 173.169 168.155 173.128 168.206 173.106C168.258 173.083 168.317 173.081 168.371 173.099L173.578 174.873C173.626 174.889 173.666 174.92 173.691 174.961C173.716 175.002 173.725 175.05 173.717 175.096C173.708 175.143 173.682 175.185 173.643 175.216C173.604 175.246 173.555 175.262 173.505 175.262H173.503Z" fill="#0A0A0A"/>
<path opacity="0.2" d="M170.87 178.808C170.846 178.808 170.821 178.804 170.798 178.797L166.694 177.433C166.667 177.424 166.642 177.411 166.62 177.393C166.598 177.376 166.581 177.355 166.568 177.33C166.556 177.306 166.548 177.28 166.547 177.254C166.545 177.227 166.549 177.2 166.558 177.175C166.568 177.15 166.583 177.126 166.602 177.107C166.621 177.087 166.644 177.071 166.67 177.06C166.696 177.048 166.724 177.042 166.753 177.041C166.782 177.04 166.81 177.045 166.837 177.054L170.942 178.418C170.989 178.434 171.03 178.465 171.055 178.506C171.081 178.547 171.09 178.595 171.081 178.641C171.073 178.688 171.047 178.73 171.008 178.761C170.97 178.791 170.921 178.808 170.87 178.808Z" fill="#0A0A0A"/>
<path opacity="0.2" d="M167.005 182.407C166.979 182.407 166.953 182.402 166.928 182.394L165.006 181.707C164.952 181.688 164.91 181.65 164.886 181.601C164.863 181.553 164.862 181.497 164.882 181.448C164.902 181.398 164.943 181.358 164.995 181.336C165.047 181.314 165.106 181.313 165.159 181.332L167.082 182.018C167.129 182.035 167.168 182.066 167.193 182.107C167.217 182.148 167.226 182.196 167.217 182.243C167.208 182.289 167.182 182.331 167.143 182.361C167.104 182.391 167.056 182.407 167.005 182.407H167.005Z" fill="#0A0A0A"/>
<path d="M156.333 162.6L102.1 162.566L81.5832 115.695L50.9771 127.746L76.5741 183.375L76.824 183.929C78.0764 186.633 80.1859 188.911 82.8668 190.455C85.5477 191.998 88.6705 192.733 91.8121 192.559L157.152 188.944L156.333 162.6Z" fill="#367CFF"/>
<path d="M90.9145 192.815C87.8741 192.81 84.9011 191.976 82.3589 190.414C79.8166 188.852 77.8153 186.631 76.5994 184.021L76.3489 183.467L54.5359 136.069L54.9885 135.884L77.0515 183.84C78.2895 186.496 80.3664 188.733 83.0027 190.251C85.639 191.769 88.7083 192.494 91.798 192.329L156.899 188.728L156.092 162.833L101.934 162.799L86.1572 126.76L86.6138 126.585L102.264 162.337L156.571 162.372L157.406 189.162L157.167 189.176L91.8285 192.79C91.5233 192.807 91.2172 192.815 90.9145 192.815Z" fill="#0C0C0C"/>
<path d="M30.5921 196.528L9.79297 389.229L10.774 389.321L31.5731 196.621L30.5921 196.528Z" fill="#494949"/>
<path d="M116.526 196.528L95.7268 389.229L96.7079 389.321L117.507 196.621L116.526 196.528Z" fill="#494949"/>
<path d="M295.71 196.525L294.729 196.618L315.513 389.32L316.494 389.227L295.71 196.525Z" fill="#494949"/>
<path d="M314.452 192.789H13.2108C10.9796 192.789 9.1709 194.483 9.1709 196.572C9.1709 198.662 10.9796 200.355 13.2108 200.355H314.452C316.684 200.355 318.492 198.662 318.492 196.572C318.492 194.483 316.684 192.789 314.452 192.789Z" fill="#292A2E"/>
<path opacity="0.8" d="M314.452 192.789H13.2108C10.9796 192.789 9.1709 194.483 9.1709 196.572C9.1709 198.662 10.9796 200.355 13.2108 200.355H314.452C316.684 200.355 318.492 198.662 318.492 196.572C318.492 194.483 316.684 192.789 314.452 192.789Z" fill="white"/>
<path d="M314.453 200.817H13.2127C12.6135 200.823 12.019 200.718 11.4636 200.507C10.9082 200.296 10.4029 199.984 9.97698 199.59C9.55105 199.195 9.21292 198.725 8.98215 198.207C8.75139 197.689 8.63257 197.133 8.63257 196.572C8.63257 196.011 8.75139 195.455 8.98215 194.938C9.21292 194.42 9.55105 193.95 9.97698 193.555C10.4029 193.16 10.9082 192.848 11.4636 192.638C12.019 192.427 12.6135 192.322 13.2127 192.327H314.453C315.052 192.322 315.647 192.427 316.202 192.638C316.757 192.848 317.263 193.16 317.689 193.555C318.115 193.95 318.453 194.42 318.683 194.938C318.914 195.455 319.033 196.011 319.033 196.572C319.033 197.133 318.914 197.689 318.683 198.207C318.453 198.725 318.115 199.195 317.689 199.59C317.263 199.984 316.757 200.296 316.202 200.507C315.647 200.718 315.052 200.823 314.453 200.817ZM13.2127 193.251C12.7435 193.246 12.2778 193.328 11.8426 193.492C11.4075 193.657 11.0115 193.901 10.6778 194.21C10.344 194.519 10.079 194.887 9.89808 195.292C9.71721 195.698 9.62408 196.133 9.62408 196.572C9.62408 197.012 9.71721 197.447 9.89808 197.852C10.079 198.258 10.344 198.626 10.6778 198.935C11.0115 199.244 11.4075 199.488 11.8426 199.652C12.2778 199.817 12.7435 199.899 13.2127 199.894H314.453C314.922 199.899 315.388 199.817 315.823 199.652C316.258 199.488 316.654 199.244 316.988 198.935C317.322 198.626 317.587 198.258 317.768 197.852C317.948 197.447 318.042 197.012 318.042 196.572C318.042 196.133 317.948 195.698 317.768 195.292C317.587 194.887 317.322 194.519 316.988 194.21C316.654 193.901 316.258 193.657 315.823 193.492C315.388 193.328 314.922 193.246 314.453 193.251H13.2127Z" fill="#292A2E"/>
<path d="M314.453 192.789H102.43C100.199 192.789 98.3899 194.483 98.3899 196.572C98.3899 198.662 100.199 200.355 102.43 200.355H314.453C316.684 200.355 318.492 198.662 318.492 196.572C318.492 194.483 316.684 192.789 314.453 192.789Z" fill="white"/>
<path d="M314.453 200.817H102.43C101.236 200.805 100.095 200.353 99.2551 199.558C98.4152 198.764 97.9441 197.69 97.9441 196.572C97.9441 195.454 98.4152 194.381 99.2551 193.586C100.095 192.791 101.236 192.339 102.43 192.327H314.453C315.052 192.322 315.647 192.427 316.202 192.638C316.758 192.848 317.263 193.16 317.689 193.555C318.115 193.95 318.453 194.42 318.684 194.938C318.914 195.455 319.033 196.011 319.033 196.572C319.033 197.133 318.914 197.689 318.684 198.207C318.453 198.725 318.115 199.195 317.689 199.59C317.263 199.984 316.758 200.296 316.202 200.507C315.647 200.718 315.052 200.823 314.453 200.817ZM102.43 193.251C101.496 193.261 100.605 193.616 99.9488 194.237C99.2927 194.859 98.9247 195.698 98.9247 196.572C98.9247 197.446 99.2927 198.285 99.9488 198.907C100.605 199.529 101.496 199.883 102.43 199.894H314.453C314.922 199.899 315.388 199.817 315.823 199.652C316.258 199.488 316.654 199.244 316.988 198.935C317.322 198.626 317.587 198.258 317.768 197.852C317.949 197.447 318.042 197.012 318.042 196.572C318.042 196.133 317.949 195.698 317.768 195.292C317.587 194.887 317.322 194.519 316.988 194.21C316.654 193.901 316.258 193.657 315.823 193.492C315.388 193.328 314.922 193.246 314.453 193.251H102.43Z" fill="#292A2E"/>
<path d="M322.578 327.888C322.513 327.888 322.449 327.876 322.389 327.853C322.329 327.83 322.275 327.795 322.229 327.752C321.535 327.102 320.402 315.167 317.352 279.63C316.104 265.089 314.926 251.355 314.065 243.008C314.004 242.412 313.757 242.343 313.676 242.32C312.498 241.987 308.918 244.631 306.918 246.947C306.836 247.043 306.717 247.103 306.587 247.116C306.457 247.129 306.326 247.093 306.225 247.016C306.123 246.939 306.058 246.828 306.044 246.706C306.03 246.584 306.069 246.462 306.151 246.367C307.473 244.836 311.783 240.822 313.96 241.435C314.399 241.559 314.946 241.916 315.047 242.919C315.908 251.273 317.087 265.012 318.335 279.556C320.189 301.151 322.288 325.616 322.978 327.157C323.031 327.226 323.063 327.307 323.069 327.392C323.076 327.476 323.058 327.561 323.016 327.637C322.975 327.712 322.912 327.776 322.835 327.82C322.757 327.864 322.669 327.888 322.578 327.888Z" fill="#494949"/>
<path d="M312.799 258.324C320.98 252.182 323.691 242.623 318.855 236.973C314.019 231.322 303.466 231.721 295.285 237.862C287.104 244.004 284.392 253.563 289.228 259.213C294.065 264.864 304.617 264.466 312.799 258.324Z" fill="#0CBC8B"/>
<path opacity="0.2" d="M312.799 258.324C320.98 252.182 323.691 242.623 318.855 236.973C314.019 231.322 303.466 231.721 295.285 237.862C287.104 244.004 284.392 253.563 289.228 259.213C294.065 264.864 304.617 264.466 312.799 258.324Z" fill="white"/>
<path d="M291.522 260.651C291.475 260.651 291.43 260.638 291.39 260.615C291.351 260.591 291.319 260.558 291.299 260.518C291.279 260.479 291.272 260.434 291.278 260.391C291.283 260.347 291.302 260.306 291.332 260.273L314.648 233.941C314.69 233.894 314.75 233.864 314.815 233.858C314.88 233.853 314.945 233.872 314.995 233.911C315.046 233.95 315.077 234.006 315.084 234.067C315.09 234.128 315.07 234.189 315.028 234.236L291.712 260.568C291.689 260.594 291.66 260.615 291.627 260.629C291.594 260.644 291.558 260.651 291.522 260.651Z" fill="white"/>
<path d="M327.663 322.243C327.584 322.243 327.507 322.225 327.437 322.192C327.367 322.158 327.307 322.109 327.261 322.049C327.216 321.989 327.186 321.919 327.175 321.846C327.164 321.773 327.172 321.699 327.198 321.629L335.956 298.042C336.214 297.349 336.654 296.727 337.234 296.234C337.815 295.742 338.518 295.393 339.28 295.221C340.042 295.049 340.838 295.058 341.594 295.249C342.351 295.439 343.045 295.804 343.612 296.311L348.243 300.453C348.337 300.538 348.392 300.654 348.395 300.777C348.398 300.899 348.349 301.018 348.259 301.106C348.168 301.195 348.044 301.246 347.913 301.249C347.782 301.252 347.656 301.206 347.561 301.121L342.931 296.979C342.483 296.579 341.936 296.29 341.338 296.14C340.741 295.99 340.113 295.982 339.511 296.118C338.91 296.254 338.354 296.529 337.896 296.918C337.438 297.307 337.091 297.798 336.887 298.345L328.129 321.933C328.096 322.024 328.033 322.102 327.949 322.158C327.866 322.213 327.765 322.243 327.663 322.243Z" fill="#494949"/>
<path d="M361.178 313.513C367.241 309.018 366.881 299.133 360.373 291.434C353.866 283.734 343.675 281.136 337.612 285.631C331.549 290.125 331.909 300.01 338.417 307.71C344.924 315.409 355.115 318.007 361.178 313.513Z" fill="#0CBC8B"/>
<path d="M318.602 326.383C318.491 326.383 318.383 326.348 318.296 326.284C318.209 326.219 318.148 326.13 318.122 326.029L303.422 268.477C303.322 268.085 303.108 267.726 302.804 267.44C302.5 267.155 302.117 266.953 301.699 266.858C301.28 266.762 300.842 266.777 300.432 266.899C300.021 267.022 299.655 267.248 299.373 267.553L294.843 272.457C294.8 272.503 294.749 272.542 294.691 272.569C294.633 272.597 294.569 272.614 294.504 272.618C294.439 272.623 294.374 272.616 294.312 272.597C294.25 272.578 294.193 272.547 294.144 272.507C294.095 272.467 294.054 272.419 294.025 272.364C293.996 272.309 293.979 272.25 293.975 272.189C293.97 272.128 293.979 272.067 294 272.009C294.021 271.952 294.054 271.898 294.097 271.853L298.628 266.949C299.028 266.516 299.549 266.194 300.132 266.02C300.715 265.845 301.339 265.825 301.933 265.961C302.528 266.097 303.072 266.384 303.504 266.79C303.935 267.197 304.239 267.707 304.382 268.264L319.079 325.816C319.108 325.935 319.087 326.06 319.018 326.163C318.95 326.267 318.841 326.342 318.714 326.37C318.677 326.378 318.639 326.383 318.602 326.383Z" fill="#494949"/>
<path d="M313.178 285.243C314.965 275.567 310.237 266.723 302.617 265.489C294.998 264.255 287.373 271.098 285.586 280.774C283.799 290.45 288.528 299.294 296.147 300.528C303.767 301.762 311.392 294.919 313.178 285.243Z" fill="#0CBC8B"/>
<path d="M322.578 327.888C322.558 327.888 322.538 327.887 322.518 327.885C322.454 327.877 322.391 327.858 322.335 327.828C322.279 327.798 322.229 327.758 322.189 327.711C322.149 327.663 322.12 327.608 322.103 327.55C322.085 327.491 322.08 327.43 322.088 327.37L331.474 256.007C331.576 255.229 331.916 254.496 332.452 253.895C332.989 253.294 333.699 252.851 334.498 252.62C335.297 252.388 336.151 252.377 336.956 252.589C337.761 252.8 338.484 253.225 339.038 253.812L349.765 265.19C349.852 265.282 349.896 265.403 349.888 265.525C349.879 265.647 349.82 265.761 349.722 265.842C349.624 265.923 349.495 265.965 349.365 265.957C349.234 265.949 349.112 265.894 349.026 265.802L338.298 254.423C337.87 253.97 337.312 253.641 336.689 253.478C336.067 253.314 335.407 253.322 334.79 253.502C334.172 253.681 333.623 254.023 333.209 254.487C332.794 254.952 332.531 255.518 332.452 256.119L323.068 327.482C323.053 327.594 322.995 327.697 322.905 327.772C322.815 327.847 322.699 327.888 322.578 327.888Z" fill="#494949"/>
<path d="M360.768 271.513C364.51 265.177 360.107 256.187 350.932 251.434C341.757 246.681 331.285 247.965 327.542 254.302C323.799 260.638 328.203 269.628 337.378 274.381C346.553 279.134 357.025 277.85 360.768 271.513Z" fill="#0CBC8B"/>
<path opacity="0.2" d="M361.178 313.513C367.241 309.018 366.881 299.133 360.373 291.434C353.866 283.734 343.675 281.136 337.612 285.631C331.549 290.125 331.909 300.01 338.417 307.71C344.924 315.409 355.115 318.007 361.178 313.513Z" fill="white"/>
<path opacity="0.5" d="M313.178 285.243C314.965 275.567 310.237 266.723 302.617 265.489C294.998 264.255 287.373 271.098 285.586 280.774C283.799 290.45 288.528 299.294 296.147 300.528C303.767 301.762 311.392 294.919 313.178 285.243Z" fill="white"/>
<path opacity="0.5" d="M360.768 271.513C364.51 265.177 360.107 256.187 350.932 251.434C341.757 246.681 331.285 247.965 327.542 254.302C323.799 260.638 328.203 269.628 337.378 274.381C346.553 279.134 357.025 277.85 360.768 271.513Z" fill="white"/>
<path d="M334.582 388.44H310.574L306.595 316.501H338.56L334.582 388.44Z" fill="#292A2E"/>
<path opacity="0.3" d="M334.582 388.44H310.574L306.595 316.501H338.56L334.582 388.44Z" fill="white"/>
<path d="M361.179 313.74C361.141 313.74 361.105 313.732 361.071 313.717C361.038 313.702 361.008 313.68 360.985 313.653L337.419 285.771C337.378 285.723 337.359 285.662 337.367 285.601C337.374 285.54 337.407 285.484 337.459 285.446C337.51 285.408 337.575 285.391 337.64 285.398C337.705 285.405 337.764 285.436 337.805 285.484L361.372 313.366C361.401 313.4 361.419 313.441 361.424 313.484C361.429 313.527 361.421 313.571 361.401 313.61C361.381 313.649 361.349 313.682 361.31 313.705C361.27 313.728 361.225 313.74 361.179 313.74Z" fill="white"/>
<path d="M359.2 273.747C359.148 273.747 359.097 273.731 359.055 273.701L328.898 253.08C328.845 253.043 328.81 252.989 328.8 252.929C328.79 252.868 328.806 252.806 328.844 252.757C328.883 252.707 328.941 252.674 329.006 252.665C329.07 252.655 329.136 252.67 329.189 252.707L359.346 273.329C359.387 273.358 359.417 273.398 359.433 273.445C359.448 273.491 359.448 273.54 359.431 273.586C359.415 273.632 359.384 273.672 359.342 273.701C359.3 273.729 359.249 273.744 359.198 273.744L359.2 273.747Z" fill="white"/>
<path d="M294.922 300.227C294.9 300.227 294.879 300.224 294.858 300.219C294.795 300.203 294.741 300.164 294.709 300.111C294.676 300.058 294.667 299.996 294.684 299.937L304.283 266.252C304.302 266.195 304.343 266.146 304.399 266.116C304.455 266.087 304.521 266.079 304.583 266.095C304.645 266.11 304.698 266.148 304.731 266.199C304.764 266.251 304.774 266.312 304.76 266.371L295.16 300.055C295.146 300.104 295.115 300.148 295.072 300.179C295.029 300.21 294.976 300.227 294.922 300.227Z" fill="white"/>
<path d="M346.173 389.088H0.84512C0.753588 389.088 0.665806 389.054 0.601083 388.993C0.536361 388.933 0.5 388.85 0.5 388.765C0.5 388.679 0.536361 388.597 0.601083 388.536C0.665806 388.475 0.753588 388.441 0.84512 388.441H346.172C346.263 388.441 346.351 388.475 346.416 388.536C346.481 388.597 346.517 388.679 346.517 388.765C346.517 388.85 346.481 388.933 346.416 388.993C346.351 389.054 346.263 389.088 346.172 389.088H346.173Z" fill="#292A2E"/>
<g opacity="0.65">
<path d="M346.173 389.088H0.84512C0.753588 389.088 0.665806 389.054 0.601083 388.993C0.536361 388.933 0.5 388.85 0.5 388.765C0.5 388.679 0.536361 388.597 0.601083 388.536C0.665806 388.475 0.753588 388.441 0.84512 388.441H346.172C346.263 388.441 346.351 388.475 346.416 388.536C346.481 388.597 346.517 388.679 346.517 388.765C346.517 388.85 346.481 388.933 346.416 388.993C346.351 389.054 346.263 389.088 346.172 389.088H346.173Z" fill="#292A2E"/>
</g>
</g>
<defs>
<clipPath id="clip0_400_2711">
<rect width="365" height="389" fill="white" transform="translate(0.5 0.320312)"/>
</clipPath>
</defs>
</svg>
