<svg width="54" height="41" viewBox="0 0 54 41" fill="none" xmlns="http://www.w3.org/2000/svg">
<path d="M35.0782 16.8502L33.366 15.5939L17.9559 4.17319H17.7676C17.6627 4.11398 17.5537 4.06809 17.4423 4.03613H17.117H16.8088C16.6918 4.06811 16.5772 4.11398 16.4664 4.17319H16.278L0.868007 15.5939C0.604501 15.7932 0.385322 16.082 0.232832 16.4312C0.0803428 16.7803 0 17.1771 0 17.5812C0 17.9852 0.0803428 18.382 0.232832 18.7311C0.385322 19.0802 0.604501 19.3691 0.868007 19.5684L5.13144 22.7205V33.5474C5.13144 35.3647 5.67262 37.1076 6.63593 38.3927C7.59924 39.6778 8.90578 40.3998 10.2681 40.3998H23.9658C25.3282 40.3998 26.6347 39.6778 27.598 38.3927C28.5613 37.1076 29.1025 35.3647 29.1025 33.5474V22.7205L32.527 20.1622V26.6949C32.527 27.3006 32.7073 27.8816 33.0285 28.31C33.3496 28.7384 33.7851 28.979 34.2392 28.979C34.6933 28.979 35.1288 28.7384 35.4499 28.31C35.771 27.8816 35.9514 27.3006 35.9514 26.6949V18.8375C35.9509 18.4326 35.8698 18.0354 35.7163 17.6862C35.5629 17.337 35.3427 17.0485 35.0782 16.8502ZM25.6781 33.5474C25.6781 34.1531 25.4977 34.7341 25.1766 35.1625C24.8555 35.5908 24.42 35.8315 23.9658 35.8315H10.2681C9.81402 35.8315 9.37847 35.5908 9.05742 35.1625C8.73628 34.7341 8.55588 34.1531 8.55588 33.5474V25.2559L16.278 30.9663L16.5349 31.1033H16.6889C16.831 31.1272 16.9748 31.1272 17.117 31.1033C17.2591 31.1272 17.4029 31.1272 17.545 31.1033H17.6992C17.79 31.0777 17.8769 31.0314 17.9559 30.9663L25.6781 25.2559V33.5474ZM17.117 26.3751L5.23417 17.5583L17.117 8.74148L28.9998 17.5583L17.117 26.3751Z" fill="white"/>
<path d="M44.0187 0.593605C44.3082 -0.197868 45.415 -0.197868 45.7046 0.593605L47.5816 5.72436C47.6726 5.9732 47.8666 6.16939 48.1126 6.26147L53.1852 8.16002C53.9676 8.45284 53.9676 9.5723 53.1852 9.8652L48.1126 11.7638C47.8666 11.8558 47.6726 12.052 47.5816 12.3008L45.7046 17.4316C45.415 18.2231 44.3082 18.2231 44.0187 17.4316L42.1417 12.3008C42.0506 12.052 41.8567 11.8558 41.6106 11.7638L36.538 9.8652C35.7556 9.5723 35.7556 8.45284 36.538 8.16002L41.6106 6.26147C41.8567 6.16939 42.0506 5.9732 42.1417 5.72436L44.0187 0.593605Z" fill="white"/>
</svg>
