<svg width="30" height="31" viewBox="0 0 30 31" fill="none" xmlns="http://www.w3.org/2000/svg">
<path d="M29.0738 11.1364L27.6547 10.1063L14.8824 0.741291H14.7263C14.6393 0.69274 14.549 0.655109 14.4567 0.628906H14.1871H13.9316C13.8346 0.655131 13.7397 0.69274 13.6478 0.741291H13.4917L0.71943 10.1063C0.501027 10.2697 0.319366 10.5065 0.192978 10.7928C0.0665904 11.0791 0 11.4045 0 11.7358C0 12.0671 0.0665904 12.3925 0.192978 12.6788C0.319366 12.965 0.501027 13.2019 0.71943 13.3653L4.25308 15.95V24.8281C4.25308 26.3184 4.70163 27.7475 5.50005 28.8013C6.29847 29.8551 7.38136 30.4471 8.51048 30.4471H19.8636C20.9928 30.4471 22.0756 29.8551 22.874 28.8013C23.6725 27.7475 24.121 26.3184 24.121 24.8281V15.95L26.9593 13.8523V19.2091C26.9593 19.7058 27.1088 20.1822 27.375 20.5335C27.6411 20.8847 28.002 21.0821 28.3785 21.0821C28.7548 21.0821 29.1158 20.8847 29.3819 20.5335C29.6481 20.1822 29.7976 19.7058 29.7976 19.2091V12.766C29.7971 12.434 29.7299 12.1083 29.6027 11.8219C29.4755 11.5356 29.293 11.2991 29.0738 11.1364ZM21.2828 24.8281C21.2828 25.3248 21.1333 25.8012 20.8671 26.1525C20.6009 26.5037 20.24 26.7011 19.8636 26.7011H8.51048C8.13414 26.7011 7.77314 26.5037 7.50705 26.1525C7.24088 25.8012 7.09136 25.3248 7.09136 24.8281V18.0291L13.4917 22.7116L13.7046 22.824H13.8323C13.95 22.8436 14.0692 22.8436 14.1871 22.824C14.3048 22.8436 14.424 22.8436 14.5418 22.824H14.6696C14.7449 22.803 14.8169 22.765 14.8824 22.7116L21.2828 18.0291V24.8281ZM14.1871 18.9468L4.33823 11.7171L14.1871 4.48729L24.0358 11.7171L14.1871 18.9468Z" fill="#2A004E"/>
</svg>
