<svg width="77" height="78" viewBox="0 0 77 78" fill="none" xmlns="http://www.w3.org/2000/svg">
<circle cx="38.4312" cy="39.3199" r="38.4312" fill="#367CFF"/>
<path d="M37.1923 51.8717L51.0598 38.0042C48.7269 37.0296 46.6081 35.6064 44.8235 33.8154C43.0317 32.0305 41.6078 29.911 40.6329 27.5773L26.7654 41.4448C25.6835 42.5267 25.1417 43.0685 24.6767 43.6648C24.128 44.3688 23.6572 45.1301 23.2723 45.9354C22.9479 46.6179 22.706 47.3454 22.2223 48.7967L19.6685 56.4523C19.551 56.8028 19.5336 57.1792 19.6182 57.5391C19.7028 57.899 19.8861 58.2281 20.1476 58.4895C20.409 58.751 20.7381 58.9343 21.098 59.0189C21.4579 59.1035 21.8343 59.0861 22.1848 58.9685L29.8404 56.4148C31.2935 55.931 32.0192 55.6892 32.7017 55.3648C33.5104 54.9798 34.2673 54.5117 34.9723 53.9604C35.5685 53.4954 36.1104 52.9535 37.1923 51.8717ZM54.9073 34.1567C56.29 32.774 57.0668 30.8986 57.0668 28.9432C57.0668 26.9878 56.29 25.1125 54.9073 23.7298C53.5246 22.3471 51.6493 21.5703 49.6939 21.5703C47.7384 21.5703 45.8631 22.3471 44.4804 23.7298L42.8173 25.3929L42.8885 25.601C43.7079 27.9462 45.0491 30.0748 46.811 31.826C48.6147 33.6407 50.8177 35.0084 53.2442 35.8198L54.9073 34.1567Z" fill="white"/>
</svg>
