<svg width="222" height="51" viewBox="0 0 222 51" fill="none" xmlns="http://www.w3.org/2000/svg">
<g clip-path="url(#clip0_400_2707)">
<path d="M79.5769 37.186C80.5526 37.186 81.3436 37.977 81.3436 38.9527C81.3436 39.9285 80.5526 40.7195 79.5769 40.7195H69.0205V37.186H79.5769ZM69.0205 14.8672V40.7195C66.587 40.7195 64.6143 38.7467 64.6143 36.3133V19.2734C64.6143 16.8399 66.587 14.8672 69.0205 14.8672ZM77.8305 25.6626C78.7915 25.6626 79.5706 26.4417 79.5706 27.4027C79.5706 28.3637 78.7915 29.1427 77.8305 29.1427H67.774V25.6626H77.8305ZM79.4803 14.8672C80.4609 14.8672 81.2558 15.6621 81.2558 16.6427C81.2558 17.6233 80.4609 18.4183 79.4803 18.4183H69.0205V14.8672H79.4803ZM95.1769 35.517C95.1769 35.0908 95.0709 34.7062 94.8605 34.3629C94.6502 34.0077 94.2458 33.6882 93.649 33.4041C93.0639 33.12 92.1983 32.8595 91.0515 32.6228C90.0448 32.3979 89.1202 32.1315 88.2777 31.8238C87.4467 31.5042 86.7328 31.1195 86.1359 30.6697C85.5392 30.2199 85.0769 29.6872 84.7492 29.0717C84.4215 28.4562 84.2577 27.7459 84.2577 26.941C84.2577 26.1597 84.4274 25.4199 84.7667 24.7215C85.1061 24.0232 85.5918 23.4076 86.2238 22.8749C86.8557 22.3423 87.6223 21.9221 88.5234 21.6143C89.4362 21.3065 90.4547 21.1526 91.5782 21.1526C93.169 21.1526 94.5325 21.4249 95.6677 21.9695C96.8145 22.5021 97.6926 23.2301 98.3011 24.1534C98.5182 24.4786 98.6966 24.8189 98.8364 25.1742C99.2638 26.2615 98.2672 27.2428 97.099 27.2428H96.4737C95.6508 27.2428 95.0137 26.5321 94.5972 25.8224C94.3518 25.3725 93.977 25.0115 93.4737 24.7393C92.9704 24.4552 92.3386 24.3132 91.5782 24.3132C90.852 24.3132 90.2498 24.4315 89.7697 24.6683C89.3016 24.8932 88.9505 25.1891 88.7164 25.5561C88.4941 25.923 88.3829 26.3255 88.3829 26.7635C88.3829 27.0831 88.4414 27.3731 88.5584 27.6335C88.6872 27.8821 88.8979 28.1129 89.1905 28.3259C89.483 28.5272 89.8813 28.7165 90.3837 28.8941C90.8987 29.0717 91.5431 29.2434 92.3152 29.409C93.7667 29.7168 95.0124 30.1134 96.0541 30.5986C97.1075 31.0722 97.9146 31.6877 98.4764 32.4453C99.0381 33.191 99.3194 34.138 99.3194 35.2862C99.3194 36.1385 99.1379 36.9197 98.7748 37.6299C98.4242 38.3283 97.9092 38.9379 97.2306 39.4587C96.5512 39.9677 95.7387 40.3643 94.7904 40.6484C93.8539 40.9325 92.8005 41.0745 91.6303 41.0745C89.91 41.0745 88.4532 40.7667 87.2594 40.1513C86.0657 39.5238 85.1588 38.7248 84.5385 37.7542C84.3344 37.4246 84.1645 37.091 84.0288 36.7534C83.5952 35.6745 84.5683 34.7003 85.731 34.7003C86.8457 34.7003 87.6461 35.676 88.3302 36.556C88.3418 36.5708 88.3535 36.5855 88.3654 36.6001C88.7633 37.0617 89.2548 37.3991 89.8399 37.6122C90.4367 37.8134 91.0515 37.914 91.6833 37.914C92.4437 37.914 93.0818 37.8134 93.5969 37.6122C94.1119 37.3991 94.5037 37.115 94.7725 36.7599C95.0421 36.3929 95.1769 35.9786 95.1769 35.517ZM110.783 37.6655C111.473 37.6655 112.093 37.5293 112.643 37.2571C113.205 36.973 113.655 36.5824 113.995 36.0852C114.591 35.2417 115.384 34.3629 116.417 34.3629H116.494C117.628 34.3629 118.579 35.3199 118.186 36.3836C118.01 36.8611 117.771 37.3179 117.47 37.7542C116.768 38.7722 115.838 39.5831 114.68 40.1867C113.521 40.7786 112.239 41.0745 110.835 41.0745C109.384 41.0745 108.12 40.8259 107.044 40.3288C105.967 39.8198 105.072 39.1214 104.357 38.2336C103.643 37.3458 103.105 36.3219 102.742 35.1619C102.391 34.0018 102.216 32.7589 102.216 31.4332V30.8117C102.216 29.486 102.391 28.2431 102.742 27.0831C103.105 25.9112 103.643 24.8814 104.357 23.9936C105.072 23.1058 105.967 22.4133 107.044 21.9162C108.12 21.4072 109.378 21.1526 110.818 21.1526C112.339 21.1526 113.673 21.4605 114.82 22.0759C115.967 22.6796 116.868 23.526 117.523 24.615C117.854 25.1486 118.105 25.7258 118.278 26.3465C118.58 27.4361 117.632 28.3792 116.501 28.3792C115.422 28.3792 114.591 27.4851 114.086 26.5315C114.073 26.5081 114.061 26.4848 114.048 26.4616C113.743 25.8815 113.31 25.4199 112.748 25.0766C112.198 24.7334 111.538 24.5617 110.765 24.5617C109.911 24.5617 109.202 24.7393 108.641 25.0945C108.079 25.4377 107.64 25.9112 107.324 26.5149C107.009 27.1067 106.78 27.7755 106.639 28.5213C106.511 29.2552 106.447 30.0186 106.447 30.8117V31.4332C106.447 32.2263 106.511 32.9957 106.639 33.7415C106.769 34.4872 106.991 35.156 107.307 35.7478C107.634 36.3278 108.079 36.7954 108.641 37.1505C109.202 37.4938 109.916 37.6655 110.783 37.6655ZM126.055 25.1655V38.6042C126.055 39.7724 125.108 40.7195 123.939 40.7195C122.771 40.7195 121.824 39.7724 121.824 38.6042V23.5797C121.824 22.4354 122.752 21.5077 123.896 21.5077C124.998 21.5077 125.907 22.3701 125.965 23.4704L126.055 25.1655ZM131.18 21.2236C131.599 21.2888 131.863 21.6639 131.859 22.0879L131.838 24.5106C131.834 24.9544 131.43 25.2886 130.987 25.2542C130.695 25.2305 130.402 25.2187 130.11 25.2187C129.384 25.2187 128.747 25.3253 128.196 25.5383C127.646 25.7395 127.184 26.0355 126.81 26.4261C126.447 26.8049 126.166 27.2666 125.967 27.811C125.812 28.2361 125.706 28.701 125.651 29.2054C125.624 29.4531 125.43 29.6536 125.181 29.6719C124.895 29.693 124.65 29.4661 124.659 29.179C124.688 28.1733 124.802 27.232 125.001 26.3551C125.236 25.3253 125.586 24.4197 126.055 23.6385C126.535 22.8572 127.131 22.2476 127.845 21.8096C128.57 21.3716 129.407 21.1526 130.355 21.1526C130.613 21.1526 130.888 21.1764 131.18 21.2236ZM142.538 41.0745C141.134 41.0745 139.865 40.8437 138.729 40.3821C137.606 39.9085 136.646 39.2516 135.85 38.4112C135.066 37.5707 134.463 36.5824 134.042 35.446C133.621 34.3096 133.41 33.0845 133.41 31.7705V31.0604C133.41 29.557 133.626 28.1957 134.059 26.9765C134.492 25.7573 135.096 24.7156 135.868 23.8515C136.64 22.9755 137.553 22.3067 138.606 21.8451C139.66 21.3835 140.8 21.1526 142.029 21.1526C143.387 21.1526 144.574 21.3835 145.592 21.8451C146.611 22.3067 147.454 22.9578 148.121 23.7983C148.799 24.6268 149.303 25.6153 149.63 26.7635C149.97 27.9116 150.139 29.1782 150.139 30.5632C150.139 31.5732 149.321 32.392 148.311 32.392H137C136.152 32.392 135.464 31.7044 135.464 30.8561C135.464 30.0079 136.152 29.3203 137 29.3203H145.624C145.81 29.3203 145.961 29.1692 145.961 28.9829C145.938 28.2135 145.786 27.4915 145.505 26.8167C145.236 26.142 144.82 25.5975 144.259 25.1832C143.697 24.7689 142.948 24.5617 142.012 24.5617C141.31 24.5617 140.683 24.7156 140.133 25.0234C139.595 25.3193 139.145 25.7514 138.781 26.3195C138.419 26.8877 138.138 27.5743 137.939 28.3792C137.751 29.1723 137.658 30.066 137.658 31.0604V31.7705C137.658 32.611 137.769 33.3923 137.991 34.1143C138.226 34.8246 138.565 35.446 139.01 35.9786C139.455 36.5113 139.993 36.9315 140.625 37.2393C141.257 37.5352 141.977 37.6832 142.784 37.6832C143.802 37.6832 144.709 37.476 145.505 37.0617C145.786 36.9157 146.053 36.7483 146.307 36.5597C147.073 35.9916 148.175 35.89 148.855 36.557C149.406 37.0959 149.499 37.9618 148.966 38.5176C148.735 38.7585 148.482 38.9953 148.208 39.2279C147.553 39.7725 146.751 40.2164 145.804 40.5596C144.867 40.9029 143.779 41.0745 142.538 41.0745ZM159.565 38.4654C159.438 37.717 159.484 36.9497 159.698 36.2215L163.594 22.9737C163.849 22.1046 164.647 21.5077 165.553 21.5077C166.954 21.5077 167.939 22.8876 167.484 24.2133L162.42 38.9538C162.057 40.0101 161.063 40.7195 159.946 40.7195L159.565 38.4654ZM154.281 21.5077C155.188 21.5077 155.987 22.1032 156.246 22.9721L160.207 36.2529C160.432 37.0064 160.476 37.8023 160.335 38.5759L159.946 40.7195C158.805 40.7195 157.789 39.9957 157.416 38.917L152.343 24.2277C151.883 22.896 152.872 21.5077 154.281 21.5077ZM179.157 41.0745C177.753 41.0745 176.483 40.8437 175.348 40.3821C174.224 39.9085 173.264 39.2516 172.469 38.4112C171.684 37.5707 171.082 36.5824 170.661 35.446C170.239 34.3096 170.029 33.0845 170.029 31.7705V31.0604C170.029 29.557 170.245 28.1957 170.678 26.9765C171.111 25.7573 171.714 24.7156 172.486 23.8515C173.259 22.9755 174.171 22.3067 175.225 21.8451C176.278 21.3835 177.418 21.1526 178.648 21.1526C180.005 21.1526 181.193 21.3835 182.211 21.8451C183.229 22.3067 184.072 22.9578 184.739 23.7983C185.418 24.6268 185.921 25.6153 186.249 26.7635C186.588 27.9116 186.758 29.1782 186.758 30.5632C186.758 31.5732 185.939 32.392 184.929 32.392H173.618C172.77 32.392 172.082 31.7044 172.082 30.8561C172.082 30.0079 172.77 29.3203 173.618 29.3203H182.243C182.429 29.3203 182.58 29.1692 182.58 28.9829C182.557 28.2135 182.404 27.4915 182.124 26.8167C181.854 26.142 181.439 25.5975 180.877 25.1832C180.315 24.7689 179.567 24.5617 178.63 24.5617C177.928 24.5617 177.302 24.7156 176.752 25.0234C176.213 25.3193 175.763 25.7514 175.4 26.3195C175.038 26.8877 174.756 27.5743 174.558 28.3792C174.371 29.1723 174.276 30.066 174.276 31.0604V31.7705C174.276 32.611 174.388 33.3923 174.61 34.1143C174.844 34.8246 175.183 35.446 175.628 35.9786C176.073 36.5113 176.611 36.9315 177.243 37.2393C177.875 37.5352 178.595 37.6832 179.402 37.6832C180.42 37.6832 181.327 37.476 182.124 37.0617C182.404 36.9155 182.672 36.7479 182.927 36.5589C183.692 35.9909 184.793 35.8898 185.474 36.5568C186.024 37.0958 186.118 37.9617 185.584 38.5177C185.354 38.7586 185.101 38.9953 184.827 39.2279C184.171 39.7725 183.37 40.2164 182.422 40.5596C181.485 40.9029 180.397 41.0745 179.157 41.0745ZM200.185 17.013C200.347 17.8642 200.286 18.743 200.006 19.5632L193.291 39.2679C192.996 40.1359 192.18 40.7195 191.263 40.7195C189.769 40.7195 188.734 39.2295 189.255 37.8295L197.11 16.7192C197.525 15.6057 198.587 14.8672 199.775 14.8672L200.185 17.013ZM208.36 40.7195C207.44 40.7195 206.623 40.1347 206.325 39.2646L199.585 19.5284C199.312 18.7303 199.246 17.8762 199.392 17.0456L199.775 14.8672C200.994 14.8672 202.084 15.6239 202.511 16.7653L210.373 37.8176C210.898 39.2225 209.859 40.7195 208.36 40.7195ZM204.687 31.1314C205.663 31.1314 206.454 31.9223 206.454 32.8981C206.454 33.8738 205.663 34.6647 204.687 34.6647H194.317C193.341 34.6647 192.55 33.8738 192.55 32.8981C192.55 31.9223 193.341 31.1314 194.317 31.1314H204.687ZM216.82 14.8672C218.037 14.8672 219.023 15.8537 219.023 17.0705V38.5161C219.023 39.733 218.037 40.7195 216.82 40.7195C215.603 40.7195 214.617 39.733 214.617 38.5161V17.0705C214.617 15.8537 215.603 14.8672 216.82 14.8672Z" fill="white"/>
<path d="M35.0782 17.1705L33.366 15.9142L17.9559 4.4935H17.7676C17.6627 4.43429 17.5537 4.3884 17.4423 4.35645H17.117H16.8088C16.6918 4.38843 16.5772 4.43429 16.4664 4.4935H16.278L0.868007 15.9142C0.604501 16.1135 0.385322 16.4023 0.232832 16.7515C0.0803428 17.1006 0 17.4974 0 17.9015C0 18.3055 0.0803428 18.7023 0.232832 19.0514C0.385322 19.4005 0.604501 19.6894 0.868007 19.8887L5.13144 23.0408V33.8677C5.13144 35.685 5.67262 37.4279 6.63593 38.713C7.59924 39.9981 8.90578 40.7201 10.2681 40.7201H23.9658C25.3282 40.7201 26.6347 39.9981 27.598 38.713C28.5613 37.4279 29.1025 35.685 29.1025 33.8677V23.0408L32.527 20.4825V27.0152C32.527 27.6209 32.7073 28.2019 33.0285 28.6303C33.3496 29.0587 33.7851 29.2993 34.2392 29.2993C34.6933 29.2993 35.1288 29.0587 35.4499 28.6303C35.771 28.2019 35.9514 27.6209 35.9514 27.0152V19.1578C35.9509 18.7529 35.8698 18.3557 35.7163 18.0065C35.5629 17.6573 35.3427 17.3689 35.0782 17.1705ZM25.6781 33.8677C25.6781 34.4734 25.4977 35.0544 25.1766 35.4828C24.8555 35.9111 24.42 36.1518 23.9658 36.1518H10.2681C9.81402 36.1518 9.37847 35.9111 9.05742 35.4828C8.73628 35.0544 8.55588 34.4734 8.55588 33.8677V25.5762L16.278 31.2866L16.5349 31.4236H16.6889C16.831 31.4475 16.9748 31.4475 17.117 31.4236C17.2591 31.4475 17.4029 31.4475 17.545 31.4236H17.6992C17.79 31.398 17.8769 31.3517 17.9559 31.2866L25.6781 25.5762V33.8677ZM17.117 26.6954L5.23417 17.8786L17.117 9.06179L28.9998 17.8786L17.117 26.6954Z" fill="white"/>
<path d="M44.019 0.913917C44.3085 0.122444 45.4152 0.122444 45.7048 0.913917L47.5818 6.04467C47.6729 6.29351 47.8668 6.4897 48.1128 6.58178L53.1854 8.48034C53.9679 8.77315 53.9679 9.89261 53.1854 10.1855L48.1128 12.0841C47.8668 12.1762 47.6729 12.3723 47.5818 12.6212L45.7048 17.7519C45.4152 18.5434 44.3085 18.5434 44.019 17.7519L42.1419 12.6212C42.0509 12.3723 41.8569 12.1762 41.6108 12.0841L36.5383 10.1855C35.7558 9.89261 35.7558 8.77315 36.5383 8.48034L41.6108 6.58178C41.8569 6.4897 42.0509 6.29351 42.1419 6.04467L44.019 0.913917Z" fill="white"/>
</g>
<defs>
<clipPath id="clip0_400_2707">
<rect width="222" height="50" fill="white" transform="translate(0 0.320312)"/>
</clipPath>
</defs>
</svg>
