<svg width="331" height="53" viewBox="0 0 331 53" fill="none" xmlns="http://www.w3.org/2000/svg">
<path d="M68.7727 28.4205C68.6818 27.5038 68.2917 26.7917 67.6023 26.2841C66.9129 25.7765 65.9773 25.5227 64.7955 25.5227C63.9924 25.5227 63.3144 25.6364 62.7614 25.8636C62.2083 26.0833 61.7841 26.3902 61.4886 26.7841C61.2008 27.178 61.0568 27.625 61.0568 28.125C61.0417 28.5417 61.1288 28.9053 61.3182 29.2159C61.5152 29.5265 61.7841 29.7955 62.125 30.0227C62.4659 30.2424 62.8598 30.4356 63.3068 30.6023C63.7538 30.7614 64.2311 30.8977 64.7386 31.0114L66.8295 31.5114C67.8447 31.7386 68.7765 32.0417 69.625 32.4205C70.4735 32.7992 71.2083 33.2652 71.8295 33.8182C72.4508 34.3712 72.9318 35.0227 73.2727 35.7727C73.6212 36.5227 73.7992 37.3826 73.8068 38.3523C73.7992 39.7765 73.4356 41.0114 72.7159 42.0568C72.0038 43.0947 70.9735 43.9015 69.625 44.4773C68.2841 45.0455 66.6667 45.3295 64.7727 45.3295C62.8939 45.3295 61.2576 45.0417 59.8636 44.4659C58.4773 43.8902 57.3939 43.0379 56.6136 41.9091C55.8409 40.7727 55.4356 39.3674 55.3977 37.6932H60.1591C60.2121 38.4735 60.4356 39.125 60.8295 39.6477C61.2311 40.1629 61.7652 40.553 62.4318 40.8182C63.1061 41.0758 63.8674 41.2045 64.7159 41.2045C65.5492 41.2045 66.2727 41.0833 66.8864 40.8409C67.5076 40.5985 67.9886 40.2614 68.3295 39.8295C68.6705 39.3977 68.8409 38.9015 68.8409 38.3409C68.8409 37.8182 68.6856 37.3788 68.375 37.0227C68.072 36.6667 67.625 36.3636 67.0341 36.1136C66.4508 35.8636 65.7348 35.6364 64.8864 35.4318L62.3523 34.7955C60.3902 34.3182 58.8409 33.572 57.7045 32.5568C56.5682 31.5417 56.0038 30.1742 56.0114 28.4545C56.0038 27.0455 56.3788 25.8144 57.1364 24.7614C57.9015 23.7083 58.9508 22.8864 60.2841 22.2955C61.6174 21.7045 63.1326 21.4091 64.8295 21.4091C66.5568 21.4091 68.0644 21.7045 69.3523 22.2955C70.6477 22.8864 71.6553 23.7083 72.375 24.7614C73.0947 25.8144 73.4659 27.0341 73.4886 28.4205H68.7727ZM77.0256 45V27.5455H81.6392V30.625H81.8438C82.2074 29.6023 82.8134 28.7955 83.6619 28.2045C84.5104 27.6136 85.5256 27.3182 86.7074 27.3182C87.9044 27.3182 88.9233 27.6174 89.7642 28.2159C90.6051 28.8068 91.1657 29.6098 91.446 30.625H91.6278C91.9839 29.625 92.6278 28.8258 93.5597 28.2273C94.4991 27.6212 95.6089 27.3182 96.8892 27.3182C98.518 27.3182 99.84 27.8371 100.855 28.875C101.878 29.9053 102.389 31.3674 102.389 33.2614V45H97.5597V34.2159C97.5597 33.2462 97.3021 32.5189 96.7869 32.0341C96.2718 31.5492 95.6278 31.3068 94.8551 31.3068C93.9763 31.3068 93.2907 31.5871 92.7983 32.1477C92.3059 32.7008 92.0597 33.4318 92.0597 34.3409V45H87.3665V34.1136C87.3665 33.2576 87.1203 32.5758 86.6278 32.0682C86.143 31.5606 85.5028 31.3068 84.7074 31.3068C84.1695 31.3068 83.6847 31.4432 83.2528 31.7159C82.8286 31.9811 82.4915 32.3561 82.2415 32.8409C81.9915 33.3182 81.8665 33.8788 81.8665 34.5227V45H77.0256ZM111.19 45.3295C110.077 45.3295 109.084 45.1364 108.213 44.75C107.342 44.3561 106.652 43.7765 106.145 43.0114C105.645 42.2386 105.395 41.2765 105.395 40.125C105.395 39.1553 105.573 38.3409 105.929 37.6818C106.285 37.0227 106.77 36.4924 107.384 36.0909C107.997 35.6894 108.694 35.3864 109.474 35.1818C110.262 34.9773 111.088 34.8333 111.952 34.75C112.967 34.6439 113.785 34.5455 114.406 34.4545C115.027 34.3561 115.478 34.2121 115.759 34.0227C116.039 33.8333 116.179 33.553 116.179 33.1818V33.1136C116.179 32.3939 115.952 31.8371 115.497 31.4432C115.05 31.0492 114.414 30.8523 113.588 30.8523C112.717 30.8523 112.024 31.0455 111.509 31.4318C110.993 31.8106 110.652 32.2879 110.486 32.8636L106.009 32.5C106.236 31.4394 106.683 30.5227 107.349 29.75C108.016 28.9697 108.876 28.3712 109.929 27.9545C110.99 27.5303 112.217 27.3182 113.611 27.3182C114.58 27.3182 115.509 27.4318 116.395 27.6591C117.289 27.8864 118.08 28.2386 118.77 28.7159C119.467 29.1932 120.016 29.8068 120.418 30.5568C120.819 31.2992 121.02 32.1894 121.02 33.2273V45H116.429V42.5795H116.293C116.012 43.125 115.637 43.6061 115.168 44.0227C114.698 44.4318 114.134 44.7538 113.474 44.9886C112.815 45.2159 112.054 45.3295 111.19 45.3295ZM112.577 41.9886C113.289 41.9886 113.918 41.8485 114.463 41.5682C115.009 41.2803 115.437 40.8939 115.747 40.4091C116.058 39.9242 116.213 39.375 116.213 38.7614V36.9091C116.062 37.0076 115.853 37.0985 115.588 37.1818C115.33 37.2576 115.039 37.3295 114.713 37.3977C114.387 37.4583 114.062 37.5152 113.736 37.5682C113.41 37.6136 113.115 37.6553 112.849 37.6932C112.281 37.7765 111.785 37.9091 111.361 38.0909C110.937 38.2727 110.607 38.5189 110.372 38.8295C110.137 39.1326 110.02 39.5114 110.02 39.9659C110.02 40.625 110.259 41.1288 110.736 41.4773C111.221 41.8182 111.834 41.9886 112.577 41.9886ZM124.776 45V27.5455H129.469V30.5909H129.651C129.969 29.5076 130.503 28.6894 131.253 28.1364C132.003 27.5758 132.866 27.2955 133.844 27.2955C134.086 27.2955 134.348 27.3106 134.628 27.3409C134.908 27.3712 135.154 27.4129 135.366 27.4659V31.7614C135.139 31.6932 134.825 31.6326 134.423 31.5795C134.022 31.5265 133.654 31.5 133.321 31.5C132.609 31.5 131.973 31.6553 131.412 31.9659C130.859 32.2689 130.42 32.6932 130.094 33.2386C129.776 33.7841 129.616 34.4129 129.616 35.125V45H124.776ZM148.028 27.5455V31.1818H137.517V27.5455H148.028ZM139.903 23.3636H144.744V39.6364C144.744 40.0833 144.813 40.4318 144.949 40.6818C145.085 40.9242 145.275 41.0947 145.517 41.1932C145.767 41.2917 146.055 41.3409 146.381 41.3409C146.608 41.3409 146.835 41.322 147.062 41.2841C147.29 41.2386 147.464 41.2045 147.585 41.1818L148.347 44.7841C148.104 44.8598 147.763 44.947 147.324 45.0455C146.884 45.1515 146.35 45.2159 145.722 45.2386C144.555 45.2841 143.532 45.1288 142.653 44.7727C141.782 44.4167 141.104 43.8636 140.619 43.1136C140.134 42.3636 139.896 41.4167 139.903 40.2727V23.3636ZM151.648 45V21.7273H160.83C162.587 21.7273 164.087 22.0417 165.33 22.6705C166.58 23.2917 167.53 24.1742 168.182 25.3182C168.841 26.4545 169.17 27.7917 169.17 29.3295C169.17 30.875 168.837 32.2045 168.17 33.3182C167.504 34.4242 166.538 35.2727 165.273 35.8636C164.015 36.4545 162.492 36.75 160.705 36.75H154.557V32.7955H159.909C160.848 32.7955 161.629 32.6667 162.25 32.4091C162.871 32.1515 163.333 31.7652 163.636 31.25C163.947 30.7348 164.102 30.0947 164.102 29.3295C164.102 28.5568 163.947 27.9053 163.636 27.375C163.333 26.8447 162.867 26.4432 162.239 26.1705C161.617 25.8902 160.833 25.75 159.886 25.75H156.568V45H151.648ZM164.216 34.4091L170 45H164.568L158.909 34.4091H164.216ZM180.23 45.3409C178.435 45.3409 176.889 44.9773 175.594 44.25C174.306 43.5152 173.313 42.4773 172.616 41.1364C171.92 39.7879 171.571 38.1932 171.571 36.3523C171.571 34.5568 171.92 32.9811 172.616 31.625C173.313 30.2689 174.295 29.2121 175.56 28.4545C176.832 27.697 178.325 27.3182 180.037 27.3182C181.188 27.3182 182.26 27.5038 183.253 27.875C184.253 28.2386 185.124 28.7879 185.866 29.5227C186.616 30.2576 187.2 31.1818 187.616 32.2955C188.033 33.4015 188.241 34.697 188.241 36.1818V37.5114H173.503V34.5114H183.685C183.685 33.8144 183.533 33.197 183.23 32.6591C182.927 32.1212 182.507 31.7008 181.969 31.3977C181.438 31.0871 180.821 30.9318 180.116 30.9318C179.382 30.9318 178.73 31.1023 178.162 31.4432C177.601 31.7765 177.162 32.2273 176.844 32.7955C176.526 33.3561 176.363 33.9811 176.355 34.6705V37.5227C176.355 38.3864 176.514 39.1326 176.832 39.7614C177.158 40.3902 177.616 40.875 178.207 41.2159C178.798 41.5568 179.499 41.7273 180.31 41.7273C180.848 41.7273 181.34 41.6515 181.787 41.5C182.234 41.3485 182.616 41.1212 182.935 40.8182C183.253 40.5152 183.495 40.1439 183.662 39.7045L188.139 40C187.912 41.0758 187.446 42.0152 186.741 42.8182C186.045 43.6136 185.143 44.2348 184.037 44.6818C182.938 45.1212 181.67 45.3409 180.23 45.3409ZM197.832 45.2841C196.507 45.2841 195.306 44.9432 194.23 44.2614C193.162 43.572 192.313 42.5606 191.685 41.2273C191.063 39.8864 190.753 38.2424 190.753 36.2955C190.753 34.2955 191.075 32.6326 191.719 31.3068C192.363 29.9735 193.219 28.9773 194.287 28.3182C195.363 27.6515 196.541 27.3182 197.821 27.3182C198.798 27.3182 199.613 27.4848 200.264 27.8182C200.923 28.1439 201.454 28.553 201.855 29.0455C202.264 29.5303 202.575 30.0076 202.787 30.4773H202.935V21.7273H207.764V45H202.991V42.2045H202.787C202.56 42.6894 202.238 43.1705 201.821 43.6477C201.412 44.1174 200.878 44.5076 200.219 44.8182C199.567 45.1288 198.772 45.2841 197.832 45.2841ZM199.366 41.4318C200.147 41.4318 200.806 41.2197 201.344 40.7955C201.889 40.3636 202.306 39.7614 202.594 38.9886C202.889 38.2159 203.037 37.3106 203.037 36.2727C203.037 35.2348 202.893 34.3333 202.605 33.5682C202.317 32.803 201.901 32.2121 201.355 31.7955C200.81 31.3788 200.147 31.1705 199.366 31.1705C198.571 31.1705 197.901 31.3864 197.355 31.8182C196.81 32.25 196.397 32.8485 196.116 33.6136C195.836 34.3788 195.696 35.2652 195.696 36.2727C195.696 37.2879 195.836 38.1856 196.116 38.9659C196.404 39.7386 196.817 40.3447 197.355 40.7841C197.901 41.2159 198.571 41.4318 199.366 41.4318ZM216.722 45.3295C215.608 45.3295 214.616 45.1364 213.744 44.75C212.873 44.3561 212.184 43.7765 211.676 43.0114C211.176 42.2386 210.926 41.2765 210.926 40.125C210.926 39.1553 211.104 38.3409 211.46 37.6818C211.816 37.0227 212.301 36.4924 212.915 36.0909C213.528 35.6894 214.225 35.3864 215.006 35.1818C215.794 34.9773 216.619 34.8333 217.483 34.75C218.498 34.6439 219.316 34.5455 219.938 34.4545C220.559 34.3561 221.009 34.2121 221.29 34.0227C221.57 33.8333 221.71 33.553 221.71 33.1818V33.1136C221.71 32.3939 221.483 31.8371 221.028 31.4432C220.581 31.0492 219.945 30.8523 219.119 30.8523C218.248 30.8523 217.555 31.0455 217.04 31.4318C216.525 31.8106 216.184 32.2879 216.017 32.8636L211.54 32.5C211.767 31.4394 212.214 30.5227 212.881 29.75C213.547 28.9697 214.407 28.3712 215.46 27.9545C216.521 27.5303 217.748 27.3182 219.142 27.3182C220.112 27.3182 221.04 27.4318 221.926 27.6591C222.82 27.8864 223.612 28.2386 224.301 28.7159C224.998 29.1932 225.547 29.8068 225.949 30.5568C226.35 31.2992 226.551 32.1894 226.551 33.2273V45H221.96V42.5795H221.824C221.544 43.125 221.169 43.6061 220.699 44.0227C220.229 44.4318 219.665 44.7538 219.006 44.9886C218.347 45.2159 217.585 45.3295 216.722 45.3295ZM218.108 41.9886C218.82 41.9886 219.449 41.8485 219.994 41.5682C220.54 41.2803 220.968 40.8939 221.278 40.4091C221.589 39.9242 221.744 39.375 221.744 38.7614V36.9091C221.593 37.0076 221.384 37.0985 221.119 37.1818C220.862 37.2576 220.57 37.3295 220.244 37.3977C219.919 37.4583 219.593 37.5152 219.267 37.5682C218.941 37.6136 218.646 37.6553 218.381 37.6932C217.813 37.7765 217.316 37.9091 216.892 38.0909C216.468 38.2727 216.138 38.5189 215.903 38.8295C215.669 39.1326 215.551 39.5114 215.551 39.9659C215.551 40.625 215.79 41.1288 216.267 41.4773C216.752 41.8182 217.366 41.9886 218.108 41.9886ZM238.193 45.3409C236.405 45.3409 234.867 44.9621 233.58 44.2045C232.299 43.4394 231.314 42.3788 230.625 41.0227C229.943 39.6667 229.602 38.1061 229.602 36.3409C229.602 34.553 229.947 32.9848 230.636 31.6364C231.333 30.2803 232.322 29.2235 233.602 28.4659C234.883 27.7008 236.405 27.3182 238.17 27.3182C239.693 27.3182 241.027 27.5947 242.17 28.1477C243.314 28.7008 244.22 29.4773 244.886 30.4773C245.553 31.4773 245.92 32.6515 245.989 34H241.42C241.292 33.1288 240.951 32.428 240.398 31.8977C239.852 31.3598 239.136 31.0909 238.25 31.0909C237.5 31.0909 236.845 31.2955 236.284 31.7045C235.731 32.1061 235.299 32.6932 234.989 33.4659C234.678 34.2386 234.523 35.1742 234.523 36.2727C234.523 37.3864 234.674 38.3333 234.977 39.1136C235.288 39.8939 235.723 40.4886 236.284 40.8977C236.845 41.3068 237.5 41.5114 238.25 41.5114C238.803 41.5114 239.299 41.3977 239.739 41.1705C240.186 40.9432 240.553 40.6136 240.841 40.1818C241.136 39.7424 241.33 39.2159 241.42 38.6023H245.989C245.913 39.9356 245.549 41.1098 244.898 42.125C244.254 43.1326 243.364 43.9205 242.227 44.4886C241.091 45.0568 239.746 45.3409 238.193 45.3409ZM237.057 44.9091H239.284L239.102 45.8977C239.883 46.0189 240.519 46.3106 241.011 46.7727C241.511 47.2348 241.765 47.8636 241.773 48.6591C241.78 49.7879 241.258 50.6856 240.205 51.3523C239.152 52.0265 237.674 52.3636 235.773 52.3636L235.727 50.2045C236.682 50.2045 237.428 50.0871 237.966 49.8523C238.511 49.625 238.795 49.2689 238.818 48.7841C238.833 48.322 238.655 47.9697 238.284 47.7273C237.913 47.4848 237.333 47.3144 236.545 47.2159L237.057 44.9091ZM256.974 45.3409C255.209 45.3409 253.683 44.9659 252.395 44.2159C251.115 43.4583 250.126 42.4053 249.429 41.0568C248.732 39.7008 248.384 38.1288 248.384 36.3409C248.384 34.5379 248.732 32.9621 249.429 31.6136C250.126 30.2576 251.115 29.2045 252.395 28.4545C253.683 27.697 255.209 27.3182 256.974 27.3182C258.74 27.3182 260.262 27.697 261.543 28.4545C262.83 29.2045 263.823 30.2576 264.52 31.6136C265.217 32.9621 265.565 34.5379 265.565 36.3409C265.565 38.1288 265.217 39.7008 264.52 41.0568C263.823 42.4053 262.83 43.4583 261.543 44.2159C260.262 44.9659 258.74 45.3409 256.974 45.3409ZM256.997 41.5909C257.8 41.5909 258.471 41.3636 259.009 40.9091C259.546 40.447 259.952 39.8182 260.224 39.0227C260.505 38.2273 260.645 37.322 260.645 36.3068C260.645 35.2917 260.505 34.3864 260.224 33.5909C259.952 32.7955 259.546 32.1667 259.009 31.7045C258.471 31.2424 257.8 31.0114 256.997 31.0114C256.187 31.0114 255.505 31.2424 254.952 31.7045C254.406 32.1667 253.993 32.7955 253.713 33.5909C253.44 34.3864 253.304 35.2917 253.304 36.3068C253.304 37.322 253.44 38.2273 253.713 39.0227C253.993 39.8182 254.406 40.447 254.952 40.9091C255.505 41.3636 256.187 41.5909 256.997 41.5909ZM253.724 25.3977L251.031 25.3636C251.031 23.9167 251.387 22.8068 252.099 22.0341C252.819 21.2614 253.694 20.8712 254.724 20.8636C255.255 20.8636 255.709 20.9508 256.088 21.125C256.474 21.2917 256.819 21.4886 257.122 21.7159C257.433 21.9432 257.728 22.1439 258.009 22.3182C258.289 22.4848 258.592 22.5682 258.918 22.5682C259.357 22.5606 259.69 22.3977 259.918 22.0795C260.152 21.7538 260.27 21.3295 260.27 20.8068L262.918 20.8864C262.902 22.3182 262.539 23.4242 261.827 24.2045C261.115 24.9773 260.247 25.3674 259.224 25.375C258.656 25.375 258.179 25.2917 257.793 25.125C257.414 24.9508 257.08 24.7538 256.793 24.5341C256.505 24.3068 256.224 24.1061 255.952 23.9318C255.679 23.7576 255.372 23.6705 255.031 23.6705C254.637 23.6705 254.319 23.8258 254.077 24.1364C253.842 24.447 253.724 24.8674 253.724 25.3977ZM276.668 45.3409C274.872 45.3409 273.327 44.9773 272.031 44.25C270.743 43.5152 269.751 42.4773 269.054 41.1364C268.357 39.7879 268.009 38.1932 268.009 36.3523C268.009 34.5568 268.357 32.9811 269.054 31.625C269.751 30.2689 270.732 29.2121 271.997 28.4545C273.27 27.697 274.762 27.3182 276.474 27.3182C277.626 27.3182 278.698 27.5038 279.69 27.875C280.69 28.2386 281.562 28.7879 282.304 29.5227C283.054 30.2576 283.637 31.1818 284.054 32.2955C284.471 33.4015 284.679 34.697 284.679 36.1818V37.5114H269.94V34.5114H280.122C280.122 33.8144 279.971 33.197 279.668 32.6591C279.365 32.1212 278.944 31.7008 278.406 31.3977C277.876 31.0871 277.259 30.9318 276.554 30.9318C275.819 30.9318 275.168 31.1023 274.599 31.4432C274.039 31.7765 273.599 32.2273 273.281 32.7955C272.963 33.3561 272.8 33.9811 272.793 34.6705V37.5227C272.793 38.3864 272.952 39.1326 273.27 39.7614C273.596 40.3902 274.054 40.875 274.645 41.2159C275.236 41.5568 275.937 41.7273 276.747 41.7273C277.285 41.7273 277.777 41.6515 278.224 41.5C278.671 41.3485 279.054 41.1212 279.372 40.8182C279.69 40.5152 279.933 40.1439 280.099 39.7045L284.577 40C284.349 41.0758 283.884 42.0152 283.179 42.8182C282.482 43.6136 281.58 44.2348 280.474 44.6818C279.376 45.1212 278.107 45.3409 276.668 45.3409ZM302.361 32.5227L297.929 32.7955C297.853 32.4167 297.69 32.0758 297.44 31.7727C297.19 31.4621 296.861 31.2159 296.452 31.0341C296.05 30.8447 295.569 30.75 295.009 30.75C294.259 30.75 293.626 30.9091 293.111 31.2273C292.596 31.5379 292.338 31.9545 292.338 32.4773C292.338 32.8939 292.505 33.2462 292.838 33.5341C293.171 33.822 293.743 34.053 294.554 34.2273L297.713 34.8636C299.41 35.2121 300.675 35.7727 301.509 36.5455C302.342 37.3182 302.759 38.3333 302.759 39.5909C302.759 40.7348 302.421 41.7386 301.747 42.6023C301.08 43.4659 300.164 44.1402 298.997 44.625C297.838 45.1023 296.501 45.3409 294.986 45.3409C292.675 45.3409 290.834 44.8598 289.463 43.8977C288.099 42.928 287.3 41.6098 287.065 39.9432L291.827 39.6932C291.971 40.3977 292.319 40.9356 292.872 41.3068C293.425 41.6705 294.134 41.8523 294.997 41.8523C295.846 41.8523 296.527 41.6894 297.043 41.3636C297.565 41.0303 297.83 40.6023 297.838 40.0795C297.83 39.6402 297.645 39.2803 297.281 39C296.918 38.7121 296.357 38.4924 295.599 38.3409L292.577 37.7386C290.872 37.3977 289.603 36.8068 288.77 35.9659C287.944 35.125 287.531 34.053 287.531 32.75C287.531 31.6288 287.834 30.6629 288.44 29.8523C289.054 29.0417 289.914 28.4167 291.02 27.9773C292.134 27.5379 293.437 27.3182 294.929 27.3182C297.134 27.3182 298.868 27.7841 300.134 28.7159C301.406 29.6477 302.149 30.9167 302.361 32.5227Z" fill="#381E72"/>
<path d="M35.0782 21.814L33.366 20.5578L17.9559 9.13705H17.7676C17.6627 9.07785 17.5537 9.03195 17.4423 9H17.117H16.8088C16.6918 9.03198 16.5772 9.07785 16.4664 9.13705H16.278L0.868007 20.5578C0.604501 20.757 0.385322 21.0459 0.232832 21.395C0.0803428 21.7441 0 22.141 0 22.545C0 22.949 0.0803428 23.3459 0.232832 23.695C0.385322 24.044 0.604501 24.333 0.868007 24.5322L5.13144 27.6843V38.5112C5.13144 40.3286 5.67262 42.0715 6.63593 43.3566C7.59924 44.6417 8.90578 45.3637 10.2681 45.3637H23.9658C25.3282 45.3637 26.6347 44.6417 27.598 43.3566C28.5613 42.0715 29.1025 40.3286 29.1025 38.5112V27.6843L32.527 25.126V31.6588C32.527 32.2645 32.7073 32.8455 33.0285 33.2739C33.3496 33.7022 33.7851 33.9429 34.2392 33.9429C34.6933 33.9429 35.1288 33.7022 35.4499 33.2739C35.771 32.8455 35.9514 32.2645 35.9514 31.6588V23.8013C35.9509 23.3965 35.8698 22.9992 35.7163 22.65C35.5629 22.3009 35.3427 22.0124 35.0782 21.814ZM25.6781 38.5112C25.6781 39.117 25.4977 39.698 25.1766 40.1263C24.8555 40.5547 24.42 40.7953 23.9658 40.7953H10.2681C9.81402 40.7953 9.37847 40.5547 9.05742 40.1263C8.73628 39.698 8.55588 39.117 8.55588 38.5112V30.2198L16.278 35.9301L16.5349 36.0671H16.6889C16.831 36.091 16.9748 36.091 17.117 36.0671C17.2591 36.091 17.4029 36.091 17.545 36.0671H17.6992C17.79 36.0416 17.8769 35.9952 17.9559 35.9301L25.6781 30.2198V38.5112ZM17.117 31.339L5.23417 22.5221L17.117 13.7053L28.9998 22.5221L17.117 31.339Z" fill="#2A004E"/>
<path d="M44.0675 0.593605C44.357 -0.197868 45.4638 -0.197868 45.7534 0.593605L47.6304 5.72436C47.7215 5.9732 47.9154 6.16939 48.1614 6.26147L53.234 8.16002C54.0165 8.45284 54.0165 9.5723 53.234 9.8652L48.1614 11.7637C47.9154 11.8558 47.7215 12.052 47.6304 12.3008L45.7534 17.4316C45.4638 18.2231 44.357 18.2231 44.0675 17.4316L42.1905 12.3008C42.0995 12.052 41.9055 11.8558 41.6594 11.7637L36.5869 9.8652C35.8044 9.5723 35.8044 8.45284 36.5869 8.16002L41.6594 6.26147C41.9055 6.16939 42.0995 5.9732 42.1905 5.72436L44.0675 0.593605Z" fill="#2A004E"/>
</svg>
