<svg width="331" height="54" viewBox="0 0 331 54" fill="none" xmlns="http://www.w3.org/2000/svg">
<path d="M68.7727 28.854C68.6818 27.9374 68.2917 27.2253 67.6023 26.7177C66.9129 26.2101 65.9773 25.9563 64.7955 25.9563C63.9924 25.9563 63.3144 26.07 62.7614 26.2972C62.2083 26.5169 61.7841 26.8237 61.4886 27.2177C61.2008 27.6116 61.0568 28.0586 61.0568 28.5586C61.0417 28.9753 61.1288 29.3389 61.3182 29.6495C61.5152 29.9601 61.7841 30.229 62.125 30.4563C62.4659 30.676 62.8598 30.8692 63.3068 31.0359C63.7538 31.195 64.2311 31.3313 64.7386 31.445L66.8295 31.945C67.8447 32.1722 68.7765 32.4753 69.625 32.854C70.4735 33.2328 71.2083 33.6987 71.8295 34.2518C72.4508 34.8048 72.9318 35.4563 73.2727 36.2063C73.6212 36.9563 73.7992 37.8162 73.8068 38.7859C73.7992 40.2101 73.4356 41.445 72.7159 42.4904C72.0038 43.5283 70.9735 44.3351 69.625 44.9109C68.2841 45.479 66.6667 45.7631 64.7727 45.7631C62.8939 45.7631 61.2576 45.4753 59.8636 44.8995C58.4773 44.3237 57.3939 43.4715 56.6136 42.3427C55.8409 41.2063 55.4356 39.801 55.3977 38.1268H60.1591C60.2121 38.9071 60.4356 39.5586 60.8295 40.0813C61.2311 40.5965 61.7652 40.9866 62.4318 41.2518C63.1061 41.5094 63.8674 41.6381 64.7159 41.6381C65.5492 41.6381 66.2727 41.5169 66.8864 41.2745C67.5076 41.0321 67.9886 40.695 68.3295 40.2631C68.6705 39.8313 68.8409 39.3351 68.8409 38.7745C68.8409 38.2518 68.6856 37.8124 68.375 37.4563C68.072 37.1003 67.625 36.7972 67.0341 36.5472C66.4508 36.2972 65.7348 36.07 64.8864 35.8654L62.3523 35.229C60.3902 34.7518 58.8409 34.0056 57.7045 32.9904C56.5682 31.9753 56.0038 30.6078 56.0114 28.8881C56.0038 27.479 56.3788 26.248 57.1364 25.195C57.9015 24.1419 58.9508 23.32 60.2841 22.729C61.6174 22.1381 63.1326 21.8427 64.8295 21.8427C66.5568 21.8427 68.0644 22.1381 69.3523 22.729C70.6477 23.32 71.6553 24.1419 72.375 25.195C73.0947 26.248 73.4659 27.4677 73.4886 28.854H68.7727ZM77.0256 45.4336V27.979H81.6392V31.0586H81.8438C82.2074 30.0359 82.8134 29.229 83.6619 28.6381C84.5104 28.0472 85.5256 27.7518 86.7074 27.7518C87.9044 27.7518 88.9233 28.051 89.7642 28.6495C90.6051 29.2404 91.1657 30.0434 91.446 31.0586H91.6278C91.9839 30.0586 92.6278 29.2594 93.5597 28.6609C94.4991 28.0548 95.6089 27.7518 96.8892 27.7518C98.518 27.7518 99.84 28.2707 100.855 29.3086C101.878 30.3389 102.389 31.801 102.389 33.695V45.4336H97.5597V34.6495C97.5597 33.6798 97.3021 32.9525 96.7869 32.4677C96.2718 31.9828 95.6278 31.7404 94.8551 31.7404C93.9763 31.7404 93.2907 32.0207 92.7983 32.5813C92.3059 33.1344 92.0597 33.8654 92.0597 34.7745V45.4336H87.3665V34.5472C87.3665 33.6912 87.1203 33.0094 86.6278 32.5018C86.143 31.9942 85.5028 31.7404 84.7074 31.7404C84.1695 31.7404 83.6847 31.8768 83.2528 32.1495C82.8286 32.4147 82.4915 32.7897 82.2415 33.2745C81.9915 33.7518 81.8665 34.3124 81.8665 34.9563V45.4336H77.0256ZM111.19 45.7631C110.077 45.7631 109.084 45.57 108.213 45.1836C107.342 44.7897 106.652 44.2101 106.145 43.445C105.645 42.6722 105.395 41.7101 105.395 40.5586C105.395 39.5889 105.573 38.7745 105.929 38.1154C106.285 37.4563 106.77 36.926 107.384 36.5245C107.997 36.123 108.694 35.82 109.474 35.6154C110.262 35.4109 111.088 35.2669 111.952 35.1836C112.967 35.0775 113.785 34.979 114.406 34.8881C115.027 34.7897 115.478 34.6457 115.759 34.4563C116.039 34.2669 116.179 33.9866 116.179 33.6154V33.5472C116.179 32.8275 115.952 32.2707 115.497 31.8768C115.05 31.4828 114.414 31.2859 113.588 31.2859C112.717 31.2859 112.024 31.479 111.509 31.8654C110.993 32.2442 110.652 32.7215 110.486 33.2972L106.009 32.9336C106.236 31.873 106.683 30.9563 107.349 30.1836C108.016 29.4033 108.876 28.8048 109.929 28.3881C110.99 27.9639 112.217 27.7518 113.611 27.7518C114.58 27.7518 115.509 27.8654 116.395 28.0927C117.289 28.32 118.08 28.6722 118.77 29.1495C119.467 29.6268 120.016 30.2404 120.418 30.9904C120.819 31.7328 121.02 32.623 121.02 33.6609V45.4336H116.429V43.0131H116.293C116.012 43.5586 115.637 44.0397 115.168 44.4563C114.698 44.8654 114.134 45.1874 113.474 45.4222C112.815 45.6495 112.054 45.7631 111.19 45.7631ZM112.577 42.4222C113.289 42.4222 113.918 42.2821 114.463 42.0018C115.009 41.7139 115.437 41.3275 115.747 40.8427C116.058 40.3578 116.213 39.8086 116.213 39.195V37.3427C116.062 37.4412 115.853 37.5321 115.588 37.6154C115.33 37.6912 115.039 37.7631 114.713 37.8313C114.387 37.8919 114.062 37.9487 113.736 38.0018C113.41 38.0472 113.115 38.0889 112.849 38.1268C112.281 38.2101 111.785 38.3427 111.361 38.5245C110.937 38.7063 110.607 38.9525 110.372 39.2631C110.137 39.5662 110.02 39.945 110.02 40.3995C110.02 41.0586 110.259 41.5624 110.736 41.9109C111.221 42.2518 111.834 42.4222 112.577 42.4222ZM124.776 45.4336V27.979H129.469V31.0245H129.651C129.969 29.9412 130.503 29.123 131.253 28.57C132.003 28.0094 132.866 27.729 133.844 27.729C134.086 27.729 134.348 27.7442 134.628 27.7745C134.908 27.8048 135.154 27.8465 135.366 27.8995V32.195C135.139 32.1268 134.825 32.0662 134.423 32.0131C134.022 31.9601 133.654 31.9336 133.321 31.9336C132.609 31.9336 131.973 32.0889 131.412 32.3995C130.859 32.7025 130.42 33.1268 130.094 33.6722C129.776 34.2177 129.616 34.8465 129.616 35.5586V45.4336H124.776ZM148.028 27.979V31.6154H137.517V27.979H148.028ZM139.903 23.7972H144.744V40.07C144.744 40.5169 144.813 40.8654 144.949 41.1154C145.085 41.3578 145.275 41.5283 145.517 41.6268C145.767 41.7253 146.055 41.7745 146.381 41.7745C146.608 41.7745 146.835 41.7556 147.062 41.7177C147.29 41.6722 147.464 41.6381 147.585 41.6154L148.347 45.2177C148.104 45.2934 147.763 45.3806 147.324 45.479C146.884 45.5851 146.35 45.6495 145.722 45.6722C144.555 45.7177 143.532 45.5624 142.653 45.2063C141.782 44.8503 141.104 44.2972 140.619 43.5472C140.134 42.7972 139.896 41.8503 139.903 40.7063V23.7972ZM151.648 45.4336V22.1609H160.83C162.587 22.1609 164.087 22.4753 165.33 23.104C166.58 23.7253 167.53 24.6078 168.182 25.7518C168.841 26.8881 169.17 28.2253 169.17 29.7631C169.17 31.3086 168.837 32.6381 168.17 33.7518C167.504 34.8578 166.538 35.7063 165.273 36.2972C164.015 36.8881 162.492 37.1836 160.705 37.1836H154.557V33.229H159.909C160.848 33.229 161.629 33.1003 162.25 32.8427C162.871 32.5851 163.333 32.1987 163.636 31.6836C163.947 31.1684 164.102 30.5283 164.102 29.7631C164.102 28.9904 163.947 28.3389 163.636 27.8086C163.333 27.2783 162.867 26.8768 162.239 26.604C161.617 26.3237 160.833 26.1836 159.886 26.1836H156.568V45.4336H151.648ZM164.216 34.8427L170 45.4336H164.568L158.909 34.8427H164.216ZM180.23 45.7745C178.435 45.7745 176.889 45.4109 175.594 44.6836C174.306 43.9487 173.313 42.9109 172.616 41.57C171.92 40.2215 171.571 38.6268 171.571 36.7859C171.571 34.9904 171.92 33.4147 172.616 32.0586C173.313 30.7025 174.295 29.6457 175.56 28.8881C176.832 28.1306 178.325 27.7518 180.037 27.7518C181.188 27.7518 182.26 27.9374 183.253 28.3086C184.253 28.6722 185.124 29.2215 185.866 29.9563C186.616 30.6912 187.2 31.6154 187.616 32.729C188.033 33.8351 188.241 35.1306 188.241 36.6154V37.945H173.503V34.945H183.685C183.685 34.248 183.533 33.6306 183.23 33.0927C182.927 32.5548 182.507 32.1344 181.969 31.8313C181.438 31.5207 180.821 31.3654 180.116 31.3654C179.382 31.3654 178.73 31.5359 178.162 31.8768C177.601 32.2101 177.162 32.6609 176.844 33.229C176.526 33.7897 176.363 34.4147 176.355 35.104V37.9563C176.355 38.82 176.514 39.5662 176.832 40.195C177.158 40.8237 177.616 41.3086 178.207 41.6495C178.798 41.9904 179.499 42.1609 180.31 42.1609C180.848 42.1609 181.34 42.0851 181.787 41.9336C182.234 41.7821 182.616 41.5548 182.935 41.2518C183.253 40.9487 183.495 40.5775 183.662 40.1381L188.139 40.4336C187.912 41.5094 187.446 42.4487 186.741 43.2518C186.045 44.0472 185.143 44.6684 184.037 45.1154C182.938 45.5548 181.67 45.7745 180.23 45.7745ZM197.832 45.7177C196.507 45.7177 195.306 45.3768 194.23 44.695C193.162 44.0056 192.313 42.9942 191.685 41.6609C191.063 40.32 190.753 38.676 190.753 36.729C190.753 34.729 191.075 33.0662 191.719 31.7404C192.363 30.4071 193.219 29.4109 194.287 28.7518C195.363 28.0851 196.541 27.7518 197.821 27.7518C198.798 27.7518 199.613 27.9184 200.264 28.2518C200.923 28.5775 201.454 28.9866 201.855 29.479C202.264 29.9639 202.575 30.4412 202.787 30.9109H202.935V22.1609H207.764V45.4336H202.991V42.6381H202.787C202.56 43.123 202.238 43.604 201.821 44.0813C201.412 44.551 200.878 44.9412 200.219 45.2518C199.567 45.5624 198.772 45.7177 197.832 45.7177ZM199.366 41.8654C200.147 41.8654 200.806 41.6533 201.344 41.229C201.889 40.7972 202.306 40.195 202.594 39.4222C202.889 38.6495 203.037 37.7442 203.037 36.7063C203.037 35.6684 202.893 34.7669 202.605 34.0018C202.317 33.2366 201.901 32.6457 201.355 32.229C200.81 31.8124 200.147 31.604 199.366 31.604C198.571 31.604 197.901 31.82 197.355 32.2518C196.81 32.6836 196.397 33.2821 196.116 34.0472C195.836 34.8124 195.696 35.6987 195.696 36.7063C195.696 37.7215 195.836 38.6192 196.116 39.3995C196.404 40.1722 196.817 40.7783 197.355 41.2177C197.901 41.6495 198.571 41.8654 199.366 41.8654ZM216.722 45.7631C215.608 45.7631 214.616 45.57 213.744 45.1836C212.873 44.7897 212.184 44.2101 211.676 43.445C211.176 42.6722 210.926 41.7101 210.926 40.5586C210.926 39.5889 211.104 38.7745 211.46 38.1154C211.816 37.4563 212.301 36.926 212.915 36.5245C213.528 36.123 214.225 35.82 215.006 35.6154C215.794 35.4109 216.619 35.2669 217.483 35.1836C218.498 35.0775 219.316 34.979 219.938 34.8881C220.559 34.7897 221.009 34.6457 221.29 34.4563C221.57 34.2669 221.71 33.9866 221.71 33.6154V33.5472C221.71 32.8275 221.483 32.2707 221.028 31.8768C220.581 31.4828 219.945 31.2859 219.119 31.2859C218.248 31.2859 217.555 31.479 217.04 31.8654C216.525 32.2442 216.184 32.7215 216.017 33.2972L211.54 32.9336C211.767 31.873 212.214 30.9563 212.881 30.1836C213.547 29.4033 214.407 28.8048 215.46 28.3881C216.521 27.9639 217.748 27.7518 219.142 27.7518C220.112 27.7518 221.04 27.8654 221.926 28.0927C222.82 28.32 223.612 28.6722 224.301 29.1495C224.998 29.6268 225.547 30.2404 225.949 30.9904C226.35 31.7328 226.551 32.623 226.551 33.6609V45.4336H221.96V43.0131H221.824C221.544 43.5586 221.169 44.0397 220.699 44.4563C220.229 44.8654 219.665 45.1874 219.006 45.4222C218.347 45.6495 217.585 45.7631 216.722 45.7631ZM218.108 42.4222C218.82 42.4222 219.449 42.2821 219.994 42.0018C220.54 41.7139 220.968 41.3275 221.278 40.8427C221.589 40.3578 221.744 39.8086 221.744 39.195V37.3427C221.593 37.4412 221.384 37.5321 221.119 37.6154C220.862 37.6912 220.57 37.7631 220.244 37.8313C219.919 37.8919 219.593 37.9487 219.267 38.0018C218.941 38.0472 218.646 38.0889 218.381 38.1268C217.813 38.2101 217.316 38.3427 216.892 38.5245C216.468 38.7063 216.138 38.9525 215.903 39.2631C215.669 39.5662 215.551 39.945 215.551 40.3995C215.551 41.0586 215.79 41.5624 216.267 41.9109C216.752 42.2518 217.366 42.4222 218.108 42.4222ZM238.193 45.7745C236.405 45.7745 234.867 45.3957 233.58 44.6381C232.299 43.873 231.314 42.8124 230.625 41.4563C229.943 40.1003 229.602 38.5397 229.602 36.7745C229.602 34.9866 229.947 33.4184 230.636 32.07C231.333 30.7139 232.322 29.6571 233.602 28.8995C234.883 28.1344 236.405 27.7518 238.17 27.7518C239.693 27.7518 241.027 28.0283 242.17 28.5813C243.314 29.1344 244.22 29.9109 244.886 30.9109C245.553 31.9109 245.92 33.0851 245.989 34.4336H241.42C241.292 33.5624 240.951 32.8616 240.398 32.3313C239.852 31.7934 239.136 31.5245 238.25 31.5245C237.5 31.5245 236.845 31.729 236.284 32.1381C235.731 32.5397 235.299 33.1268 234.989 33.8995C234.678 34.6722 234.523 35.6078 234.523 36.7063C234.523 37.82 234.674 38.7669 234.977 39.5472C235.288 40.3275 235.723 40.9222 236.284 41.3313C236.845 41.7404 237.5 41.945 238.25 41.945C238.803 41.945 239.299 41.8313 239.739 41.604C240.186 41.3768 240.553 41.0472 240.841 40.6154C241.136 40.176 241.33 39.6495 241.42 39.0359H245.989C245.913 40.3692 245.549 41.5434 244.898 42.5586C244.254 43.5662 243.364 44.354 242.227 44.9222C241.091 45.4904 239.746 45.7745 238.193 45.7745ZM237.057 45.3427H239.284L239.102 46.3313C239.883 46.4525 240.519 46.7442 241.011 47.2063C241.511 47.6684 241.765 48.2972 241.773 49.0927C241.78 50.2215 241.258 51.1192 240.205 51.7859C239.152 52.4601 237.674 52.7972 235.773 52.7972L235.727 50.6381C236.682 50.6381 237.428 50.5207 237.966 50.2859C238.511 50.0586 238.795 49.7025 238.818 49.2177C238.833 48.7556 238.655 48.4033 238.284 48.1609C237.913 47.9184 237.333 47.748 236.545 47.6495L237.057 45.3427ZM256.974 45.7745C255.209 45.7745 253.683 45.3995 252.395 44.6495C251.115 43.8919 250.126 42.8389 249.429 41.4904C248.732 40.1344 248.384 38.5624 248.384 36.7745C248.384 34.9715 248.732 33.3957 249.429 32.0472C250.126 30.6912 251.115 29.6381 252.395 28.8881C253.683 28.1306 255.209 27.7518 256.974 27.7518C258.74 27.7518 260.262 28.1306 261.543 28.8881C262.83 29.6381 263.823 30.6912 264.52 32.0472C265.217 33.3957 265.565 34.9715 265.565 36.7745C265.565 38.5624 265.217 40.1344 264.52 41.4904C263.823 42.8389 262.83 43.8919 261.543 44.6495C260.262 45.3995 258.74 45.7745 256.974 45.7745ZM256.997 42.0245C257.8 42.0245 258.471 41.7972 259.009 41.3427C259.546 40.8806 259.952 40.2518 260.224 39.4563C260.505 38.6609 260.645 37.7556 260.645 36.7404C260.645 35.7253 260.505 34.82 260.224 34.0245C259.952 33.229 259.546 32.6003 259.009 32.1381C258.471 31.676 257.8 31.445 256.997 31.445C256.187 31.445 255.505 31.676 254.952 32.1381C254.406 32.6003 253.993 33.229 253.713 34.0245C253.44 34.82 253.304 35.7253 253.304 36.7404C253.304 37.7556 253.44 38.6609 253.713 39.4563C253.993 40.2518 254.406 40.8806 254.952 41.3427C255.505 41.7972 256.187 42.0245 256.997 42.0245ZM253.724 25.8313L251.031 25.7972C251.031 24.3503 251.387 23.2404 252.099 22.4677C252.819 21.695 253.694 21.3048 254.724 21.2972C255.255 21.2972 255.709 21.3844 256.088 21.5586C256.474 21.7253 256.819 21.9222 257.122 22.1495C257.433 22.3768 257.728 22.5775 258.009 22.7518C258.289 22.9184 258.592 23.0018 258.918 23.0018C259.357 22.9942 259.69 22.8313 259.918 22.5131C260.152 22.1874 260.27 21.7631 260.27 21.2404L262.918 21.32C262.902 22.7518 262.539 23.8578 261.827 24.6381C261.115 25.4109 260.247 25.801 259.224 25.8086C258.656 25.8086 258.179 25.7253 257.793 25.5586C257.414 25.3844 257.08 25.1874 256.793 24.9677C256.505 24.7404 256.224 24.5397 255.952 24.3654C255.679 24.1912 255.372 24.104 255.031 24.104C254.637 24.104 254.319 24.2594 254.077 24.57C253.842 24.8806 253.724 25.301 253.724 25.8313ZM276.668 45.7745C274.872 45.7745 273.327 45.4109 272.031 44.6836C270.743 43.9487 269.751 42.9109 269.054 41.57C268.357 40.2215 268.009 38.6268 268.009 36.7859C268.009 34.9904 268.357 33.4147 269.054 32.0586C269.751 30.7025 270.732 29.6457 271.997 28.8881C273.27 28.1306 274.762 27.7518 276.474 27.7518C277.626 27.7518 278.698 27.9374 279.69 28.3086C280.69 28.6722 281.562 29.2215 282.304 29.9563C283.054 30.6912 283.637 31.6154 284.054 32.729C284.471 33.8351 284.679 35.1306 284.679 36.6154V37.945H269.94V34.945H280.122C280.122 34.248 279.971 33.6306 279.668 33.0927C279.365 32.5548 278.944 32.1344 278.406 31.8313C277.876 31.5207 277.259 31.3654 276.554 31.3654C275.819 31.3654 275.168 31.5359 274.599 31.8768C274.039 32.2101 273.599 32.6609 273.281 33.229C272.963 33.7897 272.8 34.4147 272.793 35.104V37.9563C272.793 38.82 272.952 39.5662 273.27 40.195C273.596 40.8237 274.054 41.3086 274.645 41.6495C275.236 41.9904 275.937 42.1609 276.747 42.1609C277.285 42.1609 277.777 42.0851 278.224 41.9336C278.671 41.7821 279.054 41.5548 279.372 41.2518C279.69 40.9487 279.933 40.5775 280.099 40.1381L284.577 40.4336C284.349 41.5094 283.884 42.4487 283.179 43.2518C282.482 44.0472 281.58 44.6684 280.474 45.1154C279.376 45.5548 278.107 45.7745 276.668 45.7745ZM302.361 32.9563L297.929 33.229C297.853 32.8503 297.69 32.5094 297.44 32.2063C297.19 31.8957 296.861 31.6495 296.452 31.4677C296.05 31.2783 295.569 31.1836 295.009 31.1836C294.259 31.1836 293.626 31.3427 293.111 31.6609C292.596 31.9715 292.338 32.3881 292.338 32.9109C292.338 33.3275 292.505 33.6798 292.838 33.9677C293.171 34.2556 293.743 34.4866 294.554 34.6609L297.713 35.2972C299.41 35.6457 300.675 36.2063 301.509 36.979C302.342 37.7518 302.759 38.7669 302.759 40.0245C302.759 41.1684 302.421 42.1722 301.747 43.0359C301.08 43.8995 300.164 44.5737 298.997 45.0586C297.838 45.5359 296.501 45.7745 294.986 45.7745C292.675 45.7745 290.834 45.2934 289.463 44.3313C288.099 43.3616 287.3 42.0434 287.065 40.3768L291.827 40.1268C291.971 40.8313 292.319 41.3692 292.872 41.7404C293.425 42.104 294.134 42.2859 294.997 42.2859C295.846 42.2859 296.527 42.123 297.043 41.7972C297.565 41.4639 297.83 41.0359 297.838 40.5131C297.83 40.0737 297.645 39.7139 297.281 39.4336C296.918 39.1457 296.357 38.926 295.599 38.7745L292.577 38.1722C290.872 37.8313 289.603 37.2404 288.77 36.3995C287.944 35.5586 287.531 34.4866 287.531 33.1836C287.531 32.0624 287.834 31.0965 288.44 30.2859C289.054 29.4753 289.914 28.8503 291.02 28.4109C292.134 27.9715 293.437 27.7518 294.929 27.7518C297.134 27.7518 298.868 28.2177 300.134 29.1495C301.406 30.0813 302.149 31.3503 302.361 32.9563Z" fill="#2A004E"/>
<path d="M35.0782 22.2476L33.366 20.9914L17.9559 9.57065H17.7676C17.6627 9.51144 17.5537 9.46555 17.4423 9.43359H17.117H16.8088C16.6918 9.46558 16.5772 9.51144 16.4664 9.57065H16.278L0.868007 20.9914C0.604501 21.1906 0.385322 21.4795 0.232832 21.8286C0.0803428 22.1777 0 22.5745 0 22.9786C0 23.3826 0.0803428 23.7795 0.232832 24.1286C0.385322 24.4776 0.604501 24.7665 0.868007 24.9658L5.13144 28.1179V38.9448C5.13144 40.7622 5.67262 42.5051 6.63593 43.7902C7.59924 45.0753 8.90578 45.7973 10.2681 45.7973H23.9658C25.3282 45.7973 26.6347 45.0753 27.598 43.7902C28.5613 42.5051 29.1025 40.7622 29.1025 38.9448V28.1179L32.527 25.5596V32.0924C32.527 32.6981 32.7073 33.2791 33.0285 33.7075C33.3496 34.1358 33.7851 34.3765 34.2392 34.3765C34.6933 34.3765 35.1288 34.1358 35.4499 33.7075C35.771 33.2791 35.9514 32.6981 35.9514 32.0924V24.2349C35.9509 23.8301 35.8698 23.4328 35.7163 23.0836C35.5629 22.7345 35.3427 22.446 35.0782 22.2476ZM25.6781 38.9448C25.6781 39.5505 25.4977 40.1315 25.1766 40.5599C24.8555 40.9883 24.42 41.2289 23.9658 41.2289H10.2681C9.81402 41.2289 9.37847 40.9883 9.05742 40.5599C8.73628 40.1315 8.55588 39.5505 8.55588 38.9448V30.6534L16.278 36.3637L16.5349 36.5007H16.6889C16.831 36.5246 16.9748 36.5246 17.117 36.5007C17.2591 36.5246 17.4029 36.5246 17.545 36.5007H17.6992C17.79 36.4752 17.8769 36.4288 17.9559 36.3637L25.6781 30.6534V38.9448ZM17.117 31.7726L5.23417 22.9557L17.117 14.1389L28.9998 22.9557L17.117 31.7726Z" fill="#2A004E"/>
<path d="M44.0675 1.0272C44.357 0.235726 45.4638 0.235726 45.7534 1.0272L47.6304 6.15795C47.7215 6.40679 47.9154 6.60298 48.1614 6.69506L53.234 8.59362C54.0165 8.88643 54.0165 10.0059 53.234 10.2988L48.1614 12.1973C47.9154 12.2894 47.7215 12.4856 47.6304 12.7344L45.7534 17.8652C45.4638 18.6567 44.357 18.6567 44.0675 17.8652L42.1905 12.7344C42.0995 12.4856 41.9055 12.2894 41.6594 12.1973L36.5869 10.2988C35.8044 10.0059 35.8044 8.88643 36.5869 8.59362L41.6594 6.69506C41.9055 6.60298 42.0995 6.40679 42.1905 6.15795L44.0675 1.0272Z" fill="#2A004E"/>
</svg>
