<svg width="184" height="42" viewBox="0 0 184 42" fill="none" xmlns="http://www.w3.org/2000/svg">
<g clip-path="url(#clip0_2_4316)">
<path d="M65.9713 30.5514C66.7714 30.5514 67.42 31.2 67.42 32.0001V32.0001C67.42 32.8002 66.7714 33.4489 65.9713 33.4489H57.2062V30.5514H65.9713ZM57.2062 12.25V33.4489V33.4489C55.1893 33.4489 53.5542 31.8138 53.5542 29.7969V15.902C53.5542 13.8851 55.1893 12.25 57.2062 12.25V12.25ZM64.5236 21.1023C65.3116 21.1023 65.9504 21.7411 65.9504 22.5291V22.5291C65.9504 23.3171 65.3116 23.9559 64.5236 23.9559H56.1731V21.1023H64.5236ZM65.8912 12.25C66.6953 12.25 67.3472 12.9018 67.3472 13.7059V13.7059C67.3472 14.51 66.6953 15.1619 65.8912 15.1619H57.2062V12.25H65.8912ZM78.8854 29.1828C78.8854 28.8334 78.7975 28.518 78.6232 28.2365C78.4489 27.9452 78.1137 27.6832 77.619 27.4503C77.1341 27.2173 76.4167 27.0037 75.4661 26.8096C74.6318 26.6252 73.8654 26.4068 73.1671 26.1544C72.4784 25.8923 71.8867 25.5769 71.392 25.2081C70.8974 24.8392 70.5142 24.4024 70.2426 23.8977C69.971 23.393 69.8352 22.8106 69.8352 22.1505C69.8352 21.5099 69.9759 20.9032 70.2572 20.3306C70.5384 19.7579 70.941 19.2532 71.4648 18.8163C71.9885 18.3796 72.6239 18.035 73.3708 17.7826C74.1273 17.5303 74.9715 17.4041 75.9027 17.4041C77.2212 17.4041 78.3513 17.6273 79.2922 18.0739C80.2427 18.5106 80.9705 19.1076 81.4748 19.8647C81.6514 20.1263 81.797 20.3998 81.9118 20.6852C82.2732 21.5835 81.4467 22.398 80.4785 22.398H79.9482C79.2728 22.398 78.7495 21.8142 78.4049 21.2332V21.2332C78.2016 20.8644 77.8909 20.5684 77.4738 20.3451C77.0566 20.1122 76.5329 19.9957 75.9027 19.9957C75.3008 19.9957 74.8017 20.0928 74.4038 20.2869C74.0158 20.4713 73.7248 20.714 73.5308 21.0149C73.3465 21.3158 73.2543 21.6458 73.2543 22.0049C73.2543 22.267 73.3028 22.5048 73.3998 22.7183C73.5066 22.9222 73.6812 23.1115 73.9237 23.2862C74.1661 23.4512 74.4962 23.6065 74.9126 23.7521C75.3395 23.8977 75.8736 24.0385 76.5135 24.1743C77.7166 24.4267 78.7491 24.7519 79.6125 25.1498C80.4855 25.5381 81.1545 26.0428 81.6201 26.664C82.0857 27.2755 82.3188 28.0521 82.3188 28.9936C82.3188 29.6924 82.1684 30.3331 81.8674 30.9154C81.5769 31.4881 81.15 31.988 80.5876 32.4151C80.0244 32.8324 79.351 33.1576 78.5651 33.3906C77.7889 33.6235 76.9158 33.74 75.9459 33.74C74.5201 33.74 73.3126 33.4876 72.3232 32.983C71.3338 32.4684 70.5821 31.8133 70.068 31.0173C69.9022 30.7526 69.7637 30.4846 69.6524 30.2136C69.2863 29.3218 70.0929 28.5131 71.0569 28.5131V28.5131C71.9806 28.5131 72.6437 29.3245 73.2199 30.0464C73.2265 30.0547 73.2331 30.0629 73.2398 30.071C73.5696 30.4495 73.977 30.7262 74.462 30.9009C74.9566 31.0659 75.4661 31.1484 75.9898 31.1484C76.6201 31.1484 77.149 31.0659 77.5758 30.9009C78.0027 30.7262 78.3275 30.4932 78.5502 30.202C78.7737 29.9011 78.8854 29.5614 78.8854 29.1828ZM91.8198 30.9446C92.3919 30.9446 92.9059 30.8329 93.3618 30.6097C93.8274 30.3768 94.2006 30.0564 94.4822 29.6488V29.6488C94.9753 28.9585 95.6269 28.2365 96.4752 28.2365H96.5533C97.4933 28.2365 98.2816 29.0309 97.9497 29.9104C97.8042 30.2958 97.6086 30.6648 97.3629 31.0173C96.7811 31.8521 96.0101 32.517 95.0499 33.012C94.0896 33.4974 93.0273 33.74 91.863 33.74C90.6607 33.74 89.6133 33.5362 88.7208 33.1285C87.8284 32.7112 87.0865 32.1384 86.4942 31.4105C85.9027 30.6825 85.4565 29.8429 85.1556 28.8917C84.865 27.9404 84.7198 26.9212 84.7198 25.8341V25.3245C84.7198 24.2374 84.865 23.2182 85.1556 22.267C85.4565 21.3061 85.9027 20.4616 86.4942 19.7336C87.0865 19.0057 87.8284 18.4378 88.7208 18.0302C89.6133 17.6128 90.6555 17.4041 91.8488 17.4041C93.11 17.4041 94.2155 17.6565 95.1661 18.1612C96.1166 18.6562 96.8638 19.3502 97.4068 20.2432C97.6775 20.6757 97.8842 21.1431 98.027 21.6454C98.2833 22.5473 97.4967 23.3298 96.5591 23.3298V23.3298C95.6648 23.3298 94.9762 22.5879 94.5504 21.8015C94.5425 21.7868 94.5344 21.7721 94.5262 21.7575C94.2736 21.2818 93.9146 20.9032 93.449 20.6218C92.9931 20.3403 92.4455 20.1995 91.8049 20.1995C91.0972 20.1995 90.5102 20.3451 90.0446 20.6364C89.579 20.9178 89.2155 21.3061 88.9533 21.8011C88.6918 22.2864 88.5026 22.8349 88.3856 23.4464C88.2791 24.0482 88.2262 24.6742 88.2262 25.3245V25.8341C88.2262 26.4845 88.2791 27.1154 88.3856 27.7269C88.4929 28.3384 88.6769 28.8868 88.9391 29.3721C89.2103 29.8477 89.579 30.2311 90.0446 30.5224C90.5102 30.8038 91.1017 30.9446 91.8198 30.9446ZM104.478 20.6946V31.6956C104.478 32.6639 103.693 33.4489 102.725 33.4489V33.4489C101.756 33.4489 100.971 32.6639 100.971 31.6956V19.413C100.971 18.4643 101.74 17.6952 102.689 17.6952V17.6952C103.602 17.6952 104.356 18.4096 104.404 19.3214L104.478 20.6946ZM108.726 17.4623C109.073 17.5157 109.292 17.8259 109.289 18.1769L109.271 20.1502C109.268 20.5183 108.933 20.7956 108.566 20.7673V20.7673C108.324 20.748 108.081 20.7383 107.839 20.7383C107.237 20.7383 106.709 20.8256 106.253 21.0003C105.797 21.1653 105.414 21.408 105.104 21.7283C104.803 22.0389 104.57 22.4175 104.405 22.8639C104.277 23.2114 104.19 23.5912 104.144 24.0034C104.121 24.2087 103.96 24.3749 103.754 24.3899V24.3899C103.516 24.4071 103.314 24.2191 103.321 23.9812C103.345 23.1582 103.44 22.3879 103.605 21.6701C103.799 20.8256 104.09 20.0831 104.478 19.4424C104.876 18.8018 105.37 18.3019 105.962 17.9428C106.563 17.5837 107.256 17.4041 108.042 17.4041C108.256 17.4041 108.484 17.4235 108.726 17.4623V17.4623ZM118.14 33.74C116.976 33.74 115.924 33.5508 114.983 33.1722C114.052 32.7839 113.256 32.2452 112.596 31.5561C111.947 30.8669 111.447 30.0564 111.098 29.1246C110.749 28.1928 110.574 27.1882 110.574 26.1108V25.5284C110.574 24.2956 110.753 23.1794 111.112 22.1797C111.471 21.1799 111.971 20.3257 112.611 19.6172C113.251 18.8989 114.008 18.3504 114.881 17.9719C115.754 17.5933 116.699 17.4041 117.718 17.4041C118.843 17.4041 119.827 17.5933 120.671 17.9719C121.515 18.3504 122.214 18.8843 122.767 19.5735C123.329 20.2529 123.746 21.0634 124.018 22.0049C124.299 22.9465 124.44 23.985 124.44 25.1207V25.1207C124.44 25.9489 123.769 26.6204 122.94 26.6204H113.536C112.84 26.6204 112.277 26.0565 112.277 25.3609V25.3609C112.277 24.6654 112.84 24.1015 113.536 24.1015H120.7C120.853 24.1015 120.977 23.9777 120.977 23.8249V23.8249C120.957 23.1939 120.831 22.6019 120.599 22.0486C120.376 21.4953 120.031 21.0488 119.566 20.7091C119.1 20.3694 118.48 20.1995 117.703 20.1995C117.122 20.1995 116.602 20.3257 116.147 20.5781C115.7 20.8207 115.327 21.175 115.026 21.6409C114.726 22.1068 114.493 22.6698 114.328 23.3298C114.172 23.9802 114.095 24.713 114.095 25.5284V26.1108C114.095 26.7999 114.187 27.4406 114.371 28.0326C114.566 28.615 114.847 29.1246 115.215 29.5614C115.584 29.9982 116.03 30.3428 116.554 30.5951C117.078 30.8378 117.674 30.9591 118.343 30.9591C119.187 30.9591 119.939 30.7892 120.599 30.4495C120.835 30.3278 121.06 30.1879 121.274 30.03C121.903 29.5658 122.805 29.4825 123.366 30.0264V30.0264C123.827 30.4725 123.904 31.1944 123.457 31.6538C123.268 31.8478 123.062 32.0384 122.839 32.2258C122.296 32.6723 121.632 33.0363 120.846 33.3178C120.07 33.5993 119.168 33.74 118.14 33.74ZM132.289 31.817C132.16 31.0611 132.206 30.2856 132.425 29.5505L135.589 18.904C135.802 18.187 136.461 17.6952 137.21 17.6952V17.6952C138.372 17.6952 139.188 18.8418 138.806 19.9402L134.623 31.9871C134.319 32.8622 133.494 33.4489 132.568 33.4489V33.4489L132.289 31.817ZM127.878 17.6952C128.627 17.6952 129.287 18.1858 129.503 18.9027L132.719 29.5687C132.948 30.3294 132.993 31.1338 132.849 31.9152L132.568 33.4489V33.4489C131.621 33.4489 130.778 32.8503 130.466 31.9566L126.275 19.9522C125.89 18.8488 126.709 17.6952 127.878 17.6952V17.6952ZM148.49 33.74C147.327 33.74 146.274 33.5508 145.333 33.1722C144.402 32.7839 143.606 32.2452 142.947 31.5561C142.297 30.8669 141.798 30.0564 141.448 29.1246C141.099 28.1928 140.925 27.1882 140.925 26.1108V25.5284C140.925 24.2956 141.104 23.1794 141.463 22.1797C141.822 21.1799 142.321 20.3257 142.961 19.6172C143.602 18.8989 144.358 18.3504 145.231 17.9719C146.104 17.5933 147.05 17.4041 148.069 17.4041C149.194 17.4041 150.178 17.5933 151.022 17.9719C151.866 18.3504 152.564 18.8843 153.117 19.5735C153.68 20.2529 154.097 21.0634 154.369 22.0049C154.649 22.9465 154.79 23.985 154.79 25.1207V25.1207C154.79 25.9489 154.119 26.6204 153.291 26.6204H143.886C143.191 26.6204 142.627 26.0565 142.627 25.3609V25.3609C142.627 24.6654 143.191 24.1015 143.886 24.1015H151.051C151.204 24.1015 151.328 23.9777 151.328 23.8249V23.8249C151.308 23.1939 151.182 22.6019 150.949 22.0486C150.726 21.4953 150.382 21.0488 149.916 20.7091C149.451 20.3694 148.83 20.1995 148.054 20.1995C147.472 20.1995 146.953 20.3257 146.497 20.5781C146.051 20.8207 145.677 21.175 145.376 21.6409C145.076 22.1068 144.843 22.6698 144.678 23.3298C144.524 23.9802 144.445 24.713 144.445 25.5284V26.1108C144.445 26.7999 144.538 27.4406 144.722 28.0326C144.916 28.615 145.197 29.1246 145.566 29.5614C145.934 29.9982 146.381 30.3428 146.904 30.5951C147.428 30.8378 148.025 30.9591 148.694 30.9591C149.538 30.9591 150.289 30.7892 150.949 30.4495C151.186 30.3276 151.411 30.1876 151.626 30.0294C152.254 29.5652 153.156 29.4823 153.717 30.0262V30.0262C154.177 30.4725 154.255 31.1943 153.808 31.6539C153.619 31.8478 153.413 32.0384 153.19 32.2258C152.646 32.6723 151.983 33.0363 151.197 33.3178C150.42 33.5993 149.518 33.74 148.49 33.74ZM165.871 13.7625C166.037 14.6221 165.974 15.5102 165.689 16.3379L160.207 32.2529C159.961 32.9685 159.287 33.4489 158.531 33.4489V33.4489C157.292 33.4489 156.434 32.2107 156.871 31.051L163.365 13.783C163.712 12.8607 164.594 12.25 165.58 12.25V12.25L165.871 13.7625ZM172.688 33.4489C171.929 33.4489 171.254 32.9675 171.006 32.2502L165.501 16.3027C165.223 15.4973 165.155 14.6342 165.305 13.7953L165.58 12.25V12.25C166.59 12.25 167.495 12.8757 167.852 13.8212L174.353 31.0412C174.792 32.205 173.932 33.4489 172.688 33.4489V33.4489ZM169.666 25.5866C170.466 25.5866 171.115 26.2352 171.115 27.0353V27.0353C171.115 27.8354 170.466 28.484 169.666 28.484H161.04C160.24 28.484 159.591 27.8354 159.591 27.0353V27.0353C159.591 26.2352 160.24 25.5866 161.04 25.5866H169.666ZM179.707 12.25C180.715 12.25 181.533 13.0676 181.533 14.0762V31.6227C181.533 32.6312 180.715 33.4489 179.707 33.4489V33.4489C178.698 33.4489 177.88 32.6312 177.88 31.6227V14.0762C177.88 13.0676 178.698 12.25 179.707 12.25V12.25Z" fill="#2A004E"/>
<path d="M29.0738 14.1364L27.6547 13.1063L14.8824 3.74129H14.7263C14.6393 3.69274 14.549 3.65511 14.4567 3.62891H14.1871H13.9316C13.8346 3.65513 13.7397 3.69274 13.6478 3.74129H13.4917L0.71943 13.1063C0.501027 13.2697 0.319366 13.5065 0.192978 13.7928C0.0665904 14.0791 0 14.4045 0 14.7358C0 15.0671 0.0665904 15.3925 0.192978 15.6788C0.319366 15.965 0.501027 16.2019 0.71943 16.3653L4.25308 18.95V27.8281C4.25308 29.3184 4.70163 30.7475 5.50005 31.8013C6.29847 32.8551 7.38136 33.4471 8.51048 33.4471H19.8636C20.9928 33.4471 22.0756 32.8551 22.874 31.8013C23.6725 30.7475 24.121 29.3184 24.121 27.8281V18.95L26.9593 16.8523V22.2091C26.9593 22.7058 27.1088 23.1822 27.375 23.5335C27.6411 23.8847 28.002 24.0821 28.3785 24.0821C28.7548 24.0821 29.1158 23.8847 29.3819 23.5335C29.6481 23.1822 29.7976 22.7058 29.7976 22.2091V15.766C29.7971 15.434 29.7299 15.1083 29.6027 14.8219C29.4755 14.5356 29.293 14.2991 29.0738 14.1364ZM21.2828 27.8281C21.2828 28.3248 21.1333 28.8012 20.8671 29.1525C20.6009 29.5037 20.24 29.7011 19.8636 29.7011H8.51048C8.13414 29.7011 7.77314 29.5037 7.50705 29.1525C7.24088 28.8012 7.09136 28.3248 7.09136 27.8281V21.0291L13.4917 25.7116L13.7046 25.824H13.8323C13.95 25.8436 14.0692 25.8436 14.1871 25.824C14.3048 25.8436 14.424 25.8436 14.5418 25.824H14.6696C14.7449 25.803 14.8169 25.765 14.8824 25.7116L21.2828 21.0291V27.8281ZM14.1871 21.9468L4.33823 14.7171L14.1871 7.48729L24.0358 14.7171L14.1871 21.9468Z" fill="#2A004E"/>
<path d="M36.484 0.807068C36.7239 0.158061 37.6412 0.158061 37.8813 0.807068L39.437 5.01429C39.5125 5.21833 39.6732 5.37921 39.8771 5.45472L44.0814 7.01153C44.7299 7.25164 44.7299 8.16959 44.0814 8.40978L39.8771 9.96659C39.6732 10.0421 39.5125 10.203 39.437 10.407L37.8813 14.6142C37.6412 15.2633 36.7239 15.2633 36.484 14.6142L34.9282 10.407C34.8528 10.203 34.692 10.0421 34.4881 9.96659L30.2838 8.40978C29.6352 8.16959 29.6352 7.25164 30.2838 7.01153L34.4881 5.45472C34.692 5.37921 34.8528 5.21833 34.9282 5.01429L36.484 0.807068Z" fill="#2A004E"/>
</g>
<defs>
<clipPath id="clip0_2_4316">
<rect width="184" height="41" fill="white" transform="translate(0 0.320312)"/>
</clipPath>
</defs>
</svg>
