<svg width="78" height="78" viewBox="0 0 78 78" fill="none" xmlns="http://www.w3.org/2000/svg">
<circle cx="38.9312" cy="39.3199" r="38.4312" fill="#367CFF"/>
<path fill-rule="evenodd" clip-rule="evenodd" d="M48.6614 37.5081C48.6614 39.1701 48.3341 40.8159 47.698 42.3514C47.062 43.887 46.1297 45.2822 44.9545 46.4574C43.7793 47.6327 42.384 48.5649 40.8485 49.201C39.313 49.837 37.6672 50.1644 36.0052 50.1644C34.3431 50.1644 32.6974 49.837 31.1618 49.201C29.6263 48.5649 28.2311 47.6327 27.0559 46.4574C25.8806 45.2822 24.9484 43.887 24.3123 42.3514C23.6763 40.8159 23.3489 39.1701 23.3489 37.5081C23.3489 34.1515 24.6823 30.9323 27.0559 28.5588C29.4294 26.1853 32.6485 24.8519 36.0052 24.8519C39.3618 24.8519 42.581 26.1853 44.9545 28.5588C47.328 30.9323 48.6614 34.1515 48.6614 37.5081ZM46.3552 50.8394C42.9644 53.4718 38.6978 54.713 34.424 54.3104C30.1502 53.9077 26.1905 51.8915 23.351 48.672C20.5115 45.4526 19.0057 41.2721 19.1401 36.9815C19.2745 32.6909 21.039 28.6127 24.0744 25.5773C27.1098 22.5419 31.1879 20.7774 35.4785 20.643C39.7691 20.5087 43.9497 22.0145 47.1691 24.854C50.3885 27.6934 52.4048 31.6531 52.8074 35.9269C53.2101 40.2007 51.9689 44.4673 49.3364 47.8581L57.1833 55.705C57.3905 55.8981 57.5568 56.131 57.6721 56.3897C57.7873 56.6485 57.8493 56.9278 57.8543 57.211C57.8593 57.4942 57.8072 57.7756 57.7011 58.0382C57.5951 58.3009 57.4371 58.5395 57.2368 58.7398C57.0365 58.9401 56.7979 59.098 56.5353 59.2041C56.2726 59.3102 55.9913 59.3623 55.7081 59.3573C55.4249 59.3523 55.1455 59.2903 54.8868 59.175C54.628 59.0597 54.3952 58.8935 54.202 58.6862L46.3552 50.8394Z" fill="white"/>
</svg>
