<svg width="572" height="399" viewBox="0 0 572 399" fill="none" xmlns="http://www.w3.org/2000/svg">
<g clip-path="url(#clip0_2_4235)">
<path d="M532.538 398.601C555.018 398.601 572.954 380.792 571.961 359.462C570.663 331.572 555.647 292.192 496.463 252.834C424.291 204.844 456.84 66.6641 303.495 76.1984C150.15 85.7327 164.769 187.852 70.7401 234.654C10.8864 264.447 0.00377643 322.741 0 361.18C0 381.857 17.6893 398.601 39.4594 398.601H532.538Z" fill="#F3F5FD"/>
<path d="M67.8712 368.424C63.4873 367.162 60.1867 363.233 58.8757 358.853C57.5648 354.473 58.0266 349.724 59.3073 345.335C60.3523 341.755 61.9363 338.294 62.3285 334.583C63.6281 322.229 51.6725 309.607 57.2988 298.538C59.118 294.959 62.6397 292.161 63.2666 288.194C63.7867 284.912 62.1736 281.724 61.372 278.501C60.2687 274.067 60.8276 269.03 63.6993 265.478C66.571 261.925 71.9978 260.373 75.9549 262.648C81.1302 265.622 81.5791 272.97 80.2487 278.799C78.9183 284.629 76.4534 290.626 78.0789 296.38C79.6278 301.864 84.6688 305.994 85.5724 311.621C86.3239 316.299 84.0456 320.86 83.0443 325.491C81.4712 332.769 83.0724 340.314 83.1415 347.76C83.2105 355.207 81.1114 363.558 67.8712 368.424Z" fill="#8DDBE0"/>
<path d="M61.1051 369.131C58.4963 368.3 56.1551 366.788 54.322 364.75C52.4889 362.712 51.2298 360.222 50.6741 357.536C49.8163 353.102 50.8694 348.127 48.4497 344.321C45.1713 339.162 41.8086 338.579 37.7268 334.033C31.4504 327.041 31.2297 323.945 31.6435 310.998C31.8189 305.523 24.2752 299.343 26.9316 294.082C29.2725 289.447 36.3873 289.424 40.4221 292.685C44.457 295.947 46.2292 301.174 47.9874 306.062C49.7456 310.95 51.9618 316.12 56.4186 318.773C59.0912 320.364 62.5903 321.098 64.0669 323.841C65.2538 326.044 64.6555 328.733 64.1786 331.19C62.9798 337.367 63.2803 344.903 68.4524 348.47C70.7863 350.079 73.8419 350.633 75.7604 352.723C77.6572 354.788 77.9626 357.848 77.8342 360.653C77.5822 366.044 76.1002 371.306 73.5021 376.033" fill="#DEE8F5"/>
<path d="M67.3423 373.432C62.6854 368.099 62.0272 359.651 65.8009 353.659C68.9672 348.63 74.8682 345.17 76.1052 339.353C77.2085 334.174 74.1479 328.822 75.0645 323.607C76.0604 317.935 81.2881 314.214 85.4405 310.234C86.5213 309.266 87.4508 308.141 88.1979 306.897C90.0246 303.602 89.5148 299.561 90.1352 295.843C91.3221 288.725 97.1745 282.41 104.28 281.234C110.511 280.202 114.974 283.789 114.974 290.397C114.974 298.224 109.124 301.579 106.139 305.122C101.853 310.253 99.5775 316.773 99.7392 323.463C99.9496 330.935 103.125 338.891 99.7327 345.549C97.2441 350.435 91.9274 353.04 87.7501 356.586C84.5945 359.297 82.0259 362.626 80.2024 366.37C78.3789 370.113 77.3391 374.191 77.147 378.352" fill="white"/>
<path d="M87.4399 361.16H49.8633V398.822H87.4399V361.16Z" fill="#DEE8F5"/>
<g opacity="0.42">
<path d="M87.4399 368.504H49.8633V375.855H87.4399V368.504Z" fill="white"/>
</g>
<path d="M363.347 377.131L357.657 398.6H365.69L374.727 377.131H363.347Z" fill="#DEE8F5"/>
<path d="M467.106 377.131L472.796 398.6H464.763L455.726 377.131H467.106Z" fill="#DEE8F5"/>
<path d="M399.943 377.131L394.253 398.6H402.286L411.322 377.131H399.943Z" fill="#C1D8ED"/>
<path d="M503.702 377.131L509.392 398.6H501.359L492.322 377.131H503.702Z" fill="#C1D8ED"/>
<path d="M512.221 346.204H408.711L415.731 269.668C415.899 267.837 416.744 266.135 418.099 264.895C419.455 263.656 421.223 262.969 423.058 262.969H511.791C512.814 262.969 513.826 263.183 514.762 263.597C515.697 264.01 516.537 264.616 517.226 265.373C517.916 266.131 518.44 267.024 518.766 267.996C519.091 268.968 519.211 269.997 519.117 271.018L512.221 346.204Z" fill="#C1D8ED"/>
<path d="M420.312 310.426H349.94V380.957H420.312V310.426Z" fill="#C1D8ED"/>
<path d="M492.161 346.204H392.468L399.488 269.668C399.655 267.837 400.5 266.135 401.855 264.895C403.211 263.656 404.979 262.969 406.814 262.969H491.73C492.753 262.969 493.764 263.183 494.7 263.597C495.636 264.01 496.476 264.616 497.165 265.373C497.855 266.131 498.379 267.024 498.705 267.996C499.03 268.968 499.15 269.997 499.056 271.018L492.161 346.204Z" fill="#DEE8F5"/>
<g opacity="0.48">
<path d="M492.161 346.204H392.468L399.488 269.668C399.655 267.837 400.5 266.135 401.855 264.895C403.211 263.656 404.979 262.969 406.814 262.969H491.73C492.753 262.969 493.764 263.183 494.7 263.597C495.636 264.01 496.476 264.616 497.165 265.373C497.855 266.131 498.379 267.024 498.705 267.996C499.03 268.968 499.15 269.997 499.056 271.018L492.161 346.204Z" fill="#C1D8ED"/>
</g>
<path d="M456.975 310.426H516.909C519.677 310.426 522.332 311.528 524.289 313.49C526.247 315.452 527.346 318.112 527.346 320.887V373.652C527.346 376.426 526.247 379.087 524.289 381.049C522.332 383.011 519.677 384.113 516.909 384.113H456.975V310.426Z" fill="#C1D8ED"/>
<path d="M456.974 384.113H349.94C346.903 384.113 343.991 382.904 341.843 380.752C339.696 378.599 338.489 375.68 338.489 372.636V321.903C338.489 318.859 339.696 315.94 341.843 313.787C343.991 311.635 346.903 310.426 349.94 310.426C352.978 310.426 355.89 311.635 358.038 313.787C360.185 315.94 361.392 318.859 361.392 321.903V361.158H445.523V321.903C445.544 318.873 446.759 315.973 448.905 313.838C451.05 311.702 453.951 310.504 456.975 310.504C459.998 310.504 462.899 311.702 465.044 313.838C467.19 315.973 468.405 318.873 468.426 321.903V372.636C468.426 375.68 467.219 378.599 465.072 380.752C462.924 382.904 460.011 384.113 456.974 384.113Z" fill="#DEE8F5"/>
<path d="M355.396 338.504H445.679V363.055H355.396C353.455 363.055 351.594 362.282 350.222 360.906C348.85 359.531 348.079 357.665 348.079 355.72V345.84C348.079 343.895 348.85 342.029 350.222 340.653C351.594 339.278 353.455 338.504 355.396 338.504Z" fill="#F3F5FD"/>
<g opacity="0.15">
<path d="M355.396 338.504H445.679V363.055H355.396C353.455 363.055 351.594 362.282 350.222 360.906C348.85 359.531 348.079 357.665 348.079 355.72V345.84C348.079 343.895 348.85 342.029 350.222 340.653C351.594 339.278 353.455 338.504 355.396 338.504Z" fill="#C1D8ED"/>
</g>
<path d="M369.216 84.2238C369.216 62.1039 360.448 40.89 344.843 25.2488C329.237 9.60764 308.071 0.820456 286.001 0.820312C240.036 0.820312 202.326 39.0134 202.789 85.0808C202.962 104.762 210.102 123.742 222.938 138.638C241.196 159.87 250.912 187.159 250.912 215.188H321.088C321.133 186.956 331.188 159.66 349.46 138.173C362.241 123.119 369.246 103.99 369.216 84.2238Z" fill="#0CBC8B"/>
<path d="M275.173 227.815C274.904 227.815 274.645 227.716 274.443 227.539C274.241 227.361 274.11 227.115 274.075 226.848C273.365 221.383 256.666 92.9507 256.666 89.4188C256.666 84.9092 259.721 81.6515 264.449 81.1199C266.786 80.8879 269.145 81.2494 271.307 82.1711C273.622 77.8962 278.144 75.4241 284.147 75.1819C287.769 75.0353 291.149 76.8959 293.819 80.456C295.238 78.9765 296.989 77.8574 298.926 77.1917C301.494 76.3752 305.431 76.2833 309.606 80.4673C311.951 82.8183 311.008 95.5683 308.297 124.103C307.703 130.353 307.089 136.815 306.57 142.962C303.086 184.212 299.438 226.381 299.402 226.802C299.392 226.949 299.352 227.093 299.286 227.225C299.22 227.356 299.128 227.474 299.017 227.569C298.905 227.665 298.775 227.738 298.635 227.783C298.495 227.828 298.348 227.844 298.201 227.832C298.055 227.819 297.912 227.777 297.782 227.708C297.652 227.64 297.536 227.546 297.443 227.432C297.349 227.319 297.279 227.187 297.236 227.046C297.194 226.905 297.18 226.757 297.195 226.61C297.231 226.189 300.879 184.023 304.363 142.774C304.883 136.616 305.496 130.148 306.092 123.892C307.094 113.348 308.041 103.386 308.478 95.6494C309.126 84.2042 308.304 82.336 308.037 82.0359C305.319 79.3123 302.48 78.3953 299.596 79.3091C297.858 79.9237 296.302 80.9675 295.073 82.3441C298.213 87.6761 299.246 94.6323 297.363 98.0047C297.024 98.6663 296.509 99.2207 295.874 99.6058C295.24 99.991 294.511 100.192 293.769 100.186C292.643 100.186 291.53 99.569 290.55 98.4016C289.685 97.3264 289.05 96.0841 288.684 94.752C288.319 93.4199 288.231 92.0267 288.427 90.6592C289.034 87.5582 290.367 84.6461 292.317 82.1624C290.755 79.972 288.039 77.2544 284.236 77.4009C279.094 77.608 275.244 79.6438 273.294 83.1584C277.331 85.5148 280.847 89.8416 282.276 96.1409C283.143 99.9642 281.69 101.299 280.747 101.755C278.659 102.767 275.383 101.294 272.958 98.2594C271.414 96.3054 270.375 93.9998 269.932 91.5469C269.49 89.0941 269.658 86.5697 270.422 84.1977C268.615 83.4338 266.646 83.1344 264.694 83.3266C261.053 83.7359 258.88 86.0139 258.88 89.4193C258.885 92.1796 270.258 180.334 276.271 226.561C276.308 226.853 276.229 227.148 276.05 227.381C275.871 227.615 275.606 227.767 275.315 227.805C275.268 227.811 275.22 227.815 275.173 227.815ZM272.427 85.2131C271.861 87.1975 271.771 89.2876 272.164 91.3135C272.556 93.3393 273.421 95.2436 274.687 96.8714C276.672 99.3554 278.962 100.152 279.785 99.755C280.362 99.4754 280.489 98.2794 280.116 96.6329C278.867 91.1258 275.868 87.3186 272.427 85.2131ZM293.57 84.1906C292.107 86.2353 291.097 88.5704 290.61 91.0387C290.474 92.087 290.549 93.1518 290.83 94.1706C291.111 95.1894 291.592 96.1416 292.245 96.9714C292.421 97.2295 292.647 97.45 292.908 97.6204C293.17 97.7908 293.462 97.9076 293.769 97.9642C294.117 97.9714 294.46 97.8763 294.755 97.6906C295.051 97.5049 295.285 97.2366 295.43 96.919C296.69 94.6626 296.187 89.0641 293.57 84.1906Z" fill="white"/>
<path d="M320.756 215.188C320.756 224.426 317.095 233.287 310.577 239.819C304.059 246.352 295.218 250.022 286 250.022C276.782 250.022 267.942 246.352 261.424 239.819C254.906 233.287 251.244 224.426 251.244 215.188" fill="#DEE8F5"/>
<path d="M156.787 153.117C156.949 155.101 154.885 156.947 154.545 158.817C154.193 160.752 155.455 163.209 154.632 164.945C153.797 166.705 151.091 167.277 149.84 168.752C148.588 170.227 148.462 172.996 146.863 174.105C145.286 175.198 142.664 174.346 140.816 175.006C139.029 175.644 137.543 177.98 135.564 178.142C133.584 178.304 131.741 176.236 129.876 175.896C127.946 175.543 125.494 176.807 123.762 175.983C122.006 175.146 121.436 172.434 119.963 171.179C118.491 169.925 115.729 169.799 114.622 168.196C113.532 166.616 114.381 163.987 113.723 162.135C113.087 160.345 110.756 158.855 110.594 156.871C110.432 154.886 112.496 153.04 112.836 151.17C113.187 149.236 111.926 146.778 112.749 145.043C113.583 143.283 116.289 142.711 117.54 141.236C118.792 139.76 118.918 136.991 120.517 135.882C122.094 134.789 124.717 135.641 126.565 134.981C128.351 134.344 129.838 132.007 131.817 131.845C133.796 131.683 135.639 133.75 137.505 134.092C139.435 134.444 141.887 133.18 143.618 134.005C145.375 134.841 145.945 137.553 147.417 138.807C148.889 140.061 151.651 140.188 152.758 141.791C153.849 143.371 152.999 146 153.657 147.852C154.295 149.642 156.626 151.133 156.787 153.117Z" fill="#0F1011"/>
<path d="M124.951 176.443C124.951 176.443 129.125 174.23 128.203 162.844L136.824 161.25C136.824 161.25 135.846 171.457 140.204 174.702L124.951 176.443Z" fill="#E98862"/>
<g opacity="0.15">
<path d="M138.439 172.566L131.284 167.07L136.908 167.016C137.069 168.945 137.588 170.828 138.439 172.566Z" fill="black"/>
</g>
<path d="M123.316 158.426C123.91 161.882 125.788 165.154 128.827 166.273C132.139 167.594 135.724 168.083 139.269 167.696C148.705 166.929 146.858 145.424 142.382 141.244C137.906 137.063 124.756 139.697 123.151 146.681C122.32 150.294 122.751 155.139 123.316 158.426Z" fill="#E98862"/>
<path d="M136.817 155.778C137.249 155.778 137.599 155.427 137.599 154.994C137.599 154.562 137.249 154.211 136.817 154.211C136.385 154.211 136.035 154.562 136.035 154.994C136.035 155.427 136.385 155.778 136.817 155.778Z" fill="#0F1011"/>
<path d="M142.985 155.276C143.417 155.276 143.767 154.925 143.767 154.492C143.767 154.06 143.417 153.709 142.985 153.709C142.553 153.709 142.203 154.06 142.203 154.492C142.203 154.925 142.553 155.276 142.985 155.276Z" fill="#0F1011"/>
<path d="M144.34 152.824H144.336L142.265 152.797C142.217 152.796 142.169 152.786 142.125 152.767C142.08 152.748 142.04 152.72 142.007 152.686C141.973 152.651 141.946 152.61 141.928 152.565C141.911 152.52 141.902 152.472 141.902 152.424C141.902 152.375 141.912 152.327 141.931 152.283C141.95 152.238 141.977 152.197 142.012 152.164C142.047 152.13 142.088 152.103 142.133 152.085C142.178 152.068 142.226 152.059 142.275 152.061L144.345 152.088C144.44 152.092 144.53 152.133 144.595 152.202C144.661 152.272 144.697 152.363 144.696 152.459C144.696 152.554 144.658 152.645 144.592 152.713C144.525 152.781 144.435 152.821 144.34 152.824Z" fill="#0F1011"/>
<path d="M135.132 153.572C135.042 153.572 134.955 153.539 134.888 153.479C134.821 153.419 134.778 153.337 134.767 153.247C134.757 153.158 134.779 153.067 134.831 152.993C134.882 152.919 134.958 152.867 135.046 152.846L137.088 152.355C137.182 152.336 137.279 152.354 137.36 152.405C137.441 152.456 137.498 152.537 137.521 152.63C137.543 152.723 137.528 152.822 137.479 152.904C137.431 152.986 137.352 153.046 137.259 153.071L135.217 153.562C135.189 153.569 135.161 153.572 135.132 153.572Z" fill="#0F1011"/>
<path d="M137.173 161.165C137.173 161.165 140.058 161.472 142.082 160.766C142.082 160.766 142.065 162.671 139.781 162.856C137.498 163.041 137.173 161.165 137.173 161.165Z" fill="white"/>
<path d="M129.674 149.483C130.24 157.579 129.35 165.712 127.048 173.494C127.048 173.494 120.469 162.126 119.453 152.66C118.499 143.787 125.027 138.554 129.434 137.57C146.186 133.832 147.391 146.096 147.391 146.096C144.341 152.457 127.86 152.429 127.86 152.429" fill="#0F1011"/>
<path d="M132.867 158.367C132.927 159.24 132.642 160.101 132.074 160.764C131.505 161.427 130.698 161.838 129.829 161.909C128.959 161.979 128.097 161.704 127.429 161.141C126.761 160.579 126.341 159.775 126.261 158.904C126.218 158.468 126.263 158.028 126.394 157.61C126.524 157.191 126.738 156.804 127.021 156.47C127.304 156.136 127.652 155.862 128.042 155.666C128.433 155.469 128.859 155.353 129.296 155.325C131.658 155.25 132.719 156.539 132.867 158.367Z" fill="#E98862"/>
<g opacity="0.15">
<path d="M140.283 159.342C140.218 159.342 140.156 159.319 140.107 159.277C140.058 159.235 140.026 159.176 140.017 159.112C140.007 159.048 140.021 158.983 140.055 158.928C140.09 158.873 140.143 158.833 140.204 158.814L141.795 158.327L140.684 155.844C140.67 155.811 140.662 155.776 140.661 155.741C140.66 155.705 140.666 155.67 140.679 155.637C140.691 155.604 140.71 155.573 140.735 155.547C140.759 155.522 140.788 155.501 140.821 155.486C140.853 155.472 140.888 155.464 140.923 155.463C140.959 155.462 140.994 155.468 141.027 155.481C141.06 155.493 141.09 155.512 141.116 155.537C141.142 155.561 141.163 155.591 141.177 155.623L142.412 158.386C142.427 158.421 142.435 158.459 142.435 158.497C142.435 158.535 142.427 158.573 142.411 158.608C142.395 158.643 142.372 158.674 142.344 158.699C142.315 158.725 142.281 158.744 142.245 158.755L140.362 159.332C140.337 159.339 140.31 159.343 140.283 159.342Z" fill="black"/>
</g>
<path d="M154.629 249.488C165.393 297.011 175.138 344.852 182.83 392.975L172.018 395.204C160.133 347.946 150.245 300.133 141.419 252.212L154.629 249.488Z" fill="#E98862"/>
<path d="M132.382 252.432C133.371 299.642 133.299 346.959 131.157 394.138H120.119C117.978 346.96 117.907 299.642 118.894 252.432H132.382Z" fill="#E98862"/>
<path d="M145.437 398.499C145.742 398.498 146.043 398.434 146.322 398.31C146.601 398.187 146.851 398.007 147.057 397.783C147.264 397.558 147.422 397.293 147.521 397.005C147.621 396.716 147.66 396.41 147.636 396.106C147.604 395.684 147.451 395.28 147.197 394.942C146.943 394.604 146.598 394.345 146.202 394.197L133.016 389.771C132.76 389.686 132.489 389.657 132.222 389.687C131.955 389.717 131.697 389.805 131.466 389.944C129.653 391.204 127.485 391.849 125.279 391.782C123.562 391.66 121.913 391.056 120.521 390.04C120.399 389.939 120.25 389.876 120.093 389.856C119.936 389.837 119.777 389.863 119.634 389.931C119.491 389.999 119.37 390.106 119.286 390.241C119.201 390.375 119.157 390.53 119.157 390.689V397.151C119.157 397.342 119.195 397.531 119.268 397.707C119.341 397.883 119.448 398.043 119.582 398.177C119.717 398.312 119.877 398.418 120.053 398.491C120.229 398.563 120.418 398.6 120.608 398.599L145.437 398.499Z" fill="#C1D8ED"/>
<path d="M196.006 398.499C196.31 398.498 196.612 398.434 196.89 398.31C197.169 398.187 197.419 398.007 197.626 397.783C197.832 397.558 197.99 397.293 198.09 397.005C198.189 396.716 198.228 396.41 198.205 396.106C198.172 395.684 198.019 395.28 197.765 394.942C197.511 394.604 197.166 394.345 196.77 394.197L183.584 389.771C183.329 389.686 183.058 389.657 182.79 389.687C182.523 389.717 182.265 389.805 182.035 389.944C180.222 391.204 178.053 391.848 175.848 391.782C174.13 391.66 172.481 391.056 171.089 390.04C170.967 389.939 170.818 389.876 170.661 389.856C170.504 389.837 170.345 389.863 170.202 389.931C170.059 389.999 169.938 390.106 169.854 390.241C169.77 390.375 169.725 390.53 169.726 390.689V397.151C169.726 397.342 169.763 397.531 169.836 397.707C169.909 397.883 170.016 398.043 170.151 398.177C170.286 398.312 170.446 398.418 170.622 398.491C170.798 398.563 170.986 398.6 171.176 398.599L196.006 398.499Z" fill="#C1D8ED"/>
<path d="M112.058 232.051C112.058 232.051 105.929 259.557 105.929 282.69C105.929 305.824 98.8926 341.651 98.8926 341.651C98.8926 341.651 118.835 338.418 132.365 341.651C155.676 347.22 176.577 335.091 176.577 335.091L153.101 234.59L112.058 232.051Z" fill="#262626"/>
<path d="M182.601 176.158C182.601 176.158 182.682 169.664 187.313 170.001C190.235 170.214 204.119 169.568 204.325 170.836C204.837 173.972 192.137 174.739 190.985 177.661L182.601 176.158Z" fill="#E98862"/>
<path d="M185.673 170.209C185.673 170.209 192.119 168.103 193.704 168.478C195.106 168.813 192.182 171.101 192.182 171.101L185.673 170.209Z" fill="#E98862"/>
<path d="M182.056 172.363L170.432 194.118L153.039 177.811C152.24 176.562 151.143 175.533 149.846 174.817L149.763 174.739L149.743 174.76C147.778 173.771 145.614 173.245 143.415 173.222C143.076 173.206 142.531 173.195 141.83 173.184C141.69 176.158 123.314 176.147 122.926 173.114C117.736 173.119 113.48 174.714 111.014 177.185C102.517 185.702 112.945 200.214 112.945 211.569C112.945 222.924 107.82 228.017 108.198 233.846C108.791 243.005 153.208 240.843 155.468 235.636C156.791 232.591 155.838 230.205 154.806 225.503L165.345 225.179L164.987 213.391L153.334 213.748C153.283 212.403 153.262 210.963 153.28 209.406C153.334 204.822 154.104 199.732 154.638 194.851L168.078 207.45C168.712 208.044 169.474 208.485 170.304 208.737C171.135 208.99 172.013 209.047 172.87 208.905C173.726 208.764 174.539 208.427 175.245 207.92C175.951 207.414 176.531 206.751 176.941 205.984L192.047 177.716L182.056 172.363Z" fill="#367CFF"/>
<path d="M141.832 173.184C141.692 176.157 140.079 180.532 135.1 180.862C128.464 181.3 123.317 176.147 122.929 173.113H122.945C129.478 173.113 138.021 173.124 141.832 173.184Z" fill="#E98862"/>
<path d="M162.568 185.29L156.021 212.85C155.919 213.279 155.915 213.725 156.01 214.156C156.105 214.586 156.296 214.99 156.568 215.336C156.841 215.682 157.188 215.961 157.584 216.154C157.98 216.346 158.414 216.446 158.853 216.446H197.47C198.108 216.446 198.728 216.236 199.235 215.848C199.743 215.46 200.109 214.916 200.278 214.299L207.827 186.739C207.945 186.306 207.962 185.851 207.877 185.41C207.791 184.969 207.606 184.554 207.334 184.196C207.062 183.839 206.712 183.55 206.31 183.35C205.908 183.151 205.466 183.047 205.018 183.047H165.402C164.747 183.047 164.111 183.268 163.597 183.675C163.082 184.082 162.72 184.651 162.568 185.29Z" fill="#9EBCEA"/>
<path d="M188.946 213.016H142.27C141.325 213.016 140.559 213.784 140.559 214.731C140.559 215.678 141.325 216.446 142.27 216.446H188.946C189.891 216.446 190.657 215.678 190.657 214.731C190.657 213.784 189.891 213.016 188.946 213.016Z" fill="#9EBCEA"/>
<path d="M183.504 204.052C186.026 204.052 188.071 202.002 188.071 199.474C188.071 196.946 186.026 194.896 183.504 194.896C180.981 194.896 178.937 196.946 178.937 199.474C178.937 202.002 180.981 204.052 183.504 204.052Z" fill="white"/>
<path d="M174.708 220.062C172.285 221.56 168.536 222.268 165.266 222.528L165.083 216.558C166.621 216.515 168.984 216.353 171.298 216.445C172.343 215.59 172.946 215.336 174.019 214.26C175.162 213.115 178.16 212.427 178.727 214.26C179.293 216.093 176.833 218.743 174.708 220.062Z" fill="#E98862"/>
</g>
<defs>
<clipPath id="clip0_2_4235">
<rect width="572" height="398" fill="white" transform="translate(0 0.820312)"/>
</clipPath>
</defs>
</svg>
