<svg width="812" height="569" viewBox="0 0 812 569" fill="none" xmlns="http://www.w3.org/2000/svg">
<g clip-path="url(#clip0_2_4084)">
<path d="M55.3736 568.819C47.9632 568.819 40.6296 567.321 33.8151 564.416C27.0006 561.511 20.8464 557.258 15.7237 551.915C10.601 546.572 6.61595 540.248 4.00891 533.326C1.40187 526.404 0.226846 519.027 0.554714 511.64C2.35998 470.895 23.2392 413.362 105.538 355.863C205.898 285.749 160.632 83.8787 373.87 97.8075C587.108 111.736 582.38 260.927 713.132 329.304C796.362 372.83 811.494 457.993 811.5 514.15C811.486 528.659 805.698 542.57 795.408 552.822C785.119 563.074 771.17 568.828 756.629 568.819H55.3736Z" fill="#F3F5FD"/>
<path d="M565.736 0.820312H204.274V468.73H565.736V0.820312Z" fill="#C1D8ED"/>
<path d="M532.421 109.66H237.592V120.8H532.421V109.66Z" fill="white"/>
<path d="M532.421 142.705H237.592V153.845H532.421V142.705Z" fill="white"/>
<path d="M532.421 175.75H237.592V186.89H532.421V175.75Z" fill="white"/>
<path d="M532.421 208.795H237.592V431.609H532.421V208.795Z" fill="white"/>
<path d="M532.421 51.3438H237.592V81.7222H532.421V51.3438Z" fill="white"/>
<path d="M261.021 248.209C259.99 246.879 261.22 244.624 261.827 243.367C262.616 241.732 263.543 239.843 265.282 239.041C265.626 238.846 266.008 238.729 266.403 238.697C266.797 238.665 267.194 238.72 267.565 238.857C267.936 238.994 268.272 239.21 268.551 239.491C268.829 239.771 269.043 240.109 269.177 240.48C269.915 242.091 270.127 243.828 271.297 245.229C272.355 246.497 274.023 247.384 275.671 246.742C277.272 246.119 277.939 244.342 279.103 243.199C281.346 240.998 285.012 239.631 287.537 242.135C288.901 243.488 289.931 245.002 291.801 245.71C293.579 246.292 295.497 246.292 297.276 245.71C301.094 244.615 304.203 241.513 308.327 241.477C312.077 241.445 315.533 243.436 318.781 245.068C322.029 246.7 325.275 248.061 328.923 248.476C332.773 248.891 336.666 248.383 340.279 246.994C343.892 245.605 347.121 243.375 349.696 240.49C350.678 239.359 349.029 237.7 348.041 238.839C345.709 241.466 342.784 243.501 339.507 244.775C336.231 246.05 332.697 246.527 329.198 246.168C325.386 245.784 322.041 244.093 318.666 242.398C315.292 240.703 311.614 238.91 307.723 239.162C305.671 239.357 303.683 239.977 301.885 240.983C300.072 241.917 298.335 243.027 296.346 243.54C294.459 244.026 292.513 243.914 291.055 242.506C289.685 241.183 288.67 239.626 286.835 238.884C283.636 237.595 280.026 239.141 277.649 241.355C277.045 241.929 276.5 242.564 276.024 243.249C275.583 243.872 275.088 244.856 274.172 244.572C272.456 244.031 272.123 241.643 271.581 240.221C270.895 238.424 269.739 236.802 267.72 236.445C266.712 236.304 265.685 236.411 264.728 236.755C263.771 237.1 262.912 237.673 262.227 238.424C260.81 240.058 259.715 241.944 259.002 243.984C258.202 245.986 257.983 248.082 259.365 249.864C259.585 250.082 259.882 250.203 260.192 250.203C260.502 250.203 260.799 250.082 261.02 249.864C261.232 249.642 261.351 249.346 261.351 249.038C261.351 248.731 261.232 248.435 261.02 248.212L261.021 248.209Z" fill="#0CBC8B"/>
<path d="M281.034 560.397L264.766 558.466C265.498 552.321 266.326 544.941 266.382 543.73C266.382 543.808 266.382 543.872 266.382 543.921H282.765C282.759 544.412 282.759 545.902 281.034 560.397Z" fill="#E98862"/>
<path d="M215.754 562.349L199.371 562.296C199.371 562.296 199.426 545.415 199.426 543.92H215.81C215.81 545.422 215.754 562.349 215.754 562.349Z" fill="#E98862"/>
<path d="M192.027 355.979C192.027 358.299 193.254 366.055 191.28 366.609C190.096 366.941 188.698 361.159 188.698 361.159" fill="#E98862"/>
<path d="M182.706 354.762C182.706 354.762 176.259 370.42 183.613 379.416C183.8 379.645 184.053 379.812 184.337 379.895C184.621 379.979 184.924 379.975 185.206 379.884C185.488 379.793 185.736 379.619 185.917 379.386C186.099 379.152 186.205 378.869 186.223 378.574C186.581 372.509 187.806 360.046 191.814 361.506V351.725" fill="#E98862"/>
<path d="M329.642 256.543C329.642 256.543 338.646 249.406 339.282 246.842C339.918 244.278 333.578 239.236 333.578 239.236L328.56 240.41C328.56 240.41 329.943 235.973 328.22 235.681C327.513 235.561 326.952 236.254 325.843 239.396C324.581 242.977 322.059 248.36 322.059 248.36L329.642 256.543Z" fill="#E98862"/>
<path d="M227.724 246.948C227.724 246.948 233.998 244.259 233.998 227.811L246.609 226.529C246.609 226.529 244.009 241.063 249.912 246.225L227.724 246.948Z" fill="#E98862"/>
<path d="M227.47 220.9C227.923 225.927 230.248 230.842 234.498 232.802C239.119 235.085 244.229 236.204 249.383 236.063C263.073 236.063 262.918 204.988 256.954 198.465C250.99 191.943 231.73 194.189 228.602 204.025C226.984 209.111 227.039 216.114 227.47 220.9Z" fill="#E98862"/>
<path d="M247.329 218.678C247.953 218.678 248.459 218.173 248.459 217.55C248.459 216.927 247.953 216.422 247.329 216.422C246.704 216.422 246.198 216.927 246.198 217.55C246.198 218.173 246.704 218.678 247.329 218.678Z" fill="#367CFF"/>
<path d="M245.107 215.315C244.974 215.314 244.845 215.264 244.748 215.172C244.65 215.081 244.59 214.957 244.581 214.824C244.571 214.691 244.611 214.559 244.695 214.455C244.778 214.351 244.897 214.282 245.029 214.261L248.03 213.794C248.169 213.775 248.309 213.81 248.423 213.893C248.536 213.975 248.613 214.099 248.637 214.236C248.658 214.375 248.623 214.517 248.54 214.63C248.457 214.744 248.332 214.82 248.193 214.841L245.192 215.308C245.164 215.313 245.136 215.315 245.107 215.315Z" fill="#367CFF"/>
<path d="M255.615 208.806C250.262 232.768 245.332 239.173 232.921 234.376C230.074 233.275 223.256 226.529 222.573 212.173C222.294 207.379 223.782 202.649 226.757 198.874C229.731 195.1 233.988 192.542 238.723 191.683C263.304 188.272 264.167 210.42 264.167 210.42C251.83 212.531 235.027 209.044 235.027 209.044" fill="#0F1011"/>
<path d="M226.001 212.167C232.036 212.167 236.928 207.285 236.928 201.263C236.928 195.241 232.036 190.359 226.001 190.359C219.966 190.359 215.074 195.241 215.074 201.263C215.074 207.285 219.966 212.167 226.001 212.167Z" fill="#0F1011"/>
<path d="M258.217 555.235L287.078 554.744C285.722 520.465 285.64 484.509 285.217 450.148C279.584 413.112 276.617 372.441 269.665 335.671L269.456 335.732L268.846 331.583L209.495 327.924C209.495 327.924 198.675 500.483 195.148 554.307L223.912 556.732C229.094 503.96 237.114 427.068 242.046 371.631C247.711 398.621 251.564 426.568 256.491 453.326C257.477 486.822 258.309 521.839 258.217 555.235Z" fill="#262626"/>
<path d="M235.67 568.675C236.111 568.673 236.546 568.58 236.949 568.403C237.352 568.225 237.714 567.967 238.013 567.644C238.311 567.32 238.539 566.939 238.684 566.524C238.828 566.109 238.885 565.668 238.85 565.23C238.803 564.622 238.583 564.041 238.215 563.554C237.847 563.067 237.348 562.696 236.776 562.483L217.708 556.11C217.338 555.987 216.947 555.946 216.56 555.989C216.173 556.032 215.8 556.158 215.467 556.358C212.845 558.173 209.709 559.101 206.52 559.005C204.036 558.829 201.652 557.96 199.638 556.497C199.462 556.352 199.247 556.26 199.02 556.232C198.793 556.204 198.562 556.242 198.356 556.34C198.149 556.438 197.975 556.592 197.853 556.785C197.731 556.979 197.666 557.203 197.667 557.431V566.735C197.667 567.01 197.721 567.282 197.827 567.535C197.932 567.789 198.087 568.019 198.282 568.213C198.477 568.406 198.708 568.56 198.963 568.664C199.217 568.768 199.49 568.821 199.765 568.82L235.67 568.675Z" fill="#C1D8ED"/>
<path d="M300.995 568.675C301.435 568.673 301.871 568.58 302.274 568.403C302.677 568.225 303.039 567.967 303.337 567.644C303.636 567.32 303.864 566.939 304.008 566.524C304.153 566.109 304.21 565.668 304.176 565.23C304.128 564.622 303.907 564.041 303.54 563.554C303.172 563.068 302.673 562.696 302.101 562.483L283.032 556.11C282.663 555.987 282.271 555.946 281.884 555.989C281.498 556.032 281.125 556.158 280.791 556.358C278.169 558.172 275.033 559.098 271.845 559.002C269.361 558.826 266.976 557.956 264.964 556.494C264.787 556.349 264.572 556.257 264.345 556.229C264.118 556.201 263.888 556.239 263.681 556.337C263.474 556.435 263.3 556.589 263.178 556.782C263.056 556.976 262.991 557.199 262.992 557.428V566.732C262.992 567.007 263.046 567.279 263.152 567.532C263.257 567.786 263.412 568.016 263.607 568.21C263.801 568.403 264.033 568.557 264.287 568.661C264.542 568.765 264.814 568.818 265.089 568.817L300.995 568.675Z" fill="#C1D8ED"/>
<path d="M256.193 222.336C256.201 222.969 256.083 223.597 255.846 224.184C255.609 224.772 255.257 225.306 254.811 225.757C254.366 226.207 253.835 226.565 253.249 226.809C252.664 227.053 252.036 227.179 251.401 227.179C250.767 227.179 250.138 227.053 249.553 226.809C248.968 226.565 248.437 226.207 247.991 225.757C247.545 225.306 247.193 224.772 246.956 224.184C246.719 223.597 246.601 222.969 246.609 222.336C246.598 221.705 246.715 221.078 246.952 220.493C247.189 219.908 247.542 219.377 247.989 218.931C248.436 218.484 248.968 218.133 249.554 217.896C250.141 217.659 250.769 217.543 251.401 217.553C254.814 217.722 256.193 219.695 256.193 222.336Z" fill="#E98862"/>
<path d="M319.553 246.096L297.729 282.094L270.23 252.335C267.91 247.691 263.478 244.671 255.518 244.33C252.385 244.196 237.101 244.174 225.911 244.174C218.393 244.174 212.221 246.476 208.657 250.033C206.862 251.798 205.518 253.968 204.74 256.36L204.632 256.321L186.722 304.909C186.522 305.454 186.378 306.018 186.292 306.592L179.064 355.182L195.891 357.673L202.99 309.947L210.222 290.324C210.975 293.34 211.387 296.431 211.449 299.539C211.449 315.887 204.037 323.219 204.583 331.609C205.441 344.801 269.67 341.684 272.942 334.191C276.312 326.463 269.473 321.703 269.773 296.426C269.839 290.807 270.657 284.659 271.377 278.618L292.892 301.902C293.786 302.871 294.894 303.618 296.128 304.086C297.361 304.553 298.687 304.728 300 304.596C301.312 304.464 302.576 304.028 303.692 303.325C304.807 302.621 305.743 301.668 306.425 300.541L334.109 254.88L319.553 246.096Z" fill="#367CFF"/>
<path d="M348.152 239.95L344.134 241.343L327.72 239.599L325.489 239.358L321.51 238.938L321.923 235.1L325.941 235.528L328.172 235.761L344.54 237.505L348.152 239.95Z" fill="#0CBC8B"/>
<path d="M328.172 235.761L327.72 239.599L325.488 239.358L325.941 235.527L328.172 235.761Z" fill="white"/>
<path d="M329.348 239.48C330.164 238.868 331.018 238.309 331.906 237.807C332.809 237.274 333.759 236.825 334.745 236.467C335.29 236.266 335.853 236.116 336.427 236.019C336.75 235.967 337.076 235.941 337.404 235.941L338.161 235.98C339.175 236.05 340.179 236.217 341.162 236.476C341.431 236.548 341.666 236.713 341.825 236.942C341.984 237.171 342.057 237.448 342.031 237.725C342.005 238.002 341.881 238.261 341.682 238.456C341.483 238.651 341.221 238.769 340.943 238.79L340.877 238.795L338.158 238.994L337.483 239.049C337.334 239.071 337.186 239.102 337.04 239.142C336.68 239.245 336.329 239.379 335.992 239.543C335.218 239.925 334.468 240.354 333.748 240.829C333.012 241.315 332.241 241.85 331.563 242.359L331.532 242.383C331.146 242.664 330.666 242.782 330.194 242.712C329.721 242.642 329.296 242.389 329.009 242.009C328.721 241.629 328.596 241.151 328.658 240.679C328.721 240.206 328.967 239.778 329.344 239.485L329.348 239.48Z" fill="#E98862"/>
<path d="M647.252 556.623H636.163V568.821H647.252V556.623Z" fill="#C1D8ED"/>
<path d="M752.753 556.623H741.664V568.821H752.753V556.623Z" fill="#C1D8ED"/>
<path d="M762.298 417.547H715.772V558.037H762.298V417.547Z" fill="#C1D8ED"/>
<path d="M636.021 420.658H588.376V556.623H636.021V420.658Z" fill="#C1D8ED"/>
<path d="M718.906 558.038H585.242V417.551H718.906V558.038ZM591.508 551.784H712.639V423.802H591.51L591.508 551.784Z" fill="#DEE8F5"/>
<path d="M718.906 558.037H585.242V480.576H718.906V558.037ZM591.508 551.782H712.639V486.835H591.51L591.508 551.782Z" fill="#DEE8F5"/>
<path d="M604.868 556.623H593.779V568.821H604.868V556.623Z" fill="#DEE8F5"/>
<path d="M710.369 556.623H699.28V568.821H710.369V556.623Z" fill="#DEE8F5"/>
<path d="M692.922 469.246H639.716V481.268H692.922V469.246Z" fill="#C1D8ED"/>
<path d="M693.836 445.23H640.63V457.253H693.836V445.23Z" fill="#C1D8ED"/>
<path d="M674.766 469.246H618.5V481.268H674.766V469.246Z" fill="#DEE8F5"/>
<g opacity="0.62">
<path d="M670.173 469.246H667.441V481.268H670.173V469.246Z" fill="#C1D8ED"/>
</g>
<g opacity="0.62">
<path d="M664.711 469.246H661.979V481.268H664.711V469.246Z" fill="#C1D8ED"/>
</g>
<path d="M624.951 479.135C627.096 479.135 628.836 477.399 628.836 475.258C628.836 473.117 627.096 471.381 624.951 471.381C622.805 471.381 621.065 473.117 621.065 475.258C621.065 477.399 622.805 479.135 624.951 479.135Z" fill="#F3F5FD"/>
<path d="M675.68 445.23H619.414V457.253H675.68V445.23Z" fill="#DEE8F5"/>
<path d="M662.301 447.938H623.037V454.544H662.301V447.938Z" fill="#F3F5FD"/>
<g opacity="0.62">
<path d="M671.087 445.23H665.919V457.253H671.087V445.23Z" fill="#C1D8ED"/>
</g>
<path d="M644.055 469.26H697.262V457.237H644.055V469.26Z" fill="#C1D8ED"/>
<path d="M622.838 469.26H679.104V457.237H622.838V469.26Z" fill="#F3F5FD"/>
<path d="M627.432 469.26H630.163V457.237H627.432V469.26Z" fill="#DEE8F5"/>
<path d="M632.894 469.26H635.625V457.237H632.894V469.26Z" fill="#DEE8F5"/>
<path d="M672.654 467.127C674.799 467.127 676.539 465.391 676.539 463.25C676.539 461.109 674.799 459.373 672.654 459.373C670.508 459.373 668.769 461.109 668.769 463.25C668.769 465.391 670.508 467.127 672.654 467.127Z" fill="#DEE8F5"/>
<path d="M664.672 460.303H639.834V466.197H664.672V460.303Z" fill="#DEE8F5"/>
<path d="M673.814 361.213H672.853V384.928H673.814V361.213Z" fill="#C1D8ED"/>
<path d="M673.333 388.075C674.579 388.075 675.59 387.067 675.59 385.824C675.59 384.58 674.579 383.572 673.333 383.572C672.087 383.572 671.077 384.58 671.077 385.824C671.077 387.067 672.087 388.075 673.333 388.075Z" fill="#C1D8ED"/>
<path d="M662.321 342.636L661.917 414.01H650.995C650.759 414.005 650.525 414.047 650.306 414.133C650.086 414.22 649.886 414.35 649.718 414.514C649.549 414.679 649.415 414.876 649.324 415.093C649.233 415.31 649.186 415.543 649.186 415.778C649.186 416.013 649.233 416.246 649.324 416.463C649.415 416.68 649.549 416.877 649.718 417.042C649.886 417.206 650.086 417.336 650.306 417.422C650.525 417.509 650.759 417.551 650.995 417.546H675.69C676.154 417.537 676.595 417.346 676.919 417.015C677.244 416.685 677.425 416.241 677.425 415.778C677.425 415.315 677.244 414.871 676.919 414.54C676.595 414.21 676.154 414.019 675.69 414.01H665.462L665.866 342.631" fill="#C1D8ED"/>
<path d="M685.048 375.465H641.643L641.897 334.863H684.794L685.048 375.465Z" fill="#DEE8F5"/>
<path d="M122.828 406.312C120.432 405.533 117.974 406.41 115.622 408.193C118.72 400.387 119.999 393.336 114.702 393.018C110.997 392.795 108.158 395.632 106.001 399.666C105.242 392.574 103.286 387.288 98.9012 389.038C94.0884 390.964 93.3559 397.562 94.0861 404.466C91.9664 400.939 89.6829 398.973 87.6109 401.041C81.4243 407.214 96.6083 424.61 96.6083 424.61H100.38L102.531 426.946C102.096 427.864 101.857 428.412 101.857 428.412L104.588 433.962C104.588 433.962 132.765 409.559 122.828 406.312Z" fill="#8DDBE0"/>
<path d="M116.063 446.391H94.7215L91.1484 421.529H119.636L116.063 446.391Z" fill="#C1D8ED"/>
<path d="M78.8721 456.317L56.1697 566.797C56.0243 567.374 55.69 567.886 55.22 568.252C54.7499 568.617 54.171 568.816 53.5749 568.816C53.1683 568.816 52.7669 568.723 52.4015 568.545C52.036 568.367 51.7161 568.109 51.466 567.789C51.2159 567.469 51.0422 567.096 50.9581 566.699C50.8741 566.302 50.8819 565.891 50.9809 565.497L74.0071 453.744L78.8721 456.317Z" fill="#C1D8ED"/>
<path d="M132.204 456.144L154.907 566.625C155.051 567.202 155.385 567.714 155.855 568.08C156.325 568.446 156.904 568.644 157.501 568.644C157.907 568.644 158.309 568.552 158.674 568.374C159.04 568.195 159.36 567.937 159.61 567.616C159.86 567.296 160.034 566.924 160.118 566.526C160.202 566.129 160.194 565.718 160.095 565.325L137.069 453.568L132.204 456.144Z" fill="#C1D8ED"/>
<path d="M156.062 445.516H55.014C52.459 445.516 50.3877 447.582 50.3877 450.132V460.294C50.3877 462.843 52.459 464.91 55.014 464.91H156.062C158.617 464.91 160.689 462.843 160.689 460.294V450.132C160.689 447.582 158.617 445.516 156.062 445.516Z" fill="#DEE8F5"/>
</g>
<defs>
<clipPath id="clip0_2_4084">
<rect width="811" height="568" fill="white" transform="translate(0.5 0.820312)"/>
</clipPath>
</defs>
</svg>
